<?xml version="1.0" encoding="UTF-8" standalone="no"?>
<svg
   xmlns:dc="http://purl.org/dc/elements/1.1/"
   xmlns:cc="http://creativecommons.org/ns#"
   xmlns:rdf="http://www.w3.org/1999/02/22-rdf-syntax-ns#"
   xmlns:svg="http://www.w3.org/2000/svg"
   xmlns="http://www.w3.org/2000/svg"
   xmlns:sodipodi="http://sodipodi.sourceforge.net/DTD/sodipodi-0.dtd"
   xmlns:inkscape="http://www.inkscape.org/namespaces/inkscape"
   width="645"
   height="1226"
   viewBox="0 0 645 1226"
   version="1.1"
   id="svg77"
   sodipodi:docname="ff.svg"
   inkscape:version="1.0.1 (c497b03c, 2020-09-10)">
  <metadata
     id="metadata81">
    <rdf:RDF>
      <cc:Work
         rdf:about="">
        <dc:format>image/svg+xml</dc:format>
        <dc:type
           rdf:resource="http://purl.org/dc/dcmitype/StillImage" />
      </cc:Work>
    </rdf:RDF>
  </metadata>
  <sodipodi:namedview
     pagecolor="#ffffff"
     bordercolor="#666666"
     borderopacity="1"
     objecttolerance="10"
     gridtolerance="10"
     guidetolerance="10"
     inkscape:pageopacity="0"
     inkscape:pageshadow="2"
     inkscape:window-width="1175"
     inkscape:window-height="681"
     id="namedview79"
     showgrid="false"
     inkscape:zoom="0.9004894"
     inkscape:cx="322.5"
     inkscape:cy="213.21739"
     inkscape:window-x="0"
     inkscape:window-y="23"
     inkscape:window-maximized="0"
     inkscape:current-layer="svg77"
     inkscape:document-rotation="0" />
  <defs
     id="defs13">
    <clipPath
       id="clip-Female_Front_1">
      <rect
         width="645"
         height="1226"
         id="rect10" />
    </clipPath>
  </defs>
  <rect
     width="645"
     height="1226"
     fill="#ffffff"
     id="rect15"
     x="0"
     y="0" />
  <path
     id="shoulder"
     d="M 455.635,368.142 A 161.3,161.3 0 0 1 402.774,328.03 C 381.39,303.23 363.75,273.686 350.318,240.199 l 1.285,-0.512 c 1.581,-0.634 3.154,-1.265 4.727,-1.871 0.34,0.517 0.693,1 1.061,1.464 a 3.23,3.23 0 0 0 1.3,0.979 74.306,74.306 0 0 0 22.948,16.742 c 9.617,4.563 22.565,10.042 37.448,11.958 9.607,1.25 17.652,6.891 23.263,16.312 0.982,1.725 1.884,3.472 2.661,5.164 l 0.231,0.507 c 5.992,13.325 7.488,27.639 9.076,42.793 0.214,2.043 0.427,4.093 0.656,6.143 a 150.377,150.377 0 0 1 0.746,16.561 c 0,2.187 -0.022,4.374 -0.045,6.566 q -0.022,2.566 -0.04,5.137 z"
     fill="#f4b087" />
  <path
     id="hair"
     d="m 364.034,229.001 a 123.893,123.893 0 0 0 25.279,-5.619 54.827,54.827 0 0 0 16.031,-8.044 c 8.292,-6.349 9.768,-12.737 5.112,-21.988 a 9.4,9.4 0 0 0 -0.693,-1.264 C 394.53,170.894 393.33,147.33 396.834,122.455 400.325,97.674 396.804,74.09 381.084,53.344 363.5,30.137 330.568,19.765 305.06,29.854 c -6.42,2.538 -12.109,5.957 -14.535,12.966 a 3.735,3.735 0 0 1 -3.541,2.949 c -17.947,1.562 -26.184,14.471 -32.857,28.772 -7.792,16.7 -7.711,34.481 -6.193,52.376 0.569,6.706 0.936,13.429 1.331,20.145 A 65.391,65.391 0 0 1 237.4,189.301 c -9.482,13.656 -5.8,22.042 7.807,29.994 10.332,6.038 21.995,8.322 33.741,9.579 5.604,0.601 81.343,0.571 85.086,0.127 z"
     fill="#e47a5f" />
  <path
     id="shoulder"
     d="m 189.719,365.608 c -0.114,-3.233 -0.174,-6.382 -0.174,-9.481 a 234.368,234.368 0 0 1 8.151,-62 l 0.127,-0.492 a 32.477,32.477 0 0 1 10.251,-16.128 30.949,30.949 0 0 1 15.721,-7.506 c 14.888,-1.916 27.833,-7.4 37.451,-11.958 a 73.926,73.926 0 0 0 24.486,-18.432 l 0.2,-0.229 a 18.618,18.618 0 0 0 2.311,-3.109 76.6,76.6 0 0 0 6.879,3.631 c -13.9,34.719 -33.584,66.442 -57,91.844 a 65.286,65.286 0 0 0 -6.128,5.912 c -1.434,1.513 -2.791,2.942 -4.175,4.182 a 135.337,135.337 0 0 1 -12.567,9.98 c -7.307,5.131 -16.475,9.65 -25.533,13.786 z"
     fill="#f4b087" />
  <path
     id="thumb"
     d="m 87,687.026 a 19.416,19.416 0 0 0 2.122,-1.32 65.811,65.811 0 0 0 13.2,-13.211 c 2.147,-2.806 4.123,-5.619 5.81,-8.074 h 0.1 a 1.147,1.147 0 0 1 0.634,0.114 c 0.047,0.04 0.4,0.413 0.405,1.948 a 18.551,18.551 0 0 1 -0.718,4.55 c -1.3,1.312 -2.557,2.622 -3.777,3.9 a 94.189,94.189 0 0 1 -7.5,7.319 c -3.666,3.029 -6.804,4.503 -10.276,4.774 z"
     fill="#f4b087" />
  <path
     id="fingers"
     d="m 132.388,742.48 c -0.508,-2.758 -0.9,-5.555 -1.106,-7.264 0.666,-3.049 3.128,-14.909 3.136,-24.079 0,-0.731 -0.02,-1.441 -0.054,-2.132 a 13.331,13.331 0 0 1 2.517,-4.9 c 0.731,-0.768 1.13,-0.776 1.4,-0.78 a 3.59,3.59 0 0 1 1.849,0.748 17.237,17.237 0 0 1 3.663,3.628 c 0.32,0.413 0.6,0.8 0.833,1.131 l -10.783,35.281 a 12.512,12.512 0 0 1 -0.875,1.222 c -0.203,-0.886 -0.397,-1.85 -0.58,-2.855 z m -11,-3.326 a 234.481,234.481 0 0 1 1.909,-33.3 c 2.326,-1.891 3.415,-1.96 3.424,-1.96 a 4.576,4.576 0 0 1 0.8,2.032 25.623,25.623 0 0 1 0.445,5.2 99.06,99.06 0 0 1 -1.545,15.214 c -0.391,2.311 -0.78,4.317 -1.074,5.738 -0.238,1.181 -0.408,1.923 -0.457,2.142 a 31.99,31.99 0 0 0 -0.967,3.057 c -0.122,0.439 -0.234,0.847 -0.358,1.235 a 12.819,12.819 0 0 1 -1.943,3.72 l -0.224,0.336 q -0.014,-1.7 -0.015,-3.412 z M 109.139,727.08 c 1.265,-7.913 2.572,-16.094 3.586,-24.3 a 8.1,8.1 0 0 1 1.543,-2.05 c 0.08,-0.067 0.144,-0.114 0.194,-0.149 a 2.337,2.337 0 0 1 0.211,0.174 9.286,9.286 0 0 1 1.768,2.654 c 0.211,0.437 0.383,0.835 0.507,1.15 a 190.664,190.664 0 0 0 -1.795,21.479 c -2.3,4.611 -3.954,7.24 -5.862,9.31 -0.53,0.574 -1.1,1.126 -1.72,1.685 q 0.765,-4.993 1.568,-9.953 z m 42.086,-2.318 -0.023,-0.385 a 31.644,31.644 0 0 0 -1.661,-9.541 l 1.685,-5.519 a 19.186,19.186 0 0 1 1.68,-3.162 6.694,6.694 0 0 1 0.94,-1.13 5.169,5.169 0 0 1 0.4,0.552 l 0.005,4.162 c 0,2.465 -0.017,5.109 -0.142,7.721 a 92.457,92.457 0 0 1 -2,14.846 41.04,41.04 0 0 1 -0.884,-7.541 z"
     fill="#f4b087" />
  <path
     id="Palm"
     d="m 147.482,702.053 a 19.994,19.994 0 0 0 -3.787,-3.362 9.8,9.8 0 0 0 -5.447,-1.826 v 0 a 8.267,8.267 0 0 0 -6.1,2.84 c -0.092,0.1 -0.181,0.2 -0.271,0.3 a 7.016,7.016 0 0 0 -0.82,-0.9 6.2,6.2 0 0 0 -4.255,-1.665 10.13,10.13 0 0 0 -5.278,1.772 l -0.06,-0.1 a 13.243,13.243 0 0 0 -2.433,-3.124 6.768,6.768 0 0 0 -4.565,-1.928 5.932,5.932 0 0 0 -0.82,0.057 c 0.706,-7.43 1.039,-14.008 1.039,-20.462 v -0.537 a 25.587,25.587 0 0 0 1.046,-6.64 c 0.015,-3.641 -1.342,-5.651 -2.485,-6.7 a 6.683,6.683 0 0 0 -1.32,-0.937 l 0.055,-0.079 a 46.186,46.186 0 0 0 3.382,-6.392 46.039,46.039 0 0 1 2.117,-4.212 16.587,16.587 0 0 1 4.115,-4.182 c 0.86,-0.671 1.752,-1.327 2.637,-1.973 0.373,-0.273 0.746,-0.547 1.111,-0.818 a 14.516,14.516 0 0 0 2.1,3.328 c 2.254,2.689 5.577,4.938 10.157,6.874 a 23.307,23.307 0 0 0 9.11,1.8 24.22,24.22 0 0 0 11.019,-2.6 c 0.5,5.147 0.9,10.206 0.9,15.244 a 66.765,66.765 0 0 1 -2.192,17.883 64.6,64.6 0 0 0 -2.065,14.662 c -0.142,-0.012 -0.283,-0.017 -0.422,-0.017 a 6.592,6.592 0 0 0 -4.448,1.9 12.751,12.751 0 0 0 -1.779,2.053 2.836,2.836 0 0 0 -0.241,-0.259 z"
     fill="#f4b087" />
  <path
     id="wrist"
     d="m 146.709,646.73 a 17.064,17.064 0 0 1 -6.6,-1.3 c -3.569,-1.5 -6.163,-3.206 -7.714,-5.067 a 8.937,8.937 0 0 1 -2.1,-6.066 21.979,21.979 0 0 1 1.23,-6.605 c 2.977,-9.2 5.763,-19.021 8.718,-30.763 1.444,0.109 2.888,0.2 4.324,0.293 a 86.791,86.791 0 0 1 14.073,1.643 c 6.275,1.474 10.738,4.128 14.361,8.564 -0.519,1.188 -0.947,2.207 -1.253,3 l -0.982,2.572 c -3.275,8.519 -6.663,17.329 -10.172,25.9 a 11.7,11.7 0 0 1 -5.254,5.634 17.821,17.821 0 0 1 -8.631,2.195 z"
     fill="#f4b087" />
  <path
     id="forearm"
     d="m 175.914,601.051 a 31.64,31.64 0 0 0 -15.8,-8.477 92,92 0 0 0 -15.07,-1.794 c -1.081,-0.07 -2.155,-0.137 -3.223,-0.214 2.259,-9.3 4.391,-18.74 6.456,-27.888 q 2.018,-8.943 4.076,-17.865 l 1.436,-6.2 c 4,-17.326 8.129,-35.211 14.617,-51.951 a 46.259,46.259 0 0 0 28.333,9.138 83.646,83.646 0 0 0 22.1,-3.4 c -0.743,5.239 -1.588,10.109 -2.565,14.816 a 170.309,170.309 0 0 1 -8.718,23.474 c -1.066,2.445 -2.2,5.04 -3.447,8.049 -0.649,1.558 -1.725,4.23 -2.985,7.351 l -3.1,7.674 c -3.067,7.557 -5.027,12.2 -5.823,13.8 -1.762,3.534 -6.141,12.356 -10.435,21.215 -2.366,4.889 -4.296,8.937 -5.852,12.272 z"
     fill="#f4b087" />
  <path
     id="elbow"
     d="m 196.792,489.338 a 39.843,39.843 0 0 1 -25.86,-8.844 c 1.213,-2.808 2.423,-5.415 3.678,-7.927 l 0.365,-0.4 a 23.537,23.537 0 0 0 2.766,-3.442 11.087,11.087 0 0 0 1.623,-6.1 v -0.4 c -0.02,-0.755 -0.05,-1.479 -0.082,-2.194 -0.045,-1.056 -0.092,-2.092 -0.092,-3.109 a 15.76,15.76 0 0 1 0.649,-4.988 c 7.294,-2.229 14.963,-4.319 22.18,-4.319 a 28.72,28.72 0 0 1 20.4,7.94 c -0.251,2.063 -0.43,3.941 -0.542,5.708 -0.594,9.232 -1.272,16.961 -2.13,24.185 -9.1,2.654 -16.412,3.894 -22.94,3.894 z"
     fill="#f4b087" />
  <path
     id="arm"
     d="m 223.539,448.131 a 34.656,34.656 0 0 0 -21.432,-6.978 c -6.69,0 -13.325,1.434 -20.984,3.656 0.5,-5.989 1.344,-11.735 2.162,-17.316 0.636,-4.346 1.292,-8.842 1.759,-13.28 0.517,-4.928 1.31,-9.963 2.075,-14.834 1.362,-8.648 2.768,-17.587 2.8,-26.77 9.622,-4.334 20.408,-9.441 29.043,-15.507 2.649,-1.864 5.39,-3.966 8.33,-6.392 6.581,9.975 7.095,24.458 7.088,28.85 l -0.012,1.235 c -0.167,9.255 -0.5,20.013 -2.366,30.537 a 27.179,27.179 0 0 0 -0.41,4.756 34.722,34.722 0 0 0 0.808,7.177 3.4,3.4 0 0 0 -0.313,0.467 84.243,84.243 0 0 0 -8.548,24.399 z"
     fill="#f4b087" />
  <path
     id="chest"
     d="m 258.211,424.216 c -4.684,0 -9.493,-0.46 -14.143,-0.9 -1.735,-0.167 -3.452,-0.333 -5.139,-0.47 a 29.681,29.681 0 0 1 -0.875,-6.752 20.56,20.56 0 0 1 0.311,-3.631 c 1.948,-10.979 2.3,-22.043 2.468,-31.548 l 0.01,-1.347 c -0.007,-6.349 -0.89,-21.847 -8.579,-33.042 1.581,-1.436 3.072,-3 4.515,-4.513 a 66.083,66.083 0 0 1 4.95,-4.853 3.135,3.135 0 0 0 0.736,-0.591 l 0.194,-0.214 a 2.867,2.867 0 0 0 0.636,-0.7 c 23.74,-25.882 43.693,-58.094 57.789,-93.273 a 69.94,69.94 0 0 0 18.42,4.19 v 155.977 c -14.652,0.606 -28.072,5.656 -37.965,14.322 -5.8,5.075 -12.982,7.341 -23.3,7.346 z"
     fill="#f4b087" />
  <path
     id="stomach"
     d="m 261.325,598.266 a 21.208,21.208 0 0 1 -6.243,-0.937 71.521,71.521 0 0 0 1.846,-15.813 c 0.012,-17.189 -6.841,-32.746 -19.841,-45.077 2.169,-5.775 4.645,-12.463 6.976,-19.247 0.738,-2.169 1.583,-4.309 2.478,-6.576 2.609,-6.6 5.3,-13.422 5.318,-21.111 a 31.107,31.107 0 0 0 -0.37,-4.8 c -0.934,-5.959 -2.035,-11.968 -3.1,-17.778 -1.411,-7.7 -2.87,-15.669 -3.939,-23.5 a 73.281,73.281 0 0 0 -3.193,-12.473 l -0.462,-1.451 2.589,0.244 c 4.809,0.46 9.781,0.937 14.849,0.937 11.856,0 20.6,-2.843 27.565,-8.949 8.715,-7.647 20.621,-12.122 33.7,-12.714 v 151.18 c -9.943,1.081 -19.262,7.465 -26.427,18.156 -4.023,6.016 -7.768,10.04 -11.449,12.309 -7.366,4.563 -13.631,7.6 -20.273,7.6 z"
     fill="#f4b087" />
  <path
     id="groin"
     d="m 319.5,657.481 c -5.4,-0.636 -9.128,-2.269 -11.919,-5.184 -1.417,-1.479 -2.845,-2.927 -4.272,-4.374 a 137.243,137.243 0 0 1 -12.331,-13.671 c -8.551,-11.342 -20.723,-20.455 -38.251,-28.621 0.234,-0.693 0.46,-1.382 0.673,-2.063 a 27.938,27.938 0 0 0 7.908,1.156 c 9.088,-0.01 17,-4.426 23.708,-8.564 5.887,-3.648 10.266,-9.508 13.422,-14.2 6.019,-8.954 13.263,-14.2 21.061,-15.288 z"
     fill="#f4b087" />
  <path
     id="waist"
     d="m 212.336,657.784 c 0.1,-4.6 0.112,-9.185 0.119,-13.758 0.035,-15.708 0.065,-30.544 3.68,-45.532 4.468,-18.549 11.34,-36.683 17.987,-54.22 l 0.457,-1.205 c 10.534,10.847 15.877,23.77 15.887,38.447 0,9.814 -2.413,20.04 -7.174,30.393 -8.216,17.873 -19.352,34.791 -30.984,47.177 0.008,-0.435 0.018,-0.868 0.028,-1.302 z"
     fill="#f4b087" />
  <path
     id="fingers"
     d="m 270.661,1199.086 a 3.125,3.125 0 0 1 -1.548,-0.343 4.136,4.136 0 0 1 -1.456,-1.494 3.053,3.053 0 0 1 -0.569,-1.264 4.987,4.987 0 0 1 1.116,-1 c 0.285,-0.213 0.593,-0.425 0.912,-0.648 0.559,-0.388 1.153,-0.8 1.737,-1.263 a 8.149,8.149 0 0 0 2.612,-4.933 c 0.12,-0.569 0.214,-1.106 0.3,-1.628 l 0.03,-0.168 c 1.012,0.121 2.038,0.246 3.066,0.367 -0.147,0.11 -0.3,0.227 -0.447,0.341 a 10.38,10.38 0 0 0 -2.972,3.171 11.073,11.073 0 0 0 -1.511,5.335 7.614,7.614 0 0 0 0.691,3.251 8.662,8.662 0 0 1 -1.949,0.274 z m -14.075,-2.809 a 1.227,1.227 0 0 1 -0.179,-0.521 0.866,0.866 0 0 1 0.157,-0.423 8.8,8.8 0 0 1 1.655,-1.834 l 0.731,-0.658 c 0.71,-0.634 1.441,-1.29 2.093,-2 a 16.083,16.083 0 0 0 1.849,-2.6 c 0.186,-0.3 0.36,-0.594 0.542,-0.859 a 3.159,3.159 0 0 0 0.526,-1.662 c 0.032,-0.209 0.07,-0.415 0.107,-0.622 0.952,0.137 2.077,0.289 3.317,0.453 -0.079,0.432 -0.154,0.85 -0.236,1.243 a 5.019,5.019 0 0 1 -0.391,1.284 c -0.452,0.346 -0.85,0.622 -1.257,0.9 -0.7,0.488 -1.418,0.989 -2.083,1.556 a 8.743,8.743 0 0 0 -1.861,2.129 6.32,6.32 0 0 0 -0.93,3.316 7.657,7.657 0 0 0 0.649,2.982 c -0.072,0 -0.144,0.01 -0.213,0.01 a 4.779,4.779 0 0 1 -4.476,-2.69 z m 22.452,0.54 a 1.429,1.429 0 0 1 -0.646,-1.28 4.953,4.953 0 0 1 0.708,-2.19 7.786,7.786 0 0 1 1.607,-1.447 l 0.482,-0.371 a 10.785,10.785 0 0 0 2.057,-2.065 7.381,7.381 0 0 0 1,-1.9 l 3.429,0.388 c -0.216,0.157 -0.442,0.316 -0.67,0.48 a 33.539,33.539 0 0 0 -2.885,2.207 12.038,12.038 0 0 0 -2.731,3.362 10.008,10.008 0 0 0 -1.091,3.432 4.108,4.108 0 0 1 -1.259,-0.616 z"
     fill="#f4b087" />
  <path
     id="toe"
     d="m 299.421,1201.385 c -0.8,0 -1.578,-0.047 -2.348,-0.087 -0.808,-0.047 -1.6,-0.089 -2.341,-0.089 a 12.873,12.873 0 0 1 -5.206,-0.862 6.967,6.967 0 0 1 -2.786,-2.2 3.582,3.582 0 0 1 0.683,-1.623 15.131,15.131 0 0 1 3.362,-2.848 l 0.88,-0.629 a 13.287,13.287 0 0 0 4.983,-5.9 9.558,9.558 0 0 1 1.317,-1.439 3.771,3.771 0 0 1 2.169,-1.1 1.913,1.913 0 0 1 1,0.311 c 1.156,3.82 2.237,7.57 2.234,11.141 a 16.493,16.493 0 0 1 -0.326,3.325 l -0.01,0.052 a 3.1,3.1 0 0 0 -0.7,1.243 c -0.077,0.236 -0.077,0.236 -0.44,0.4 a 6.866,6.866 0 0 1 -2.408,0.3 z"
     fill="#f4b087" />
  <path
     id="foot"
     d="m 288.952,1181.596 c -4.17,-0.467 -10.475,-1.185 -15.952,-1.851 -2.729,-0.336 -5.251,-0.654 -7.192,-0.922 l -0.261,-0.037 c 0.283,-1.22 0.552,-2.522 0.743,-3.879 a 32.419,32.419 0 0 0 0.286,-4.414 c 0,-2.06 -0.161,-4 -0.318,-5.88 -0.149,-1.832 -0.293,-3.566 -0.291,-5.333 a 41.867,41.867 0 0 1 2.985,-15.723 15.568,15.568 0 0 0 9.908,3.054 31.374,31.374 0 0 0 3.981,-0.266 c 5.524,-0.706 11.772,-1.707 17.567,-4.635 0.119,1.508 0.179,2.947 0.179,4.351 a 49.4,49.4 0 0 1 -1.65,12.855 32.892,32.892 0 0 0 -1.081,8.452 46.065,46.065 0 0 0 1.419,10.843 10.35,10.35 0 0 0 -5.847,2.9 q -0.458,0.424 -0.887,0.892 c -0.764,-0.091 -2.024,-0.231 -3.589,-0.407 z"
     fill="#f4b087" />
  <path
     id="ankle"
     d="m 278.92,1140.15 c -2.858,-0.01 -4.8,-0.606 -6.3,-1.943 -1.541,-1.379 -2.7,-3.708 -3.529,-7.12 -1.362,-5.584 -2.768,-11.156 -4.175,-16.727 -3.017,-11.956 -6.131,-24.294 -8.745,-36.521 l 0.112,-0.067 a 36.854,36.854 0 0 1 20.288,-5.805 64.3,64.3 0 0 1 18.2,3.024 c -0.3,7.083 -0.44,13.556 -0.44,19.717 0,6.6 0.139,13.241 0.417,19.732 a 20.885,20.885 0 0 0 0.982,6.116 102.163,102.163 0 0 1 3.785,14.287 c -5.3,3.32 -11.536,4.341 -17.49,5.092 a 24.7,24.7 0 0 1 -3.105,0.215 z"
     fill="#f4b087" />
  <path
     id="calf"
     d="m 254.786,1071.138 q -0.5,-2.49 -0.959,-4.985 c -1.884,-10.172 -4.143,-20.4 -6.325,-30.286 -3.3,-14.975 -6.725,-30.46 -8.872,-45.9 a 129.337,129.337 0 0 1 -1.208,-18.022 c 0,-9.831 0.949,-20.236 3.081,-33.735 0.492,-3.134 1.019,-6.267 1.543,-9.4 q 0.477,-2.852 0.952,-5.713 c 10.669,9.038 22.289,13.613 34.588,13.613 a 57.91,57.91 0 0 0 18.519,-3.221 c -0.037,1.131 -0.06,2.261 -0.06,3.392 a 125.816,125.816 0 0 0 0.838,14.573 395.992,395.992 0 0 1 2.624,45.669 442.109,442.109 0 0 1 -2.428,45.6 c -0.862,8.308 -1.536,16.916 -2,25.636 a 68.778,68.778 0 0 0 -18.5,-2.848 42.989,42.989 0 0 0 -21.793,5.627 z"
     fill="#f4b087" />
  <path
     id="knee"
     d="m 277.614,930.246 c -11.958,-0.007 -22.833,-4.771 -33.243,-14.57 -0.062,-0.055 -0.124,-0.112 -0.189,-0.164 a 180.57,180.57 0 0 0 2.227,-26.051 l -0.007,-1.421 a 231.482,231.482 0 0 0 -2.682,-31.194 65.6,65.6 0 0 1 22.669,-3.994 c 12.368,0 25.239,3.258 40.515,10.254 -1.968,15.728 -4.436,30.139 -7.532,43.984 a 138.332,138.332 0 0 0 -2.89,19.4 52.863,52.863 0 0 1 -18.867,3.752 z"
     fill="#f4b087" />
  <path
     id="thigh"
     d="m 307.7,856.378 c -15.338,-6.8 -28.512,-9.983 -41.312,-9.985 a 72.826,72.826 0 0 0 -23.688,3.966 c -1.829,-10.895 -4.153,-21.8 -6.4,-32.368 -1.5,-7.025 -3.044,-14.289 -4.421,-21.434 -1.757,-9.11 -3.618,-18.206 -5.48,-27.291 -3.429,-16.745 -6.973,-34.061 -9.757,-51.163 a 333.516,333.516 0 0 1 -4.351,-49.814 c 13.817,-13.2 27.224,-32.709 36.874,-53.678 q 0.67,-1.453 1.272,-2.92 c 16.3,7.649 27.57,16.076 35.385,26.449 a 143.713,143.713 0 0 0 12.873,14.3 c 1.419,1.439 2.833,2.878 4.227,4.332 5.025,5.249 11.543,6.727 16.583,7.222 v 13.059 a 3.191,3.191 0 0 0 -0.969,1.7 c -4.739,23.017 -7,48.5 -7.1,80.182 l -0.027,9.5 c -0.052,25.308 -0.109,51.479 -2.547,76.944 q -0.532,5.5 -1.162,10.999 z"
     fill="#f4b087" />
  <path
     id="neck"
     d="m 323.251,240.282 a 3.225,3.225 0 0 0 -0.519,-0.042 2.924,2.924 0 0 0 -0.512,0.042 2.864,2.864 0 0 0 -0.38,-0.04 c -10.092,-0.413 -21.693,-4.18 -31.307,-10.129 a 26.54,26.54 0 0 0 0.485,-5.231 v -0.581 c 0,-3.191 -0.1,-6.516 -0.209,-9.9 -0.107,-3.477 -0.216,-7.013 -0.216,-10.514 a 96.931,96.931 0 0 1 0.589,-11.389 46.543,46.543 0 0 0 10.316,2.778 121.938,121.938 0 0 0 19.9,1.638 134.562,134.562 0 0 0 27.817,-2.986 c 1.1,-0.229 2.229,-0.477 3.362,-0.793 0.007,1.613 0.017,3.258 0.027,4.923 0.017,3.459 0.037,7.005 0.037,10.524 0,5.7 -0.055,10.191 -0.174,14.125 -0.01,0.4 -0.017,0.79 -0.017,1.18 a 27.4,27.4 0 0 0 1.1,8.084 c -1.344,0.524 -2.679,1.061 -4.011,1.6 -8.554,3.429 -16.635,6.673 -25.477,6.673 h -0.276 a 3.42,3.42 0 0 0 -0.535,0.038 z"
     fill="#f4b087" />
  <path
     id="groin"
     d="m 325.965,566.784 c 7.98,1.277 15.365,6.919 20.987,16.094 a 43.231,43.231 0 0 0 18.608,16.844 c 6.861,3.255 14.781,5 24.21,5.338 a 5.548,5.548 0 0 0 2.207,-0.492 c 0.132,0.417 0.263,0.837 0.4,1.255 -14.627,7.078 -30.94,16.757 -42.789,34.289 -3.8,5.629 -7.269,9.55 -10.917,12.344 a 24.342,24.342 0 0 1 -12.7,5.157 z"
     fill="#f4b087" />
  <path
     id="toe"
     d="m 349.235,1201.301 c -0.276,0 -0.542,-0.012 -0.793,-0.037 l -1.118,-0.082 a 22.184,22.184 0 0 1 -3.817,-0.482 4.29,4.29 0 0 1 -1.029,-0.38 c 0,-0.042 0.008,-0.092 0.01,-0.142 0.052,-1.136 0.062,-2.239 0.07,-3.315 0.025,-3.084 0.045,-5.771 1.128,-8.636 l 3.835,-0.117 c 1.586,1.782 3.258,3.352 4.876,4.871 a 57,57 0 0 1 5.261,5.383 13.569,13.569 0 0 1 -2.8,1.645 14.488,14.488 0 0 1 -5.6,1.292 z"
     fill="#f4b087" />
  <path
     id="fingers"
     d="m 371.288,1199.258 a 18.16,18.16 0 0 0 -2.259,-7.863 23.72,23.72 0 0 1 -1.6,-3.879 l 3.32,-0.1 a 9.266,9.266 0 0 0 2.7,5.335 27.753,27.753 0 0 0 2.564,2.282 c 0.482,0.392 0.958,0.78 1.4,1.183 0.562,0.515 0.7,0.835 0.7,0.92 v 0 a 1.252,1.252 0 0 1 -0.139,0.2 2.2,2.2 0 0 1 -0.786,0.559 21.6,21.6 0 0 1 -5.9,1.5 z m 13.024,-0.33 a 6.2,6.2 0 0 0 0.264,-1.8 7.753,7.753 0 0 0 -2.846,-5.713 c -0.569,-0.509 -1.145,-0.982 -1.7,-1.434 a 21.527,21.527 0 0 1 -1.918,-1.69 4.06,4.06 0 0 1 -0.786,-1.067 l 4.525,-0.136 a 3.037,3.037 0 0 0 0.348,0.529 l 6.458,7.966 a 5.573,5.573 0 0 1 -1.246,2.691 2.81,2.81 0 0 1 -2.19,0.708 8.2,8.2 0 0 1 -0.909,-0.054 z m -27.666,-10.833 c -0.09,-0.082 -0.176,-0.164 -0.264,-0.246 l 4.51,-0.137 a 20.084,20.084 0 0 0 2.041,5.9 l 0.184,0.4 c 0.377,0.79 0.731,1.545 1.013,2.264 a 50.85,50.85 0 0 0 -7.484,-8.181 z m 38.718,6.509 a 3.245,3.245 0 0 0 -0.714,-1.894 l -4.757,-5.87 1.994,-0.057 0.308,0.281 a 3.152,3.152 0 0 0 1.673,1.523 8.337,8.337 0 0 1 3.1,2.284 c 0.562,0.6 1.13,1.292 1.727,2.03 -0.079,0.082 -0.84,0.869 -1.123,1.147 a 4.585,4.585 0 0 1 -0.934,0.766 0.581,0.581 0 0 1 -0.323,0.112 2.27,2.27 0 0 1 -0.951,-0.325 z"
     fill="#f4b087" />
  <path
     id="foot"
     d="m 346.089,1181.691 a 44.8,44.8 0 0 0 2.264,-13.251 26.175,26.175 0 0 0 -1.342,-8.546 38.361,38.361 0 0 1 -2.06,-12.687 51.549,51.549 0 0 1 0.273,-5.152 c 5.775,3.144 12.127,3.78 18.656,4.163 0.631,0.035 1.258,0.055 1.881,0.055 4.366,0 7.855,-0.959 10.659,-2.935 q 0.183,-0.128 0.365,-0.266 a 60.909,60.909 0 0 1 2.7,15.346 l 0.032,1.267 c 0.134,5.7 0.273,11.588 3.593,17.594 a 21.291,21.291 0 0 0 2.209,3.233 z"
     fill="#f4b087" />
  <path
     id="calf"
     d="m 390.67,1071.161 a 45.083,45.083 0 0 0 -22.073,-5.634 66.323,66.323 0 0 0 -18.79,2.98 c -0.46,-7.006 -1,-13.964 -1.536,-20.833 -0.964,-12.411 -1.961,-25.241 -2.443,-37.841 -0.149,-3.825 -0.224,-7.753 -0.224,-11.677 a 382.168,382.168 0 0 1 2.3,-40.5 193.519,193.519 0 0 0 1.138,-20.507 q 0,-1.857 -0.05,-3.708 a 51.569,51.569 0 0 0 17.806,3.315 c 11.956,0 23.608,-4.52 35.537,-13.787 0.43,2.582 0.877,5.159 1.32,7.736 0.435,2.515 0.87,5.027 1.29,7.54 a 201.055,201.055 0 0 1 3.129,33.375 131.668,131.668 0 0 1 -1.233,18.345 c -2.152,15.437 -5.569,30.917 -8.872,45.887 -2.184,9.9 -4.441,20.124 -6.327,30.3 q -0.469,2.507 -0.972,5.009 z"
     fill="#f4b087" />
  <path
     id="knee"
     d="m 366.8,930.295 a 45.657,45.657 0 0 1 -18.015,-3.884 c -0.04,-0.015 -0.082,-0.03 -0.119,-0.047 a 137.912,137.912 0 0 0 -2.594,-19.23 c -3.072,-14.558 -5.582,-29.362 -7.47,-44.043 14.128,-6.777 27.177,-10.072 39.9,-10.072 a 73.136,73.136 0 0 1 23.074,3.782 c -1.258,9.163 -1.772,18.4 -2.269,27.356 l -0.037,0.646 c -0.114,2.018 -0.169,4.1 -0.169,6.19 a 166.112,166.112 0 0 0 2.08,24.607 c -11.767,9.886 -23.012,14.694 -34.376,14.694 z"
     fill="#f4b087" />
  <path
     id="thigh"
     d="m 337.79,856.329 c -0.467,-3.961 -0.855,-7.57 -1.18,-10.952 -2.438,-25.492 -2.492,-51.688 -2.545,-77.023 l -0.025,-9.421 c -0.112,-31.687 -2.371,-57.165 -7.112,-80.182 a 3.188,3.188 0 0 0 -0.962,-1.7 v -12.95 a 30.829,30.829 0 0 0 16.634,-6.513 c 5.539,-4.252 9.692,-9.94 12.339,-13.852 10.825,-16.012 25.917,-25.1 39.59,-31.772 a 140.593,140.593 0 0 0 7.035,15.2 c 6.352,11.884 15.748,22.662 24.829,33.082 2.316,2.657 4.6,5.276 6.779,7.858 a 324.831,324.831 0 0 1 -4.349,50 c -3.014,18.521 -6.861,37.272 -10.584,55.4 -1.576,7.672 -3.154,15.348 -4.674,23.034 -0.882,4.451 -1.727,8.907 -2.57,13.36 -2.065,10.865 -4.2,22.1 -6.839,32.95 -0.581,2.381 -1.1,4.851 -1.573,7.49 a 79.342,79.342 0 0 0 -24.091,-3.78 c -13.102,0.002 -26.436,3.2 -40.702,9.771 z"
     fill="#f4b087" />
  <path
     id="waist"
     d="m 431.346,656.109 c -8.909,-10.229 -18.119,-20.808 -24.078,-31.986 -8.439,-15.793 -12.716,-30.318 -12.714,-43.174 0.017,-14.836 5.485,-27.411 16.7,-38.343 a 415.292,415.292 0 0 1 18.092,55.883 c 3.392,14.081 3.668,28.194 3.668,43.855 v 5.082 c 0,3.551 0.01,7.11 0.072,10.674 q -0.869,-0.999 -1.74,-1.991 z"
     fill="#f4b087" />
  <path
     id="stomach"
     d="m 389.417,598.581 c -8.169,-0.353 -15.263,-1.931 -21.086,-4.7 a 36.459,36.459 0 0 1 -15.865,-14.38 c -6.874,-11.25 -16.225,-18.039 -26.5,-19.3 V 409.057 c 13.8,0.751 26.459,5.875 34.973,14.217 a 29.77,29.77 0 0 0 21,8.407 q 0.966,0 1.936,-0.06 l 2.6,-0.157 c 5.442,-0.333 11.757,-0.721 17.331,-1.016 -1.061,5.977 -2.388,12.018 -3.675,17.883 L 399,453.495 a 145.963,145.963 0 0 0 -3.747,31.238 93.545,93.545 0 0 0 7.778,38.087 c 1.8,4.138 3.641,8.516 5.616,13.345 C 395,548.586 388.081,563.653 388.1,580.952 a 75.769,75.769 0 0 0 2.078,17 z"
     fill="#f4b087" />
  <path
     id="chest"
     d="m 381.939,425.219 a 23.385,23.385 0 0 1 -16.484,-6.566 c -9.709,-9.5 -24.014,-15.3 -39.491,-16.066 V 246.654 a 61.951,61.951 0 0 0 18.326,-4.118 c 13.7,34.168 31.717,64.344 53.584,89.717 a 164.347,164.347 0 0 0 14.409,14.682 c -6.106,8.084 -9.078,17.788 -9.071,29.61 a 101.409,101.409 0 0 0 1.655,17.15 84.239,84.239 0 0 1 1.18,14.349 114.349,114.349 0 0 1 -1.19,15.88 c -5.815,0.3 -12.607,0.716 -18.439,1.071 l -2.937,0.181 c -0.517,0.03 -1.031,0.047 -1.543,0.047 z"
     fill="#f4b087" />
  <path
     id="arm"
     d="m 421.395,447.415 a 116.215,116.215 0 0 0 -9.684,-26.3 115.866,115.866 0 0 0 0.8,-13.074 91.021,91.021 0 0 0 -1.27,-15.435 94.927,94.927 0 0 1 -1.568,-16.063 c 0.008,-10.179 2.468,-18.5 7.51,-25.365 a 161.225,161.225 0 0 0 38.509,24.076 c 0.027,1.228 0.065,2.458 0.122,3.688 0.457,10.169 2.137,20.211 3.762,29.923 1.2,7.157 2.435,14.555 3.146,21.832 0.075,0.775 0.1,1.576 0.1,2.4 0,0.824 -0.027,1.68 -0.05,2.56 -0.03,0.957 -0.06,1.946 -0.06,2.965 a 31.53,31.53 0 0 0 0.6,6.538 c -8,-2.329 -14.931,-3.817 -21.727,-3.822 a 34.351,34.351 0 0 0 -20.19,6.077 z"
     fill="#f4b087" />
  <path
     id="elbow"
     d="m 450.31,489.978 c -8.169,0 -16.794,-2.194 -23.626,-4.24 a 199.127,199.127 0 0 1 -3.087,-24.478 c -0.129,-1.968 -0.4,-4.2 -0.82,-6.8 a 27.95,27.95 0 0 1 18.81,-6.663 c 7.681,0 16.143,2.353 24.222,4.856 a 15.494,15.494 0 0 1 0.363,3.7 c 0,0.507 -0.04,2.634 -0.04,3.193 a 30.108,30.108 0 0 0 0.154,3.206 3.216,3.216 0 0 0 0.137,1.951 l 0.345,0.87 a 19.014,19.014 0 0 0 0.659,2.152 2.949,2.949 0 0 0 0.579,0.957 c 1.849,4.642 3.661,9.247 5.4,13.82 a 37.371,37.371 0 0 1 -23.087,7.473 z"
     fill="#f4b087" />
  <path
     id="forearm"
     d="m 469.568,600.239 c -1.091,-2.4 -2.2,-5.271 -3.539,-9.125 -0.455,-1.3 -0.9,-2.619 -1.344,-3.931 -1.4,-4.125 -2.843,-8.39 -4.441,-12.04 -1.265,-2.878 -2.44,-5.741 -3.611,-8.6 -1.986,-4.838 -4.038,-9.843 -6.5,-14.836 -10.957,-22.207 -17.8,-40.512 -21.963,-58.817 6.481,1.807 14.329,3.546 22.155,3.549 a 43.846,43.846 0 0 0 25.425,-7.694 486.2,486.2 0 0 1 17.408,56.086 l 1.551,6.431 c 3.067,12.726 6.28,26.049 9.558,39.367 -9.4,0.485 -20.348,1.3 -28.961,5.291 a 17.421,17.421 0 0 0 -5.738,4.319 z"
     fill="#f4b087" />
  <path
     id="wrist"
     d="m 498.756,647.101 c -2.672,0 -5.979,-1.066 -11.409,-3.673 l -0.03,-0.015 c -0.159,-0.306 -0.326,-0.579 -0.475,-0.823 l -0.273,-0.425 a 10.782,10.782 0 0 1 -0.691,-1.131 q -6.1,-15.365 -12.135,-30.7 l -1.161,-2.937 a 3.551,3.551 0 0 0 0.05,-0.46 12.123,12.123 0 0 1 5.4,-5.161 c 7.741,-3.618 18.661,-4.319 27.818,-4.764 3.688,14.891 6.936,27.6 9.9,38.723 l -0.06,0.057 c -4.578,4.585 -7.612,7.254 -10.144,8.931 a 11.906,11.906 0 0 1 -6.754,2.378 z"
     fill="#f4b087" />
  <path
     id="fingers"
     d="m 511.257,744.462 -11.009,-36.036 a 10.065,10.065 0 0 1 1.566,-2.706 2.076,2.076 0 0 1 0.209,-0.2 3.3,3.3 0 0 1 0.517,0.426 23.3,23.3 0 0 1 3.976,6.642 121.985,121.985 0 0 1 5.293,15.318 c 0.669,2.363 1.2,4.424 1.566,5.892 0.2,0.786 0.343,1.392 0.437,1.785 -0.211,1.774 -0.6,4.508 -1.106,7.244 -0.181,1.006 -0.375,1.97 -0.574,2.857 a 12.979,12.979 0 0 1 -0.875,-1.222 z m 12.235,-1.854 a 12.788,12.788 0 0 1 -1.951,-3.74 c -0.124,-0.385 -0.233,-0.786 -0.356,-1.22 -0.248,-0.895 -0.532,-1.916 -1,-3.179 -0.311,-1.346 -2.115,-8.978 -4.755,-16.709 -0.922,-2.709 -1.9,-5.239 -2.907,-7.528 a 39.846,39.846 0 0 1 -0.572,-6.118 c -0.007,-2.828 0.567,-3.79 0.632,-3.889 a 1.723,1.723 0 0 1 0.336,-0.03 5.025,5.025 0 0 1 2.237,0.73 27.65,27.65 0 0 1 4.99,3.614 c 0.666,0.587 1.23,1.119 1.642,1.518 a 234.863,234.863 0 0 1 1.924,33.475 q 0,1.693 -0.01,3.389 c -0.07,-0.1 -0.142,-0.209 -0.211,-0.313 z m 12.375,-6.484 c -1.634,-1.633 -3.188,-3.745 -5.89,-9.23 l -0.02,-0.04 a 190.5,190.5 0 0 0 -1.918,-22.73 v -0.4 a 7.857,7.857 0 0 1 0.415,-2.664 1.492,1.492 0 0 1 0.3,-0.517 0.53,0.53 0 0 1 0.08,0 7.015,7.015 0 0 1 3.392,1.354 c 1.031,8.626 2.4,17.19 3.725,25.483 q 0.817,5.118 1.615,10.264 c -0.627,-0.515 -1.182,-1 -1.7,-1.52 z M 490.98,717.807 c -0.124,-2.639 -0.141,-5.27 -0.141,-7.718 v -0.706 a 7.6,7.6 0 0 1 0.683,-2.118 7.021,7.021 0 0 1 1.354,1.014 c 0.343,0.318 0.638,0.626 0.872,0.887 a 2.81,2.81 0 0 0 0.094,0.435 l 1.329,4.343 c -1.284,3.385 -1.427,7.08 -1.561,10.664 -0.04,0.989 -0.076,1.976 -0.139,2.952 a 31.33,31.33 0 0 1 -0.569,4.739 92.566,92.566 0 0 1 -1.922,-14.492 z"
     fill="#f4b087" />
  <path
     id="Palm-2"
     d="m 496.1,702.56 a 8.337,8.337 0 0 0 -4.816,-1.871 c 0,0 -0.333,0.007 -0.492,0.02 a 68.587,68.587 0 0 0 -2.13,-16.648 66.643,66.643 0 0 1 -2.194,-17.888 c 0,-5.152 0.415,-10.333 0.932,-15.606 4.155,1.831 7.8,2.99 11.387,3 a 18.1,18.1 0 0 0 10.328,-3.454 71,71 0 0 0 10.256,-8.867 q 0.735,0.552 1.494,1.108 c 0.88,0.646 1.767,1.3 2.622,1.968 a 16.648,16.648 0 0 1 4.113,4.17 45.471,45.471 0 0 1 2.127,4.232 46.615,46.615 0 0 0 3.377,6.384 l 0.84,1.235 a 20.749,20.749 0 0 0 -2.913,7.316 30.6,30.6 0 0 0 -0.626,5.311 v 1.021 c 0,6.446 0.333,13.017 1.039,20.457 a 9.258,9.258 0 0 0 -2.508,-0.383 v 0 a 6.65,6.65 0 0 0 -4.294,1.494 7.4,7.4 0 0 0 -1.993,2.654 l -0.045,-0.035 a 29.881,29.881 0 0 0 -4.411,-2.955 11.693,11.693 0 0 0 -5.4,-1.576 v 0 a 6.675,6.675 0 0 0 -3.124,0.736 7.1,7.1 0 0 0 -3.3,3.911 12.218,12.218 0 0 0 -0.554,1.986 6.284,6.284 0 0 0 -8.79,1.1 10.864,10.864 0 0 0 -0.925,1.18 z"
     fill="#f4b087" />
  <path
     id="thumb"
     d="m 558.1,687.369 c -3.474,-0.271 -6.613,-1.745 -10.281,-4.779 a 94.668,94.668 0 0 1 -7.508,-7.321 c -1.091,-1.141 -2.207,-2.306 -3.362,-3.479 a 24.639,24.639 0 0 1 0.614,-3.7 16.686,16.686 0 0 1 0.517,-1.712 c 1.429,2.053 3.012,4.26 4.7,6.454 a 65.517,65.517 0 0 0 13.193,13.211 19.522,19.522 0 0 0 2.127,1.326 z"
     fill="#f4b087" />
  <path
     id="mouth"
     d="m 303.717,183.465 c -12.557,-9.154 -18.557,-22.2 -22.288,-36.765 -0.56,-2.189 0.461,-9.672 -6.191,-4.038 -1.183,1 -2.761,-0.165 -3.627,-1.445 -4.1,-6.05 -7.357,-12.441 -7.115,-20 0.136,-4.228 1.319,-7.382 6.59,-4.8 3.107,1.519 5.57,0.188 6.2,-2.737 2.941,-13.609 12.433,-23.7 18.691,-35.51 2.557,-4.832 5.192,-9.588 5.685,-16.713 13.222,15.185 30.212,21.4 46.531,28.8 9.43,4.28 15.581,11.748 19.5,21.242 1.223,2.968 2.012,6.684 7.076,4.24 3.38,-1.63 4.909,1.437 5.19,4.127 0.885,8.424 -2.877,15.364 -7.749,21.817 -0.759,1 -2.216,1.8 -3.143,0.964 -5.491,-4.985 -5.284,0.257 -6.026,3.341 -2.909,12.088 -7.737,23.2 -16.149,32.536 -9.206,14.692 -35.492,15.41 -43.175,4.941 z"
     fill="#f5bf9b" />
  <path
     id="forhead"
     style="fill:#f5bf9b"
     d="m 336.76401,87.666 a 14.5,5 0 0 1 -14.5,5 14.5,5 0 0 1 -14.5,-5 14.5,5 0 0 1 14.5,-5 14.5,5 0 0 1 14.5,5 z" />
  <path
     id="ear"
     style="fill:#f5bf9b"
     d="m 373.25129,118.35665 a 4.96,10.423 15.009 0 1 2.09153,11.35192 4.96,10.423 15.009 0 1 -7.49004,8.78292 4.96,10.423 15.009 0 1 -2.09154,-11.35191 4.96,10.423 15.009 0 1 7.49005,-8.78293 z" />
  <path
     id="ear"
     style="fill:#f5bf9b"
     d="m 277.27183,128.21744 a 10.423,4.96 74.991 0 1 -2.09154,11.35191 10.423,4.96 74.991 0 1 -7.49004,-8.78292 10.423,4.96 74.991 0 1 2.09154,-11.35192 10.423,4.96 74.991 0 1 7.49004,8.78293 z" />
  <path
     id="nose"
     d="m 333.555,142.218 c 2.776,5.717 0.473,8.306 -3.452,8.811 a 75.784,75.784 0 0 1 -15.67,0.175 c -3.888,-0.313 -5.853,-2.853 -4.463,-8.045 2.715,5.826 8.151,4.709 11.958,4.7 3.772,-0.018 9.803,2.002 11.627,-5.641 z"
     fill="#e18166" />
  <path
     id="lips"
     d="m 311.278,171.592 c -2.315,-0.607 -3.138,-2.221 -3.025,-4.47 -0.49,-0.49 -1.279,-0.376 -2.054,-0.264 -1.19,0.174 -2.346,0.347 -2.337,-1.651 0.007,-1.937 1.465,-1.873 2.8,-1.809 a 7.908,7.908 0 0 0 1.131,0 c 4.6,-0.478 8.156,-3.479 13.163,-4.043 3.67,-0.415 6.667,0.845 9.578,2.1 2.772,1.2 5.466,2.4 8.59,2.154 a 1.509,1.509 0 0 1 1.487,1.962 c -0.606,1.492 -1.808,1.463 -3.021,1.432 a 4.451,4.451 0 0 0 -2.023,0.252 v 0 q -0.631,0.765 -1.262,1.534 v 0 a 4.685,4.685 0 0 1 -3.163,4.212 c -3.441,2.3 -6.257,3.469 -9.061,3.469 -3.289,0.017 -6.558,-1.592 -10.803,-4.878 z"
     fill="#e4876a" />
  <path
     id="eye"
     d="m 345.346,122.396 v 0 a 67.587,67.587 0 0 1 -6.99,-0.6 c -8.24,-1.533 -8.232,-1.59 -3.121,-8.371 v -0.006 c 5.145,-6.584 11.131,-5.973 17.5,-2.041 l 9.114,1.982 c -4.495,2.325 -8.335,4.011 -11.252,7.016 v 0 0.01 a 6.753,6.753 0 0 1 -4.42,2.079 5.036,5.036 0 0 1 -0.831,-0.069 z"
     fill="#201c1b" />
  <path
     id="eye"
     d="m 297.36,122.125 v 0 l -2.079,-0.994 a 4.262,4.262 0 0 1 -4.477,-2.843 c -1.58,-2.524 -4.7,-2.734 -8.743,-4.581 l 10.261,-2.5 c 8.671,-4.63 15.084,-2.588 19.246,5.732 1.4,2.811 0.835,3.873 -2,4.309 v 0 a 17.561,17.561 0 0 1 -7.369,1.864 12.325,12.325 0 0 1 -4.839,-0.987 z m 12.2,-0.876 a 13.543,13.543 0 0 0 -2.673,-0.474 c 0.21,0.46 1.748,0.332 2.673,0.475 z"
     fill="#201c1b" />
  <path
     id="Eyebrow"
     d="m 359.441,102.641 c -8.462,-3.042 -15.246,-1.57 -21.918,1.568 -1.972,0.927 -4.842,2.51 -6.057,-0.834 -1.3,-3.567 1.511,-4.679 4.3,-4.958 7.086,-0.71 14.4,-5.33 21.149,0.979 a 35.349,35.349 0 0 1 2.526,3.245 z"
     fill="#653a1b" />
  <path
     id="Eyebrow-2"
     d="m 285.872,102.101 c 4.9,-5.956 20.643,-7.271 25.85,-2.579 a 3.491,3.491 0 0 1 0.757,4.546 c -1.083,1.886 -2.983,1.156 -4.46,0.56 -7.086,-2.857 -14.119,-5.89 -22.147,-2.527 z"
     fill="#653a1b" />
  <path
     id="cheek"
     style="fill:#f5bf9b"
     d="m 352.76401,151.166 a 5,12.5 0 0 1 -5,12.5 5,12.5 0 0 1 -5,-12.5 5,12.5 0 0 1 5,-12.5 5,12.5 0 0 1 5,12.5 z" />
  <path
     id="cheek"
     style="fill:#f5bf9b"
     d="m 302.76401,151.166 a 5.5,12.5 0 0 1 -5.5,12.5 5.5,12.5 0 0 1 -5.5,-12.5 5.5,12.5 0 0 1 5.5,-12.5 5.5,12.5 0 0 1 5.5,12.5 z" />
  <path
     id="chin"
     style="fill:#f5bf9b"
     d="m 332.76401,183.166 a 11,2.5 0 0 1 -11,2.5 11,2.5 0 0 1 -11,-2.5 11,2.5 0 0 1 11,-2.5 11,2.5 0 0 1 11,2.5 z" />
  <path
     id="breast"
     style="fill:#f6c09f"
     d="m 392,380.50101 a 19,25.5 0 0 1 -19,25.5 19,25.5 0 0 1 -19,-25.5 19,25.5 0 0 1 19,-25.5 19,25.5 0 0 1 19,25.5 z" />
  <path
     id="breast"
     style="fill:#f6c09f"
     d="m 295,380.50101 a 19,25.5 0 0 1 -19,25.5 19,25.5 0 0 1 -19,-25.5 19,25.5 0 0 1 19,-25.5 19,25.5 0 0 1 19,25.5 z" />
  <path
     id="nipple"
     d="m 272.678,379.401 a 5.384,5.384 0 0 1 7.212,0 4.3,4.3 0 0 1 0.341,6.072 4.225,4.225 0 0 1 -0.341,0.341 5.384,5.384 0 0 1 -7.212,0 4.3,4.3 0 0 1 -0.341,-6.072 4.225,4.225 0 0 1 0.341,-0.341 z"
     fill="#ffffff" />
  <path
     id="nipple"
     d="m 369.678,379.401 a 5.384,5.384 0 0 1 7.212,0 4.3,4.3 0 0 1 0.341,6.072 4.225,4.225 0 0 1 -0.341,0.341 5.384,5.384 0 0 1 -7.212,0 4.3,4.3 0 0 1 -0.341,-6.072 4.225,4.225 0 0 1 0.341,-0.341 z"
     fill="#ffffff" />
  <path
     id="Ellipse_30"
     style="fill:#f4b087"
     d="m 330,658.50098 a 7.5,22.5 0 0 1 -7.5,22.5 7.5,22.5 0 0 1 -7.5,-22.5 7.5,22.5 0 0 1 7.5,-22.5 7.5,22.5 0 0 1 7.5,22.5 z" />
  <path
     id="vagina"
     style="fill:none;stroke:#ffffff;stroke-width:5"
     d="m 332.5,658.50098 a 10,25 0 0 1 -10,25 10,25 0 0 1 -10,-25 10,25 0 0 1 10,-25 10,25 0 0 1 10,25 z" />
  <path
     id="ankle"
     data-name="Ankle"
     d="m 365.762,1139.812 c -0.495,0 -1,-0.015 -1.511,-0.045 -6.643,-0.375 -13.022,-1.026 -18.032,-4.642 0.4,-2.256 0.87,-4.52 1.332,-6.8 0.42,-2.045 0.84,-4.1 1.223,-6.18 a 20.718,20.718 0 0 1 0.755,-2.7 21.775,21.775 0 0 0 1.31,-6.044 c 0.142,-3.877 0.214,-7.875 0.214,-11.9 0,-8.792 -0.333,-17.614 -0.835,-26.389 a 2.713,2.713 0 0 0 0.331,-0.084 61.3,61.3 0 0 1 18.02,-3.042 38.35,38.35 0 0 1 20.651,5.808 l 0.04,0.025 c -1.846,8.422 -3.964,16.926 -6.014,25.172 -2.3,9.22 -4.669,18.753 -6.682,28.236 -0.7,3.245 -1.961,5.482 -3.867,6.832 a 11.761,11.761 0 0 1 -6.935,1.753 z"
     fill="#f4b087" />
</svg>
