<?xml version="1.0" encoding="UTF-8" standalone="no"?>
<svg
   xmlns:dc="http://purl.org/dc/elements/1.1/"
   xmlns:cc="http://creativecommons.org/ns#"
   xmlns:rdf="http://www.w3.org/1999/02/22-rdf-syntax-ns#"
   xmlns:svg="http://www.w3.org/2000/svg"
   xmlns="http://www.w3.org/2000/svg"
   xmlns:sodipodi="http://sodipodi.sourceforge.net/DTD/sodipodi-0.dtd"
   xmlns:inkscape="http://www.inkscape.org/namespaces/inkscape"
   width="645"
   height="1226"
   viewBox="0 0 645 1226"
   version="1.1"
   id="svg53"
   sodipodi:docname="Female Back – 1.svg"
   inkscape:version="1.0.1 (c497b03c, 2020-09-10)">
  <metadata
     id="metadata57">
    <rdf:RDF>
      <cc:Work
         rdf:about="">
        <dc:format>image/svg+xml</dc:format>
        <dc:type
           rdf:resource="http://purl.org/dc/dcmitype/StillImage" />
      </cc:Work>
    </rdf:RDF>
  </metadata>
  <sodipodi:namedview
     pagecolor="#ffffff"
     bordercolor="#666666"
     borderopacity="1"
     objecttolerance="10"
     gridtolerance="10"
     guidetolerance="10"
     inkscape:pageopacity="0"
     inkscape:pageshadow="2"
     inkscape:window-width="1175"
     inkscape:window-height="695"
     id="namedview55"
     showgrid="false"
     inkscape:zoom="0.4502447"
     inkscape:cx="322.5"
     inkscape:cy="435.31884"
     inkscape:window-x="0"
     inkscape:window-y="23"
     inkscape:window-maximized="0"
     inkscape:current-layer="svg53" />
  <defs
     id="defs13">
    <clipPath
       id="clip-Female_Back_1">
      <rect
         width="645"
         height="1226"
         id="rect10" />
    </clipPath>
  </defs>
  <rect
     width="645"
     height="1226"
     fill="#ffffff"
     id="rect15"
     x="0"
     y="0" />
  <path
     id="neck"
     d="m 318.757,241.475 c -11.336,-0.631 -20.384,-4.588 -28.671,-8.711 a 30.253,30.253 0 0 0 1.268,-8.859 q 0,-1.35 -0.1,-2.78 c -0.344,-4.741 -0.7,-9.6 -0.7,-14.335 a 67.457,67.457 0 0 1 0.98,-12.062 35.621,35.621 0 0 0 4.168,1.223 108.108,108.108 0 0 0 23.044,2.743 z"
     fill="#f4b087" />
  <path
     id="back"
     d="m 318.783,347.787 c -26.913,-0.231 -54.54,-1.812 -82.2,-4.708 1.463,-1.388 2.851,-2.769 4.189,-4.171 a 2.985,2.985 0 0 0 0.624,-0.978 c 0.057,-0.054 1.939,-2.154 2.839,-3.15 1.96,-2.172 3.93,-4.354 5.829,-6.616 a 275.654,275.654 0 0 0 48.953,-84.768 64.721,64.721 0 0 0 19.748,4.215 z"
     fill="#f4b087" />
  <path
     id="shoulder"
     d="m 191.641,366.208 c 0.179,-3.442 0.269,-6.652 0.269,-9.734 0,-3.53 -0.108,-7.012 -0.323,-10.351 -0.1,-1.5 -0.139,-3 -0.139,-4.5 0,-8.525 1.4,-16.894 2.886,-25.756 0.4,-2.4 0.808,-4.811 1.183,-7.229 1.671,-10.782 5.483,-19.465 11.331,-25.806 6,-6.5 14.034,-10.681 24.566,-12.785 a 112.183,112.183 0 0 0 35.921,-14.229 c 5.462,-3.266 11.649,-6.963 16.312,-12 a 29.332,29.332 0 0 0 4,-5.429 c 2.012,0.992 3.895,1.878 5.693,2.677 a 269.594,269.594 0 0 1 -47.966,83.152 c -1.84,2.189 -3.768,4.324 -5.7,6.468 q -1.354,1.5 -2.7,3.009 a 2.987,2.987 0 0 0 -0.544,0.891 c -0.031,0.028 -0.061,0.059 -0.09,0.09 a 146.049,146.049 0 0 1 -21.293,17.99 140.2,140.2 0 0 1 -23.406,13.542 z"
     fill="#f4b087" />
  <path
     id="hand"
     d="m 133.662,742.704 a 8.518,8.518 0 0 0 -0.928,-0.568 9.14,9.14 0 0 0 -4.352,-1.063 15.045,15.045 0 0 0 -4.762,0.9 33.552,33.552 0 0 1 -1.772,-11.081 c -0.007,-5.377 1,-10.726 2.069,-16.385 0.737,-3.923 1.5,-7.981 1.9,-12.071 a 3.065,3.065 0 0 0 -2.747,-3.343 l -0.3,-0.017 a 3.054,3.054 0 0 0 -3.049,2.771 c -0.356,3.728 -1.049,7.434 -1.784,11.357 a 122.572,122.572 0 0 0 -2.045,13.848 c -0.059,0.035 -0.12,0.075 -0.179,0.118 a 16.731,16.731 0 0 0 -4.8,6 l -0.587,1.037 a 15.34,15.34 0 0 1 -1.487,2.205 8.126,8.126 0 0 1 -0.059,-0.943 20.923,20.923 0 0 1 1.338,-6.154 l 0.245,-0.752 a 33.165,33.165 0 0 0 1.746,-7.043 c 0.452,-4.531 1.133,-9.161 1.791,-13.638 1.206,-8.23 2.455,-16.741 2.458,-25.393 q 0,-1.336 -0.038,-2.677 l 0.007,-1.645 a 9.082,9.082 0 0 0 -0.745,-3.947 8.11,8.11 0 0 0 -3.824,-3.742 3.077,3.077 0 0 0 -1.39,-0.335 3.039,3.039 0 0 0 -2.146,0.881 c -1.008,0.994 -2,2.024 -2.985,3.049 a 70.52,70.52 0 0 1 -6.513,6.225 c -3.586,2.851 -6.777,4.126 -10.349,4.13 a 13.412,13.412 0 0 1 -1.656,-0.111 180.267,180.267 0 0 0 13.874,-17.325 c 1.751,-2.38 3.5,-4.755 5.283,-7.081 5.886,-7.686 12.615,-15.49 21.965,-20.862 a 17.672,17.672 0 0 0 4.87,5.933 23.323,23.323 0 0 0 26.449,2.707 4.678,4.678 0 0 1 0.749,-0.3 28.857,28.857 0 0 1 1.7,10.245 60.363,60.363 0 0 1 -1.944,14.055 c -2.75,11.534 -3.23,23.164 -3.7,34.408 -0.273,6.609 -0.556,13.44 -1.308,20.052 -0.078,0.7 -0.13,1.395 -0.179,2.076 a 24.739,24.739 0 0 1 -0.386,3.3 8.852,8.852 0 0 1 -0.309,1.091 c -0.125,-0.229 -0.231,-0.431 -0.316,-0.6 l -0.127,-0.276 a 9.529,9.529 0 0 1 -0.2,-2.147 c 0,-0.884 0.075,-1.8 0.153,-2.721 l 0.066,-0.733 c 0.1,-1.03 0.252,-2.592 0.252,-4.187 a 13.767,13.767 0 0 0 -0.8,-5.071 6.246,6.246 0 0 0 -1.824,-2.54 5.393,5.393 0 0 0 -3.391,-1.177 l -0.747,0.045 a 3.092,3.092 0 0 0 -2.151,1.183 3.022,3.022 0 0 0 -0.636,1.88 81.005,81.005 0 0 0 -4.081,11.312 c -0.386,1.263 -0.771,2.528 -1.176,3.779 a 44.88,44.88 0 0 1 -5.143,11.341 z"
     fill="#f4b087" />
  <path
     id="wrist"
     d="m 147.869,644.466 a 18.067,18.067 0 0 1 -11.324,-4.265 11,11 0 0 1 -4.392,-9.178 25.96,25.96 0 0 1 1.706,-8.44 c 2.886,-8.167 5.542,-17.252 8.313,-28.452 2.776,0.514 5.577,0.853 8.294,1.185 3.223,0.391 6.27,0.761 9.222,1.39 6.708,1.43 11.131,3.8 14.8,7.924 a 2.8,2.8 0 0 0 0.25,0.252 c -4.394,10.125 -9.444,21.849 -14.357,33.687 a 17.429,17.429 0 0 0 -0.893,2.556 c -0.141,0.042 -0.283,0.08 -0.426,0.122 a 14.029,14.029 0 0 0 -2.75,1.011 18.09,18.09 0 0 1 -8.443,2.208 z"
     fill="#f4b087" />
  <path
     id="arm"
     d="m 177.382,598.808 a 32.857,32.857 0 0 0 -16.421,-8.1 c -3.287,-0.693 -6.63,-1.1 -9.866,-1.491 -2.6,-0.318 -5.071,-0.617 -7.483,-1.053 1.188,-5.026 2.328,-10.066 3.466,-15.1 l 0.1,-0.452 q 1.576,-6.973 3.108,-13.956 c 5.012,-22.655 10.193,-46.086 17.667,-68.428 0.379,-1.143 0.832,-2.333 1.407,-3.711 a 55.534,55.534 0 0 0 28.985,7.858 80.917,80.917 0 0 0 22.153,-3.369 2.926,2.926 0 0 1 0.214,1.131 10.158,10.158 0 0 1 -0.853,3.348 c -0.184,0.467 -0.382,0.928 -0.577,1.393 a 32.782,32.782 0 0 0 -1.188,3.084 c -6.986,22.856 -16.93,45.11 -26.543,66.632 q -3.506,7.846 -6.977,15.716 -3.556,8.115 -7.083,16.244 z"
     fill="#f4b087" />
  <path
     id="elbow"
     d="M 198.373,488.251 A 49.8,49.8 0 0 1 171.905,480.9 q 0.877,-1.824 1.781,-3.647 c 0.921,-1.876 1.847,-3.758 2.738,-5.667 2.691,-5.78 5.448,-12.735 5.667,-20.733 6.2,-2.125 13.433,-4.293 20.2,-4.293 7.863,0.019 14.189,2.825 19.917,8.834 0.057,0.057 0.113,0.113 0.172,0.165 -0.257,1.232 -0.492,2.436 -0.7,3.593 a 30.217,30.217 0 0 0 -0.417,5.247 c 0,2.213 0.177,4.4 0.346,6.513 0.165,2.09 0.325,4.064 0.323,6.008 a 20.586,20.586 0 0 1 -1.251,7.655 77.027,77.027 0 0 1 -22.316,3.676 z"
     fill="#f4b087" />
  <path
     id="forearm"
     d="m 223.986,448.619 a 31.885,31.885 0 0 0 -21.59,-8.183 c -6.965,0 -13.775,1.8 -20.184,3.914 0.1,-2.945 0.259,-5.4 0.511,-7.712 1,-9.267 2.451,-18.7 3.855,-27.815 1.8,-11.666 3.65,-23.713 4.623,-35.751 a 143.315,143.315 0 0 0 27.429,-15.437 c 3.212,-2.319 6.913,-5.052 10.716,-8.176 2.5,9.993 3.664,21.833 3.664,36.936 0,8.035 -0.309,15.959 -0.608,23.619 -0.122,3.169 -0.243,6.275 -0.339,9.3 -0.8,2.938 -1.725,6.178 -2.693,9.564 -1.786,6.251 -3.775,13.219 -5.384,19.741 z"
     fill="#f4b087" />
  <path
     id="back"
     data-name="back"
     d="m 311.06,485.343 c -16.159,0 -32.53,-1.621 -48.357,-3.188 -3.85,-0.379 -7.7,-0.763 -11.555,-1.122 a 48.653,48.653 0 0 0 -1.371,-8.424 c -1.468,-5.737 -2.526,-11.819 -3.647,-18.258 -1.9,-10.926 -3.867,-22.222 -8.023,-32.325 0.1,-3.81 0.257,-7.79 0.417,-11.885 0.3,-7.686 0.617,-15.634 0.617,-23.746 0,-15.033 -1.15,-26.972 -3.593,-37.271 28.037,2.95 56.02,4.559 83.244,4.788 l 0.007,131.365 -5.436,0.056 -2.29,0.009 z"
     fill="#f4b087" />
  <path
     id="hip"
     d="m 213.378,655.247 c -0.516,-7.073 -0.771,-13.617 -0.771,-19.891 a 179.107,179.107 0 0 1 4.083,-39.538 c 3.459,-15.443 9.093,-30.539 14.54,-45.136 q 1.827,-4.9 3.638,-9.809 a 62.463,62.463 0 0 1 5.853,8.087 c 0.844,1.334 1.666,2.681 2.479,4.008 1.626,2.66 3.174,5.193 4.738,7.408 a 3.09,3.09 0 0 0 0,1.694 61.368,61.368 0 0 1 2.406,17.05 c 0,9.745 -2.2,19.783 -6.715,30.685 -6.522,15.749 -16.691,31.02 -30.251,45.442 z"
     fill="#f4b087" />
  <path
     id="foot"
     d="m 295.834,1194.31 a 9.667,9.667 0 0 1 -3.506,-0.672 c -4.785,-1.859 -9.957,-3.579 -15.36,-3.581 a 22.6,22.6 0 0 0 -5.58,0.676 21.332,21.332 0 0 1 -5.24,0.655 c -5.021,0 -9.644,-1.741 -14.536,-3.584 -1.6,-0.6 -3.237,-1.221 -4.91,-1.784 a 8,8 0 0 1 0.745,-2.232 17.356,17.356 0 0 1 4.13,-4.724 l 0.627,-0.558 a 26.178,26.178 0 0 0 4.925,-5.273 c 4.3,-6.628 6.2,-13.539 7.5,-19.425 0.495,-2.255 0.928,-4.51 1.357,-6.753 0.676,-3.532 1.322,-6.9 2.189,-10.2 a 11.247,11.247 0 0 0 2.017,0.674 25.814,25.814 0 0 0 3.907,0.518 l 0.9,0.078 c 1.746,0.156 3.452,0.233 5.078,0.233 a 43.647,43.647 0 0 0 20.169,-4.738 20.354,20.354 0 0 1 -0.384,2.352 l -0.17,0.848 a 121.291,121.291 0 0 0 -1.951,20.756 80.018,80.018 0 0 0 5.033,28.645 5.989,5.989 0 0 1 0.405,2.106 5.414,5.414 0 0 1 -2.015,4.112 8.264,8.264 0 0 1 -5.33,1.871 z"
     fill="#f4b087" />
  <path
     id="ankel"
     d="m 280.074,1132.237 c -1.454,0 -2.976,-0.073 -4.517,-0.212 l -0.8,-0.066 a 14.445,14.445 0 0 1 -4.072,-0.676 2.865,2.865 0 0 1 -1.192,-0.86 4.893,4.893 0 0 1 -0.86,-2.106 c -2.846,-14.328 -5.982,-28.9 -9.017,-42.992 q -1.569,-7.3 -3.141,-14.644 a 35.059,35.059 0 0 1 18.984,-5 72.94,72.94 0 0 1 18.676,2.811 c -0.549,7.521 -0.808,13.782 -0.808,19.592 0,14.731 1.732,27.657 5.3,39.455 a 37,37 0 0 1 -18.551,4.694 z"
     fill="#f4b087" />
  <path
     id="calf"
     d="m 254.559,1064.707 c -2.479,-6.826 -3.874,-14.851 -5.226,-22.634 -0.827,-4.75 -1.6,-9.234 -2.618,-13.487 -4.288,-17.966 -9.213,-41.675 -9.211,-65.784 a 157.013,157.013 0 0 1 4.592,-38.633 c 0.389,-1.548 0.763,-3.183 1.136,-4.946 11.972,7.823 25.021,11.941 37.91,11.941 a 59.876,59.876 0 0 0 15.582,-2.095 c -0.078,2.427 -0.113,4.573 -0.113,6.619 0,6.329 0.271,12.644 0.808,18.765 1.023,11.63 1.541,23.895 1.541,36.446 0,15.636 -0.768,31.936 -2.349,49.837 -0.29,3.275 -0.6,6.557 -0.914,9.84 -0.37,3.9 -0.74,7.809 -1.074,11.715 a 77.407,77.407 0 0 0 -19.166,-2.733 41.96,41.96 0 0 0 -20.898,5.149 z"
     fill="#f4b087" />
  <path
     id="knee"
     d="m 281.143,925.04 c -12.446,0 -25.11,-4.267 -36.647,-12.347 a 163.62,163.62 0 0 0 2.245,-27.257 199.1,199.1 0 0 0 -3.025,-33.647 68.3,68.3 0 0 1 20.556,-3.1 c 12.907,0 26.828,3.421 41.406,10.167 -1.07,8.907 -2.309,17.05 -3.779,24.854 a 297.5,297.5 0 0 0 -4.908,38.934 54.218,54.218 0 0 1 -15.848,2.396 z"
     fill="#f4b087" />
  <path
     id="thigh"
     d="m 306.418,852.471 c -14.743,-6.576 -28.911,-9.908 -42.146,-9.91 a 74.534,74.534 0 0 0 -21.647,3.155 c -3.895,-20.81 -8.082,-41.868 -12.135,-62.257 -4.161,-20.935 -8.464,-42.582 -12.441,-63.908 a 269.525,269.525 0 0 1 -4.762,-47.681 c 0,-2.2 0.052,-4.425 0.153,-6.734 18.211,9.823 37.382,14.392 53.873,17.559 8.511,1.633 15.669,2.719 22.929,2.721 a 57.8,57.8 0 0 0 26.065,-5.959 c -0.156,1.06 -0.337,2.022 -0.488,2.835 -0.1,0.514 -0.184,0.971 -0.243,1.345 -4.63,29.316 -5.026,59.182 -5.405,88.067 -0.153,11.536 -0.311,23.468 -0.737,35.162 -0.643,17.695 -1.607,32.271 -3.016,45.605 z"
     fill="#f4b087" />
  <path
     id="buttocks"
     d="m 290.243,679.29 c -7.191,0 -14.715,-1.256 -21.774,-2.611 -15.7,-3.016 -33.968,-7.337 -51.3,-16.534 14.413,-15.181 25.216,-31.319 32.13,-47.994 4.833,-11.661 7.182,-22.464 7.182,-33.032 a 67.408,67.408 0 0 0 -2.121,-16.739 2.048,2.048 0 0 1 0.9,-0.2 8.2,8.2 0 0 1 2.545,0.65 l 0.978,0.389 a 26.979,26.979 0 0 0 2.955,1.056 223.378,223.378 0 0 0 57.052,7.922 l -0.231,18.021 c -0.061,-0.123 -0.82,-1.68 -0.82,-1.68 a 33.22,33.22 0 0 0 -4.1,-6.953 3.0640409,3.0640409 0 1 0 -4.731,3.895 28.859,28.859 0 0 1 3.386,5.858 l 0.589,1.218 a 23.7,23.7 0 0 0 5.551,7.816 l -0.122,9.887 q -0.283,22.62 -0.582,45.242 v 0.3 a 45.068,45.068 0 0 0 0.617,6.477 37.142,37.142 0 0 1 0.528,5.372 11.837,11.837 0 0 1 -0.568,3.81 52.521,52.521 0 0 1 -28.056,7.832 z"
     fill="#f4b087" />
  <path
     id="waist"
     d="m 318.93,566.073 a 217.278,217.278 0 0 1 -55.579,-7.7 21.009,21.009 0 0 1 -2.281,-0.829 l -1.063,-0.422 a 13.357,13.357 0 0 0 -4.774,-1.06 v 0 a 7.911,7.911 0 0 0 -2.559,0.426 c -1.329,-1.925 -2.726,-4.213 -4.189,-6.614 -0.839,-1.374 -1.7,-2.78 -2.578,-4.178 -2.436,-3.845 -5.349,-8.113 -8.758,-11.192 0.624,-1.755 1.209,-3.409 1.772,-5.068 1.209,-3.581 2.618,-7.224 3.982,-10.749 3.859,-9.969 7.842,-20.259 8.346,-31.484 q 5.461,0.512 10.907,1.06 c 15.945,1.579 32.431,3.212 48.913,3.212 l 2.349,-0.012 5.379,-0.054 v 24.856 q 0,21.457 -0.031,42.912 c 0,1.275 0.04,2.54 0.082,3.867 0.035,0.973 0.065,1.988 0.082,3.029 z"
     fill="#f4b087" />
  <path
     id="neck"
     data-name="Neck"
     d="m 324.879,198.589 a 132.178,132.178 0 0 0 26.31,-3.928 c 0.146,-0.038 0.292,-0.075 0.438,-0.115 v 16.227 q -0.173,2.937 -0.17,5.627 a 55.967,55.967 0 0 0 1.991,15.8 c -6.557,3.372 -17.679,8.259 -28.558,9.2 z"
     fill="#f4b087" />
  <path
     id="buttocks"
     data-name="Buttocks"
     d="m 351.962,678.585 c -8.751,0 -19.625,-3.367 -27.429,-6.736 a 18.564,18.564 0 0 0 0.46,-4.2 45.362,45.362 0 0 0 -0.617,-6.456 37.194,37.194 0 0 1 -0.528,-5.375 v -0.247 q 0.336,-24.631 0.631,-49.283 l 0.078,-6.4 a 10.846,10.846 0 0 0 4.036,-3.984 25.649,25.649 0 0 0 1.991,-4.467 c 0.231,-0.632 0.455,-1.246 0.7,-1.828 0.792,-1.866 1.5,-2.783 2.606,-3.379 a 3.0647186,3.0647186 0 1 0 -2.9,-5.4 10.837,10.837 0 0 0 -4.218,4.116 26.085,26.085 0 0 0 -1.958,4.418 c -0.045,0.115 -0.085,0.231 -0.13,0.346 l 0.226,-17.592 a 242.288,242.288 0 0 0 61.971,-9.628 85.342,85.342 0 0 0 -0.994,12.867 c 0,22.3 8.5,44.618 26.736,70.247 3.4,4.769 9.375,10.678 13.624,14.656 -18.928,9.147 -42.867,15.259 -71.222,18.174 A 29.956,29.956 0 0 1 352,678.58 Z"
     fill="#f4b087" />
  <path
     id="foot"
     data-name="Foot"
     d="m 347.879,1194.993 a 8.988,8.988 0 0 1 -6.5,-2.825 5.811,5.811 0 0 1 -1.279,-4.055 16.726,16.726 0 0 1 1.065,-5.431 c 2.655,-7.512 5.111,-15.634 5.113,-24.149 a 39.761,39.761 0 0 0 -2.406,-13.782 21.219,21.219 0 0 1 -1.263,-7.424 27.444,27.444 0 0 1 0.226,-3.384 c 6.2,2.026 13.171,3.961 20.066,3.968 a 27.852,27.852 0 0 0 11.079,-2.118 c 0,0.271 -0.007,0.54 -0.007,0.808 -0.009,13.6 3.664,32.712 21.216,46.54 l -0.014,-0.01 c -0.04,0 0,0.205 0.068,0.476 l 0.09,0.377 c 0.059,0.229 0.13,0.474 0.217,0.733 -7.728,4.934 -13,5.982 -18.44,5.994 a 55.365,55.365 0 0 1 -6.532,-0.443 42.364,42.364 0 0 0 -4.92,-0.328 c -4.6,0 -8.379,1.11 -13.548,3.959 a 8.684,8.684 0 0 1 -4.211,1.091 z"
     fill="#f4b087" />
  <path
     id="ankel"
     data-name="ankel"
     d="m 362.87,1131.787 c -6.195,0 -12.863,-1.916 -18.815,-3.888 0.3,-1.145 0.629,-2.248 0.971,-3.3 3.157,-9.612 4.693,-20.333 4.693,-32.764 0,-4.833 -0.214,-9.948 -0.674,-16.1 l -0.57,-7.519 a 51.41,51.41 0 0 1 16.091,-2.54 60.059,60.059 0 0 1 20.966,3.9 c -5.049,21.694 -8.478,39.476 -10.766,55.843 -0.146,1.049 -0.252,2.113 -0.351,3.176 a 19.747,19.747 0 0 1 -11.513,3.19 z"
     fill="#f4b087" />
  <path
     id="calf"
     data-name="Calf"
     d="m 386.947,1063.574 a 66.286,66.286 0 0 0 -22.384,-4.022 57.617,57.617 0 0 0 -16.564,2.413 c -1.92,-25.183 -3.841,-51.168 -3.841,-77.042 a 403.891,403.891 0 0 1 2.8,-49.464 67.831,67.831 0 0 0 0.49,-7.326 62.5,62.5 0 0 0 18.134,2.875 c 12.566,0 24.024,-4.536 34.14,-13.49 0.238,1.209 0.478,2.337 0.728,3.433 a 195.5,195.5 0 0 1 4.8,43.008 220.785,220.785 0 0 1 -6.765,53.053 q -1.778,7.153 -3.582,14.314 c -2.65,10.559 -5.383,21.452 -7.956,32.248 z"
     fill="#f4b087" />
  <path
     id="knee"
     data-name="Knee"
     d="m 365.581,924.884 a 57.773,57.773 0 0 1 -18.341,-3.252 c -0.544,-8.412 -2.22,-16.715 -3.843,-24.766 -0.672,-3.315 -1.336,-6.612 -1.916,-9.887 -1.7,-9.536 -3.162,-19.5 -4.361,-29.637 15.36,-5.584 28.612,-8.3 40.5,-8.3 a 68.5,68.5 0 0 1 21.447,3.332 216.344,216.344 0 0 0 -2.535,32.181 170.823,170.823 0 0 0 1.918,25.81 3.157,3.157 0 0 0 -0.372,0.313 c -9.715,9.545 -20.344,14.189 -32.495,14.2 z"
     fill="#f4b087" />
  <path
     id="thigh"
     data-name="Thigh"
     d="m 336.402,851.089 c -1.885,-17.733 -2.929,-36.133 -3.1,-54.735 l -0.021,-2.175 c -0.339,-35.916 -0.688,-73.057 -6.2,-109.457 a 21.94,21.94 0 0 0 -1.567,-4.953 l -0.438,-1.079 c 6.39,2.524 17.017,6.011 26.936,6.023 a 35.778,35.778 0 0 0 3.654,-0.179 c 29.51,-3.04 54.427,-9.486 74.12,-19.163 a 412.129,412.129 0 0 1 -9.123,77.442 c -7.243,33.256 -14.015,67.136 -20.132,100.7 q -0.251,1.375 -0.485,2.747 a 74.669,74.669 0 0 0 -22.42,-3.336 c -12.429,-0.002 -25.572,2.599 -41.224,8.165 z"
     fill="#f4b087" />
  <path
     id="hip"
     data-name="Hip"
     d="m 429.951,655.337 c -3.76,-3.551 -9.361,-9.093 -12.328,-13.277 -17.471,-24.547 -25.608,-45.739 -25.605,-66.7 a 80.7,80.7 0 0 1 1.473,-15.259 l 0.042,-0.026 a 10.433,10.433 0 0 0 4.265,-4.91 49.086,49.086 0 0 1 10.37,-14.559 q 1.873,5.206 3.789,10.391 c 5.969,16.254 12.139,33.063 15.786,50.163 2.208,10.311 2.5,20.6 2.5,29.3 0,3.9 -0.071,7.806 -0.141,11.722 -0.066,3.742 -0.132,7.488 -0.139,11.235 0.002,0.643 -0.002,1.281 -0.012,1.92 z"
     fill="#f4b087" />
  <path
     id="waist"
     data-name="waist"
     d="m 325.054,565.993 c -0.016,-1.11 -0.049,-2.18 -0.083,-3.2 -0.04,-1.265 -0.078,-2.451 -0.078,-3.539 0.026,-14.382 0.031,-28.69 0.031,-43 v -24.929 c 18.635,-0.252 40.054,-0.874 60.97,-4.262 a 13.357,13.357 0 0 1 2.2,-0.151 c 0.726,0 1.454,0.031 2.2,0.064 0.417,0.019 0.836,0.035 1.263,0.049 v 0.287 c 0.019,11.7 4.392,22.073 8.621,32.106 1.751,4.145 3.4,8.058 4.774,12.08 0.29,0.851 0.591,1.694 0.891,2.538 l 0.078,0.224 a 56.956,56.956 0 0 0 -13.714,18.396 4.248,4.248 0 0 1 -1.8,2.163 18.49,18.49 0 0 1 -3.923,1.418 236.663,236.663 0 0 1 -61.43,9.756 z"
     fill="#f4b087" />
  <path
     id="back"
     data-name="back"
     d="m 324.912,353.96 h 0.61 a 676.812,676.812 0 0 0 82.266,-4.776 200.31,200.31 0 0 0 -3.881,40.372 238.317,238.317 0 0 0 1.671,27.837 c -5.04,18.5 -11.138,45.091 -13.579,63.519 -0.462,-0.014 -0.921,-0.033 -1.388,-0.054 -0.825,-0.035 -1.666,-0.071 -2.519,-0.071 a 19.619,19.619 0 0 0 -3.183,0.229 c -20.478,3.32 -41.592,3.935 -59.987,4.185 z"
     fill="#f4b087" />
  <path
     id="forearm"
     data-name="Forearm"
     d="m 417.828,448.158 a 219.772,219.772 0 0 1 -7.794,-58.6 196.98,196.98 0 0 1 3.768,-39.224 148.894,148.894 0 0 0 38.039,23.112 c 0.361,11.277 2.41,22.453 4.4,33.28 2.1,11.473 4.279,23.331 4.335,34.936 0,1.169 0.026,2.281 0.059,3.346 a 57.823,57.823 0 0 0 -20.436,-4.211 36.977,36.977 0 0 0 -22.371,7.361 z"
     fill="#f4b087" />
  <path
     id="elbow"
     data-name="Elbow"
     d="m 444.039,487.862 a 67.1,67.1 0 0 1 -22.262,-4.01 126.241,126.241 0 0 1 -0.613,-12.721 c 0,-1.991 0.035,-4.024 0.1,-6.114 l 0.033,-1 c 0.026,-0.714 0.054,-1.447 0.054,-2.2 a 15.556,15.556 0 0 0 -1.6,-7.38 30.986,30.986 0 0 1 20.452,-7.509 c 6.178,0 12.99,1.576 20.8,4.811 a 56.618,56.618 0 0 0 2.639,13.579 75.858,75.858 0 0 0 4.993,10.938 c 0.735,1.4 1.506,2.882 2.307,4.5 a 53.458,53.458 0 0 1 -26.9,7.111 z"
     fill="#f4b087" />
  <path
     id="arm"
     data-name="Arm"
     d="m 465.971,598.531 c -3.669,-8.381 -7.523,-16.784 -11.263,-24.929 -8.579,-18.69 -17.446,-38.018 -24.326,-57.7 a 112.537,112.537 0 0 1 -7.719,-25.315 71.861,71.861 0 0 0 21.38,3.4 59.446,59.446 0 0 0 29.491,-7.66 c 6.989,15.954 10.728,33.473 14.347,50.435 1.4,6.572 2.853,13.369 4.474,20.014 1.492,6.1 2.9,12.227 4.31,18.357 0.985,4.286 1.967,8.574 2.983,12.858 -5.735,0.632 -12.125,1.341 -17.257,2.083 -3.228,0.476 -6.638,1.894 -10.737,4.465 -2.04,1.287 -3.953,2.678 -5.683,3.992 z"
     fill="#f4b087" />
  <path
     id="wrist"
     data-name="Wrist"
     d="m 495.021,644.279 a 23.931,23.931 0 0 1 -9,-1.991 11.826,11.826 0 0 1 -3.1,-1.706 3.972,3.972 0 0 1 -1.348,-1.9 c -3.4,-10.452 -7.571,-21.4 -13.094,-34.347 2.052,-1.59 4.213,-3.2 6.435,-4.6 a 22.7,22.7 0 0 1 8.35,-3.589 c 5.217,-0.756 11.873,-1.489 17.743,-2.137 l 0.1,-0.009 c 2.926,11.937 5.537,21.157 8.4,29.712 a 19.814,19.814 0 0 1 1.105,6.237 c -0.019,4.682 -2.078,8.4 -6.3,11.359 a 15.885,15.885 0 0 1 -9.277,2.976 z"
     fill="#f4b087" />
  <path
     id="hand"
     data-name="hand"
     d="m 507.537,740.242 c -1.56,-4.2 -3.171,-8.546 -5.038,-12.827 a 13.49,13.49 0 0 1 -0.712,-3.753 c -0.082,-0.8 -0.17,-1.623 -0.3,-2.458 a 12.116,12.116 0 0 0 -1.515,-4.373 9.48,9.48 0 0 0 -3.546,-3.362 c 0.04,-2.149 0.045,-4.293 0.047,-6.428 v -2.785 a 3.062,3.062 0 1 0 -6.124,0 v 2.783 c 0,8.007 -0.146,15.86 -1.7,23.581 a 26.834,26.834 0 0 1 -0.641,-4.2 l -0.141,-1.32 c -0.712,-6.176 -0.9,-12.57 -1.077,-18.753 -0.278,-9.557 -0.563,-19.434 -2.738,-29.307 a 78.577,78.577 0 0 1 -2.172,-16.59 37.036,37.036 0 0 1 1.982,-12.427 29.759,29.759 0 0 0 11.176,2.38 21.961,21.961 0 0 0 12.776,-4.076 20.562,20.562 0 0 0 7.432,-8.881 c 8.089,5.745 14.441,13.534 20.751,21.684 l 1.449,1.871 c 5.952,7.7 12.092,15.641 19.955,22.222 a 5.176,5.176 0 0 1 -1.039,0.978 3.74,3.74 0 0 1 -2.222,0.678 11.382,11.382 0 0 1 -5.926,-2.377 105.823,105.823 0 0 1 -11.642,-9.781 c -1.694,-1.562 -3.393,-3.131 -5.139,-4.656 l -0.191,-0.167 -0.163,-0.085 a 3.15,3.15 0 0 0 -0.424,-0.226 l -0.148,-0.064 -0.151,-0.047 -0.2,-0.087 -0.434,-0.071 h -0.271 l -0.092,0.01 a 2.7,2.7 0 0 0 -0.45,0.04 l -0.17,0.026 -0.372,0.115 a 2.793,2.793 0 0 0 -0.53,0.257 2.639,2.639 0 0 0 -0.363,0.259 l -0.139,0.087 -0.393,0.441 -0.085,0.165 a 2.776,2.776 0 0 0 -0.219,0.41 l -0.066,0.151 -0.047,0.146 -0.056,0.125 -0.061,0.255 a 68.317,68.317 0 0 0 -0.707,10.1 c 0,11.637 2.467,24.156 4.642,35.2 0.822,4.189 1.6,8.146 2.234,11.932 0.189,1.086 0.452,2.158 0.716,3.212 a 19.956,19.956 0 0 1 0.806,4.654 6.523,6.523 0 0 1 -0.172,1.508 30.165,30.165 0 0 1 -1.84,-4.046 c -1.3,-3.263 -2.717,-6.812 -6.129,-9.373 l -0.033,-0.026 c -0.264,-4.114 -0.681,-8.174 -1.081,-12.111 -0.306,-3 -0.61,-5.982 -0.846,-8.954 a 3.075,3.075 0 0 0 -3.051,-2.818 l -0.25,0.012 a 3.06,3.06 0 0 0 -2.8,3.3 c 0.243,3.049 0.554,6.093 0.865,9.142 a 192.367,192.367 0 0 1 1.329,19.606 81.212,81.212 0 0 1 -0.707,10.881 8.625,8.625 0 0 0 -2.792,-0.469 15.016,15.016 0 0 0 -5.151,1.107 l -0.226,0.078 a 16.629,16.629 0 0 1 -2.467,0.745 q -0.606,-1.612 -1.211,-3.243 z"
     fill="#f4b087" />
  <path
     id="hair"
     d="m 284.549,215.643 a 112.089,112.089 0 0 1 -22.875,-5.085 49.627,49.627 0 0 1 -14.507,-7.279 c -7.5,-5.745 -8.839,-11.526 -4.626,-19.9 a 8.491,8.491 0 0 1 0.627,-1.144 c 13.785,-19.177 14.87,-40.5 11.7,-63.011 -3.159,-22.425 0.027,-43.767 14.252,-62.54 15.911,-21 45.713,-30.386 68.8,-21.257 5.81,2.3 10.957,5.391 13.153,11.733 a 3.379,3.379 0 0 0 3.2,2.669 c 16.241,1.414 23.694,13.1 29.733,26.037 7.051,15.113 6.978,31.2 5.6,47.4 -0.515,6.068 -0.847,12.152 -1.2,18.23 a 59.169,59.169 0 0 0 10.734,38.223 c 8.581,12.357 5.252,19.946 -7.065,27.142 -9.35,5.464 -19.9,7.531 -30.533,8.668 -5.068,0.542 -73.606,0.515 -76.993,0.114 z"
     fill="#e47a5f" />
  <path
     id="shoulder"
     data-name="Shoulder"
     d="m 451.816,366.765 c -24.863,-10.858 -46.022,-28.621 -64.563,-54.21 -13.306,-18.363 -29.623,-43.072 -37.889,-71.563 2.274,-0.985 4.408,-2 6.362,-2.992 a 33.572,33.572 0 0 0 4.493,6.984 c 5.365,6.435 13.494,11.68 27.182,17.537 a 142.546,142.546 0 0 0 19.008,6.129 c 2.646,0.714 5.28,1.428 7.891,2.208 9.6,2.868 16.9,7.151 22.309,13.1 5.544,6.1 9.024,13.845 10.646,23.69 3.305,20.133 4.189,40.244 4.561,59.117 z"
     fill="#f4b087" />
  <path
     id="back"
     data-name="Back"
     d="m 382.292,316.153 a 193.979,193.979 0 0 0 23.62,27.139 672.109,672.109 0 0 1 -80.275,4.578 l -0.61,-0.005 -0.026,-100.288 a 71.426,71.426 0 0 0 18.647,-4.3 c 8.58,29.149 25.133,54.231 38.644,72.876"
     fill="#f4b087" />
</svg>
