<svg xmlns="http://www.w3.org/2000/svg" width="241.899" height="240" viewBox="0 0 241.899 240">
  <g id="Illus" transform="translate(-0.482)">
    <g id="Background_1_">
      <ellipse id="Oval" cx="109.797" cy="108.75" rx="109.797" ry="108.75" transform="translate(7.71)" fill="#fce5a6"/>
      <ellipse id="Oval-2" data-name="Oval" cx="120.949" cy="2.318" rx="120.949" ry="2.318" transform="translate(0.482 235.364)" fill="#fce5a6"/>
    </g>
    <g id="Element_2_" transform="translate(33.042 11.591)">
      <path id="Path" d="M0,.341H86.6" transform="translate(41.303 23.727)" fill="none" stroke="#372786" stroke-miterlimit="10" stroke-width="2"/>
      <path id="Path-2" data-name="Path" d="M22.343,0H0V38.021" transform="translate(112.993 38.045)" fill="none" stroke="#372786" stroke-miterlimit="10" stroke-width="2"/>
      <path id="Oval-3" data-name="Oval" d="M19.412,0A19.228,19.228,0,1,1,0,19.227,19.321,19.321,0,0,1,19.412,0Z" transform="translate(3.993 99.545)" fill="#f7b500"/>
      <path id="Path-3" data-name="Path" d="M.344,0V54.2" transform="translate(150.068 45.136)" fill="#fff" stroke="#372786" stroke-miterlimit="10" stroke-width="2"/>
      <path id="Path-4" data-name="Path" d="M13.424,22.023H3.235A3.216,3.216,0,0,1,0,18.818V0H16.59V18.818A3.077,3.077,0,0,1,13.424,22.023Z" transform="translate(11.84 109.5)" fill="#fff"/>
      <path id="Path-5" data-name="Path" d="M47.544,2.387C34.809-5.317,28.2,7.842,26.962,10.706,25.722,7.842,19.114-5.317,6.379,2.387-4.36,8.933-4.016,32.456,26.962,48h0C57.939,32.387,58.352,8.865,47.544,2.387Z" transform="translate(123.175 2.385)" fill="#f7b500"/>
      <path id="Path-6" data-name="Path" d="M3.993,0H15.007a4.05,4.05,0,0,1,4.061,4.023v.2H0v-.2A3.991,3.991,0,0,1,3.993,0Z" transform="translate(10.67 106.568)" fill="#f7b500"/>
      <path id="Path-7" data-name="Path" d="M12.735,2.114a2,2,0,0,1-.62,1.5,2.034,2.034,0,0,1-1.514.614H2.134A2.135,2.135,0,0,1,0,2.114,2,2,0,0,1,.62.614,2.034,2.034,0,0,1,2.134,0H10.6A2.135,2.135,0,0,1,12.735,2.114Z" transform="translate(23.68 127.159)" fill="#fa6400"/>
      <path id="Path-8" data-name="Path" d="M6.4,2.114a2,2,0,0,1-.62,1.5,2.034,2.034,0,0,1-1.514.614H0V0H4.268A2.135,2.135,0,0,1,6.4,2.114Z" transform="translate(30.014 127.159)" fill="#fff"/>
      <rect id="Rectangle" width="9.156" height="11.523" transform="translate(14.181 115.295)" fill="#e7e5ff" stroke="#fff" stroke-miterlimit="10" stroke-width="1"/>
      <path id="Oval-4" data-name="Oval" d="M23.956,0A23.728,23.728,0,1,1,0,23.727,23.842,23.842,0,0,1,23.956,0Z" transform="translate(0.344 0.341)" fill="#f7b500"/>
      <path id="Shape" d="M9.707,35.318,2.134,28.364a3.54,3.54,0,0,0-.413.477L0,26.863a11.1,11.1,0,0,1,7.779-2.318l.551,2.318H7.16l2.891,3.955a9.62,9.62,0,0,0-.895-4.567s-2.616-6.818,1.721-12.273A13.154,13.154,0,0,1,20.651,9.41l.275,2.318s-.551.068-1.445.273l2.891,3.819a19.13,19.13,0,0,0-.825-6.682A11.623,11.623,0,0,1,22.441,0l2,1.7s-.551.273-.895,1.432l8.054,4.3,2.134,1.7A10.628,10.628,0,0,1,24.438,11.8a.25.25,0,0,1,.068.2s2.892,7.978-5.782,13.433a19.775,19.775,0,0,1-6.609,1.7s2.272,6.545-1.171,9.409Z" transform="translate(7.641 5.591)" fill="#fff"/>
      <path id="Path-9" data-name="Path" d="M44.952,15.136H41.578l-1.239,3.818L39.031,10.5l-2.96,13.909L31.8,0,28.017,15.136H22.51L21.2,18.955l-2.134-8.864-2.96,14.318L11.427,0,7.641,15.545H0" transform="translate(127.902 15.886)" fill="none" stroke="#fff" stroke-miterlimit="10" stroke-width="2"/>
      <ellipse id="Oval-5" data-name="Oval" cx="20.17" cy="19.977" rx="20.17" ry="19.977" transform="translate(130.242 95.795)" fill="#f7b500"/>
      <path id="Path-10" data-name="Path" d="M3.3,23.523H3.029a3.041,3.041,0,0,1-3.029-3V0H6.333V20.523A3.041,3.041,0,0,1,3.3,23.523Z" transform="translate(141.532 106.091)" fill="#fff"/>
      <path id="Path-11" data-name="Path" d="M2.2,15.545H2a1.988,1.988,0,0,1-2-1.977V0H4.268V13.568A2.1,2.1,0,0,1,2.2,15.545Z" transform="translate(142.565 112.568)" fill="#e7e5ff"/>
      <rect id="Rectangle-2" data-name="Rectangle" width="9.362" height="3.205" transform="translate(140.018 104.045)" fill="#fff"/>
      <path id="Path-12" data-name="Path" d="M3.3,23.523H3.029a3.041,3.041,0,0,1-3.029-3V0H6.333V20.523A3.041,3.041,0,0,1,3.3,23.523Z" transform="translate(152.959 106.091)" fill="#fff"/>
      <path id="Path-13" data-name="Path" d="M2.2,10.909H2A1.988,1.988,0,0,1,0,8.932V0H4.268V8.932A2,2,0,0,1,2.2,10.909Z" transform="translate(153.992 117.205)" fill="#ffc107" stroke="#fff" stroke-miterlimit="10" stroke-width="1"/>
      <rect id="Rectangle-3" data-name="Rectangle" width="9.362" height="3.205" transform="translate(151.445 104.045)" fill="#fff"/>
      <path id="Path-14" data-name="Path" d="M.344,51.544V0" transform="translate(23.13 47.797)" fill="none" stroke="#372786" stroke-miterlimit="10" stroke-width="2"/>
    </g>
    <g id="Man_1_" transform="translate(86.737 0.682)">
      <rect id="Rectangle-4" data-name="Rectangle" width="8.949" height="6.818" transform="translate(31.666 219.545)" fill="#ef716b"/>
      <path id="Path-15" data-name="Path" d="M9.946,115.227H20.721l4.061-65.665L23.787,0,0,3.049,4.807,54.487Z" transform="translate(21.34 107.045)" fill="#0c0c0e"/>
      <path id="Path-16" data-name="Path" d="M.972,8.182C.486,7.247,0,0,0,0L11.5.468,13.768,5.61Z" transform="translate(19.963 35.455)" fill="#4b4a5a"/>
      <rect id="Rectangle-5" data-name="Rectangle" width="8.949" height="6.818" transform="translate(4.13 219.545)" fill="#ef716b"/>
      <path id="Path-17" data-name="Path" d="M10.685,14.545c.082,3.874.247,7.273.247,7.273L0,17.233C.658,11.3,2.795.711,2.795,0l8.22,4.111a58.109,58.109,0,0,0-.329,7.273Z" transform="translate(20.652 25.227)" fill="#ef716b"/>
      <path id="Path-18" data-name="Path" d="M20.807,13.364s-8.282,26.5-19.268,4.482c0,0-4.564-10.458,2.028-16.434,0,0,9.043-4.089,16.311,1.651C19.877,2.984,22.413,6.916,20.807,13.364Z" transform="translate(21.34 10.227)" fill="#ef716b"/>
      <path id="Path-19" data-name="Path" d="M0,0,22.028,21.493l-1.5,2.371-18.953-6.8Z" transform="translate(41.303 63.409)" fill="#e1e1e1"/>
      <path id="Path-20" data-name="Path" d="M28.912,0,22.089,47.455,11.6,111.818H0L2.644,55.636,3.667,0Z" transform="translate(2.754 110.455)" fill="#4b4a5a"/>
      <path id="Path-21" data-name="Path" d="M3.745,75.682H22.717L16.06,2.424,14.562,0S10.485,8.678,2.746,0L0,2.424Z" transform="translate(17.898 38.182)" fill="#f7b500"/>
      <path id="Path-22" data-name="Path" d="M28.912,103.636,0,100.742l2.644-21.2c.853-5.632,1.194-11.811,1.45-17.208.085-3.207.171-6.257.171-8.682,0-4.145-.085-6.883-.085-6.883q-.512-5.632-.768-9.855c-.6-12.123.341-16.034.682-16.895a.569.569,0,0,0,.085-.235C5.2,7.743,16.8,0,16.8,0l9.467,27.454.6,18.3.171,5.162.085,1.721.256,7.978Z" transform="translate(0 38.182)" fill="#e1e1e1"/>
      <path id="Path-23" data-name="Path" d="M2.667,100.909.516,13.948,0,0S6.368,3.351,8.519,12.935c0,0,2.151,11.532,3.184,40.364v47.532H2.667Z" transform="translate(35.108 40.909)" fill="#e1e1e1"/>
      <path id="Path-24" data-name="Path" d="M4.1,27.273,0,0,4.1,4.075V12.3L6.2,13.793Z" transform="translate(31.666 36.818)" fill="#e1e9fe"/>
      <path id="Path-25" data-name="Path" d="M6.582,0c.506.468,6.5,30,6.5,30L4.219,17.532l1.013-2.883L0,4.6Z" transform="translate(13.079 35.455)" fill="#e1e9fe"/>
      <path id="Path-26" data-name="Path" d="M31.345,10.217C29.16,2.122,12.434-.629,8.652,3.537A7.238,7.238,0,0,1,13.527,0S7.391-.078,5.794,5.108C2.18,5.423-4.123,8.095,3.861,25.227l2.269-3.694A3.242,3.242,0,0,1,4.2,19.883c-.672-1.886.336-5.265,3.53-3.222l.084-.079a14.526,14.526,0,0,1,.336,2.672s.672,1.65.756,1.179a6.329,6.329,0,0,1,3.446-4.558c2.1,1.022,10,4.322,15.885,1.886a32.333,32.333,0,0,1-10.59-1.493c.925.157,1.933.393,3.11.629C20.671,16.74,33.867,19.255,31.345,10.217Z" transform="translate(18.586 0)" fill="#0b1643"/>
      <path id="Path-27" data-name="Path" d="M7.591,13.636H6.865A6.673,6.673,0,0,1,0,7.161V0H14.456V7.161A6.673,6.673,0,0,1,7.591,13.636Z" transform="translate(8.949 112.5)" fill="#e1e9fe"/>
      <path id="Path-28" data-name="Path" d="M2.555,0H11.21s4.534,4.242,9.15,5.3S25.47,9.545,25.47,9.545H0A35.289,35.289,0,0,1,2.555,0Z" transform="translate(1.377 226.364)" fill="#4b4a5a"/>
      <path id="Path-29" data-name="Path" d="M2.489,0h8.68s4.547,4.242,9.176,5.3c4.547,1.061,5.125,4.242,5.125,4.242H.009A28.24,28.24,0,0,1,2.489,0Z" transform="translate(29.601 226.364)" fill="#0c0c0e"/>
      <path id="Path-30" data-name="Path" d="M19.905,0,48.187,2.124,21.564,20.455H0Z" transform="translate(39.238 66.818)" fill="#4b4a5a"/>
      <path id="Path-31" data-name="Path" d="M22.717,7.94,4.643,10.849A5.987,5.987,0,0,1,0,9.591C.083,6.368.166,3.3.166.865L22.468,0Z" transform="translate(4.13 90.682)" fill="#e7e5ff"/>
      <path id="Path-32" data-name="Path" d="M21.12,3.258,13.264,5.606a31.885,31.885,0,0,1,7.519-.833c.338,0,.338.455,0,.53L13.264,6.667a13.471,13.471,0,0,1,4.309.076.308.308,0,0,1,0,.606l-8.7,1.591-1.943.379L3.886,10.379l-1.605.53L0,5.758,5.153,4.621l1.774-.379,3.464-3.106L13.264.379c.338-.076.507.3.338.455L11.574,2.652C11.827,2.5,16.558.227,18.5,0c.253,0,.338.227.169.379L12.757,4.7c.338-.152,5.829-2.576,8.533-1.894C21.374,2.727,21.374,3.106,21.12,3.258Z" transform="translate(31.666 79.773)" fill="#ef716b"/>
      <path id="Path-33" data-name="Path" d="M14.456,42.775,0,43.636,1.5.156S6.1-4.153,5.6,32.512c0,2.272,1.421,6.111,8.607,5.092Z" transform="translate(12.391 46.364)" fill="#e7e5ff"/>
      <path id="Path-34" data-name="Path" d="M.512,7.5,9.637,5.462,9.467,0,0,1.549Z" transform="translate(26.847 91.364)" fill="#e7e5ff"/>
      <path id="Path-35" data-name="Path" d="M4.819,4.7l-1.705.4L.445,6.136,0,.638,1.631,0Z" transform="translate(35.108 84.545)" fill="#ed6969"/>
      <path id="Path-36" data-name="Path" d="M.479,6.35S2.747,8.651,4.491,8.1c0,0,5.146-1.428,5.146-4.681L6.5.083C6.323-.076,5.974,0,5.974.241A4.935,4.935,0,0,0,7.282,3.415L3.532.479A.267.267,0,0,0,3.1.638C3.1,1.431,3.445,3.1,5.538,5L1.177,2.066A.271.271,0,0,0,.741,2.3c0,.793.523,2.459,3.053,4.363L.479,4.684a.331.331,0,0,0-.436.159A1.543,1.543,0,0,0,.479,6.35Z" transform="translate(57.136 81.136)" fill="#ef716b"/>
      <path id="Path-37" data-name="Path" d="M6,2.256S13.505-5.2,14.6,6.993c0,0,.253,9.785-.843,26.248,0,0,0,9.552,12.059,6.368l8.6-1.553v9.552L9.626,52.888s-6.915,2.64-8.6-7.921C1.109,44.967-3.445,13.128,6,2.256Z" transform="translate(2.065 45)" fill="#e1e1e1"/>
      <path id="Path-38" data-name="Path" d="M6.2,7.5C.359,3.553,0,0,0,0A12.709,12.709,0,0,0,6.2,4.342Z" transform="translate(25.47 32.045)" fill="#ed6969"/>
    </g>
  </g>
</svg>
