<svg xmlns="http://www.w3.org/2000/svg" xmlns:xlink="http://www.w3.org/1999/xlink" width="326.892" height="253" viewBox="0 0 326.892 253">
  <defs>
    <clipPath id="clip-path">
      <path id="Clip_35" data-name="Clip 35" d="M0,0H326.892V.473H0Z" transform="translate(0 0.362)" fill="none"/>
    </clipPath>
  </defs>
  <g id="Group_95448" data-name="Group 95448" transform="translate(-24 -164)">
    <g id="BG" transform="translate(24 164)">
      <path id="Fill_1" data-name="Fill 1" d="M96.088,191.467l96.839-3.788c20.916-.819,43.952-2.519,58.755-17.319,5.965-5.962,10.394-13.911,18.043-17.463,11.114-5.161,24.454.949,36.358-1.959,12.9-3.151,21.366-17.146,20.565-30.4s-9.392-25.179-20.414-32.594-24.243-10.862-37.383-12.813-26.467-2.534-39.545-4.863c-3.7-.658-7.8-1.751-9.678-5-3.14-5.425,2.488-12.094,8.454-14.013s12.7-1.5,18.143-4.6c7.168-4.082,10.017-13.681,7.733-21.607s-8.807-14.113-16.227-17.715S222.01,2.393,213.811,1.5C148.642-5.641,81,12.99,28.678,52.486,21.8,57.68,19.348,59.8,14.986,67.23s-4.836,17.9,1.273,23.985c5.151,5.13,13.275,5.751,20.482,4.808s14.366-3.133,21.6-2.456,14.87,5.38,15.722,12.6c.832,7.047-4.96,13.148-11.035,16.814-8.584,5.182-18.433,7.769-27.968,10.875S15.89,140.829,8.791,147.912-2.3,166.022,1.419,175.333c2.613,6.539,8.606,11.285,15.161,13.858s13.69,3.229,20.723,3.6c18.791.994,39.981-.59,58.785-1.325" transform="translate(0 16.358)" fill="rgba(247,181,0,0.35)"/>
      <path id="Fill_3" data-name="Fill 3" d="M25.484,31.755c-3.873,1.669-7.835,3.361-12.04,3.683S4.672,34.468,2.1,31.125s-2.636-8.124-1-12S5.84,12.171,9.2,9.642A48.45,48.45,0,0,1,35.481.054c4.967-.273,10.392.411,13.975,3.863,5.894,5.68,3.379,14.1-2.679,18.38C40.7,26.6,32.3,28.819,25.484,31.755" transform="translate(31.916 0)" fill="rgba(247,181,0,0.35)"/>
      <path id="Fill_5" data-name="Fill 5" d="M35.281,17.64A17.641,17.641,0,1,1,17.641,0,17.64,17.64,0,0,1,35.281,17.64" transform="translate(268.669 37.64)" fill="rgba(247,181,0,0.35)"/>
    </g>
    <g id="illus_2" data-name="illus / 2" transform="translate(24 215.281)">
      <g id="illus_2-2" data-name="illus / 2" transform="translate(0 -0.281)">
        <path id="Fill_1-2" data-name="Fill 1" d="M0,29.887H6.669V0H0Z" transform="translate(34.128 26.219)" fill="#ffc107"/>
        <path id="Fill_2" data-name="Fill 2" d="M0,6.669H29.887V0H0Z" transform="translate(22.52 37.828)" fill="#ffc107"/>
        <g id="Group_33" data-name="Group 33" transform="translate(3.78 15.709)">
          <path id="Fill_3-2" data-name="Fill 3" d="M50.088,25.11a2.273,2.273,0,0,1-.047-.4l-.086-1.181q-.026-.393-.056-.869c-.035-.318-.105-.663-.163-1.039a18.2,18.2,0,0,0-.526-2.565,23.787,23.787,0,0,0-2.769-6.589A24.7,24.7,0,0,0,16.772,1.94a25.693,25.693,0,0,0-3.216,1.415A25.762,25.762,0,0,0,10.533,5.3a27.8,27.8,0,0,0-2.8,2.378,27.941,27.941,0,0,0-2.415,2.859A23.877,23.877,0,0,0,1.8,17.329,26.347,26.347,0,0,0,.526,25.106a26.337,26.337,0,0,0,1.27,7.78A23.881,23.881,0,0,0,5.319,39.68a27.961,27.961,0,0,0,2.416,2.86,27.711,27.711,0,0,0,2.8,2.379,25.726,25.726,0,0,0,3.023,1.945,25.8,25.8,0,0,0,3.217,1.416A24.763,24.763,0,0,0,46.441,37.755a23.777,23.777,0,0,0,2.769-6.588,18.164,18.164,0,0,0,.526-2.565c.058-.375.127-.72.163-1.039s.039-.607.056-.869l.086-1.181a2.273,2.273,0,0,1,.047-.4,2.339,2.339,0,0,1,.007.4c-.009.293-.02.686-.034,1.187q-.014.4-.032.875c-.026.321-.088.669-.138,1.048a17.687,17.687,0,0,1-.482,2.592,23.61,23.61,0,0,1-2.715,6.689A25.08,25.08,0,0,1,29.815,49.795a25.181,25.181,0,0,1-13.208-1.059A26.167,26.167,0,0,1,13.322,47.3a26.126,26.126,0,0,1-3.089-1.977A28.125,28.125,0,0,1,7.375,42.9,28.35,28.35,0,0,1,4.9,39.985a24.361,24.361,0,0,1-3.6-6.934A26.861,26.861,0,0,1,0,25.106a26.823,26.823,0,0,1,1.3-7.942,24.339,24.339,0,0,1,3.6-6.932,28.384,28.384,0,0,1,2.47-2.914A28.289,28.289,0,0,1,10.234,4.9,26.08,26.08,0,0,1,13.323,2.92a26.154,26.154,0,0,1,3.284-1.436A25.18,25.18,0,0,1,29.813.424,25.077,25.077,0,0,1,46.692,12.313,23.593,23.593,0,0,1,49.408,19a17.642,17.642,0,0,1,.483,2.593c.05.379.111.727.138,1.048q.018.48.032.876c.014.5.026.895.034,1.188a2.331,2.331,0,0,1-.007.4" transform="translate(8.416 0.416)" fill="#262c3d"/>
          <path id="Fill_13" data-name="Fill 13" d="M0,13.457a2.959,2.959,0,0,1,.372-.534l1.082-1.4c.912-1.183,2.163-2.822,3.478-4.68S7.39,3.265,8.2,2.012L9.166.529A3.014,3.014,0,0,1,9.546,0a2.972,2.972,0,0,1-.289.584c-.2.366-.5.891-.891,1.531C7.595,3.4,6.481,5.14,5.157,7s-2.6,3.489-3.551,4.643c-.479.575-.871,1.036-1.151,1.347A2.953,2.953,0,0,1,0,13.457" transform="translate(34.094 133.05)" fill="#fff"/>
          <path id="Fill_15" data-name="Fill 15" d="M0,.009A2.556,2.556,0,0,1,.6.036L2.228.209C3.6.367,5.492.6,7.581.883s3.977.546,5.343.753l1.615.259a2.587,2.587,0,0,1,.587.132,2.476,2.476,0,0,1-.6-.026L12.9,1.828c-1.371-.158-3.264-.4-5.353-.674S3.568.608,2.2.4L.587.141A2.5,2.5,0,0,1,0,.009" transform="translate(18.938 144.278)" fill="#fff"/>
          <path id="Fill_17" data-name="Fill 17" d="M0,.008A4.208,4.208,0,0,1,.769.049L2.855.263c1.759.193,4.187.478,6.867.809s5.1.647,6.858.889l2.075.3a4.121,4.121,0,0,1,.756.147,4.207,4.207,0,0,1-.769-.042l-2.085-.215c-1.759-.192-4.188-.478-6.868-.809S4.584.7,2.831.456L.756.155A4.121,4.121,0,0,1,0,.008" transform="translate(24.481 163.848)" fill="#fff"/>
          <path id="Fill_19" data-name="Fill 19" d="M0,17.4a4.747,4.747,0,0,1,.454-.688l1.308-1.824c1.1-1.541,2.617-3.676,4.222-6.079S8.993,4.2,10,2.587l1.188-1.9A4.751,4.751,0,0,1,11.646,0a4.791,4.791,0,0,1-.371.737c-.254.466-.632,1.134-1.114,1.951C9.2,4.323,7.825,6.556,6.213,8.962S3.063,13.489,1.919,15c-.574.755-1.044,1.362-1.378,1.773A4.78,4.78,0,0,1,0,17.4" transform="translate(43.443 148.669)" fill="#fff"/>
          <path id="Fill_23" data-name="Fill 23" d="M0,77.512A216.343,216.343,0,0,1,7.173,53.733q1.114-3.108,2.2-6.137c.727-2.012,1.447-4.008,2.273-5.916a108.077,108.077,0,0,1,5.372-10.695c1.873-3.319,3.771-6.4,5.568-9.268s3.534-5.505,5.214-7.843A85.762,85.762,0,0,1,36.541,3.442C37.665,2.3,38.567,1.435,39.186.86l.708-.65A1.731,1.731,0,0,1,40.145,0a1.737,1.737,0,0,1-.22.243l-.677.682c-.6.6-1.48,1.476-2.584,2.64a90.63,90.63,0,0,0-8.61,10.5c-1.66,2.343-3.371,4.986-5.157,7.856s-3.666,5.958-5.525,9.275a109.291,109.291,0,0,0-5.327,10.664c-.818,1.9-1.53,3.878-2.257,5.9s-1.455,4.063-2.2,6.134A222.018,222.018,0,0,0,.4,77.606" transform="translate(269.455 87.017)" fill="#fff"/>
          <path id="Fill_25" data-name="Fill 25" d="M5.128,26.315a4.929,4.929,0,0,1-.3-1.014c-.167-.659-.377-1.619-.618-2.81-.486-2.38-1.045-5.69-1.647-9.341S1.358,6.2.838,3.837C.581,2.653.363,1.7.2,1.038A4.848,4.848,0,0,1,.006,0,4.775,4.775,0,0,1,.371.992c.21.646.475,1.594.772,2.772C1.744,6.121,2.4,9.417,3,13.074c.585,3.605,1.114,6.867,1.518,9.358.189,1.125.35,2.073.479,2.833a4.845,4.845,0,0,1,.128,1.05" transform="translate(276.099 102.357)" fill="#fff"/>
          <path id="Fill_27" data-name="Fill 27" d="M30.65.015a6.747,6.747,0,0,1-1.228.223c-.791.119-1.936.284-3.345.534-2.821.478-6.695,1.274-10.929,2.34S7.123,5.321,4.405,6.221c-1.363.44-2.456.826-3.213,1.089A6.727,6.727,0,0,1,0,7.679a6.59,6.59,0,0,1,1.13-.534C1.871,6.833,2.95,6.4,4.3,5.919c2.7-.98,6.49-2.166,10.737-3.244A109.523,109.523,0,0,1,26.029.458C27.448.248,28.6.128,29.4.064A6.642,6.642,0,0,1,30.65.015" transform="translate(281.227 120.993)" fill="#fff"/>
          <path id="Fill_29" data-name="Fill 29" d="M18,38.651a1.6,1.6,0,0,1-.235-.365l-.6-1.09c-.515-.948-1.224-2.34-2.078-4.071-1.71-3.461-3.921-8.316-6.29-13.707S4.266,9.156,2.631,5.665L.682,1.535.158.407A1.592,1.592,0,0,1,0,0,1.627,1.627,0,0,1,.237.366l.6,1.089C1.35,2.4,2.06,3.795,2.913,5.526c1.71,3.461,3.921,8.317,6.29,13.709s4.532,10.259,6.168,13.752c.8,1.7,1.459,3.093,1.948,4.13.21.45.382.823.524,1.127a1.622,1.622,0,0,1,.156.407" transform="translate(251.803 125.284)" fill="#fff"/>
          <path id="Fill_31" data-name="Fill 31" d="M40.393,0a1.629,1.629,0,0,1-.4.193L38.822.67,34.5,2.365C30.845,3.8,25.825,5.835,20.28,8.092S9.688,12.344,6.006,13.7c-1.841.68-3.336,1.214-4.376,1.562-.482.158-.878.287-1.2.394A1.594,1.594,0,0,1,0,15.766a1.7,1.7,0,0,1,.4-.194L1.571,15.1,5.9,13.4c3.652-1.432,8.673-3.469,14.219-5.728S30.7,3.425,34.386,2.068C36.227,1.388,37.722.854,38.763.505l1.2-.394A1.64,1.64,0,0,1,40.393,0" transform="translate(269.803 148.169)" fill="#fff"/>
        </g>
        <g id="Group_36" data-name="Group 36" transform="translate(0 200.946)">
          <path id="Clip_35-2" data-name="Clip 35" d="M0,0H326.892V.473H0Z" transform="translate(0 0.362)" fill="none"/>
          <g id="Group_36-2" data-name="Group 36" clip-path="url(#clip-path)">
            <path id="Fill_34" data-name="Fill 34" d="M326.892.236c0,.069-73.183.123-163.438.123C73.167.359,0,.3,0,.236S73.167.113,163.454.113c90.255,0,163.438.055,163.438.123" transform="translate(0 0.362)" fill="#1a2e35"/>
          </g>
        </g>
        <g id="Group_9" data-name="Group 9" transform="translate(8)">
          <g id="Group_150" data-name="Group 150" transform="translate(209)">
            <path id="Fill_130" data-name="Fill 130" d="M2.079,21.211H1.626A1.626,1.626,0,0,1,0,19.584V1.627A1.627,1.627,0,0,1,1.626,0h.453A1.627,1.627,0,0,1,3.706,1.627V19.584a1.627,1.627,0,0,1-1.627,1.626" transform="translate(15.112 14.009)" fill="#e1e1e1"/>
            <path id="Fill_132" data-name="Fill 132" d="M2.079,14.872H1.626A1.626,1.626,0,0,1,0,13.245V1.627A1.627,1.627,0,0,1,1.626,0h.453A1.627,1.627,0,0,1,3.706,1.627V13.245a1.627,1.627,0,0,1-1.627,1.626" transform="translate(15.112 20.348)" fill="#f7b500"/>
            <path id="Fill_134" data-name="Fill 134" d="M2.079,21.211H1.626A1.626,1.626,0,0,1,0,19.584V1.627A1.627,1.627,0,0,1,1.626,0h.453A1.627,1.627,0,0,1,3.706,1.627V19.584a1.627,1.627,0,0,1-1.627,1.626" transform="translate(21.182 14.009)" fill="#e1e1e1"/>
            <path id="Fill_136" data-name="Fill 136" d="M2.079,11.584H1.626A1.626,1.626,0,0,1,0,9.958V1.627A1.627,1.627,0,0,1,1.626,0h.453A1.627,1.627,0,0,1,3.706,1.627V9.958a1.627,1.627,0,0,1-1.627,1.626" transform="translate(21.182 23.636)" fill="#f7b500"/>
            <path id="Fill_138" data-name="Fill 138" d="M2.08,21.211H1.627A1.627,1.627,0,0,1,0,19.584V1.627A1.627,1.627,0,0,1,1.627,0H2.08A1.627,1.627,0,0,1,3.706,1.627V19.584A1.626,1.626,0,0,1,2.08,21.211" transform="translate(28.05 14.009)" fill="#e1e1e1"/>
            <path id="Fill_140" data-name="Fill 140" d="M2.08,17.379H1.627A1.627,1.627,0,0,1,0,15.753V1.627A1.627,1.627,0,0,1,1.627,0H2.08A1.627,1.627,0,0,1,3.706,1.627V15.753A1.626,1.626,0,0,1,2.08,17.379" transform="translate(28.05 17.841)" fill="#f7b500"/>
            <path id="Fill_142" data-name="Fill 142" d="M2.021,21.327a4.27,4.27,0,0,0,.463-.086,1.774,1.774,0,0,0,1.282-1.708q0-.542-.009-1.17c0-.843-.011-1.8-.017-2.854-.007-2.12-.016-4.637-.025-7.429,0-1.4,0-2.866-.007-4.387q0-.571,0-1.151a4.064,4.064,0,0,0-.076-1.128A1.708,1.708,0,0,0,1.914.23,1.7,1.7,0,0,0,.278,1.51,5.8,5.8,0,0,0,.227,2.648q0,.581,0,1.151c0,1.521,0,2.989-.007,4.388C.21,10.98.2,13.5.194,15.616.188,16.671.183,17.627.178,18.47c0,.418-.012.814,0,1.167a1.743,1.743,0,0,0,.3.895,1.812,1.812,0,0,0,1.078.736c.3.062.468.046.467.06a1.484,1.484,0,0,1-.477-.015A1.825,1.825,0,0,1,.065,19.643C.05,19.278.056,18.891.05,18.47c-.005-.843-.01-1.8-.017-2.854C.026,13.5.018,10.98.009,8.187.006,6.788,0,5.321,0,3.8q0-.571,0-1.151,0-.29,0-.583a2.262,2.262,0,0,1,.057-.61A1.92,1.92,0,0,1,1.914,0a1.961,1.961,0,0,1,1.2.345,1.934,1.934,0,0,1,.732,1,2.133,2.133,0,0,1,.086.613q0,.293,0,.583,0,.58,0,1.151c0,1.521,0,2.988-.007,4.387-.009,2.792-.017,5.309-.024,7.429-.006,1.055-.012,2.011-.017,2.854q0,.628-.009,1.17a1.846,1.846,0,0,1-.283.958,1.786,1.786,0,0,1-1.1.8,1.342,1.342,0,0,1-.475.042" transform="translate(14.998 13.893)" fill="#1a2e35"/>
            <path id="Fill_144" data-name="Fill 144" d="M2.021,21.327a4.27,4.27,0,0,0,.463-.086,1.774,1.774,0,0,0,1.282-1.708q0-.542-.009-1.17c-.005-.843-.011-1.8-.017-2.854-.007-2.12-.016-4.637-.025-7.429,0-1.4,0-2.866-.007-4.387q0-.571,0-1.151a4.064,4.064,0,0,0-.076-1.128A1.708,1.708,0,0,0,1.914.23,1.7,1.7,0,0,0,.278,1.51,5.8,5.8,0,0,0,.227,2.648q0,.581,0,1.151c0,1.521,0,2.989-.007,4.388C.21,10.98.2,13.5.194,15.616.188,16.671.183,17.627.178,18.47c0,.418-.012.814,0,1.167a1.739,1.739,0,0,0,.3.895,1.812,1.812,0,0,0,1.078.736c.3.062.468.046.467.06a1.482,1.482,0,0,1-.477-.015A1.824,1.824,0,0,1,.065,19.643C.05,19.278.056,18.891.05,18.47c-.005-.843-.01-1.8-.017-2.854C.026,13.5.018,10.98.009,8.187.007,6.788,0,5.321,0,3.8q0-.571,0-1.151,0-.29,0-.583a2.262,2.262,0,0,1,.057-.61A1.92,1.92,0,0,1,1.914,0a1.961,1.961,0,0,1,1.2.345,1.934,1.934,0,0,1,.732,1,2.133,2.133,0,0,1,.086.613q0,.293,0,.583,0,.58,0,1.151c0,1.521,0,2.988-.007,4.387-.009,2.792-.017,5.309-.024,7.429-.006,1.055-.012,2.011-.017,2.854q0,.628-.009,1.17a1.846,1.846,0,0,1-.283.958,1.786,1.786,0,0,1-1.1.8,1.342,1.342,0,0,1-.475.042" transform="translate(21.068 13.893)" fill="#1a2e35"/>
            <path id="Fill_146" data-name="Fill 146" d="M2.021,21.327a4.3,4.3,0,0,0,.463-.086,1.776,1.776,0,0,0,1.282-1.708q0-.542-.009-1.17c-.005-.843-.011-1.8-.017-2.854-.007-2.12-.016-4.637-.025-7.429,0-1.4,0-2.866-.007-4.387q0-.571,0-1.151a4.082,4.082,0,0,0-.077-1.128A1.707,1.707,0,0,0,1.914.23,1.694,1.694,0,0,0,.279,1.51,5.8,5.8,0,0,0,.227,2.648q0,.581,0,1.151c0,1.521,0,2.989-.006,4.388C.21,10.98.2,13.5.195,15.616.188,16.671.183,17.627.178,18.47c0,.418-.012.814,0,1.167a1.739,1.739,0,0,0,.3.895,1.813,1.813,0,0,0,1.078.736c.3.062.469.046.468.06a1.484,1.484,0,0,1-.477-.015A1.825,1.825,0,0,1,.065,19.643C.051,19.278.056,18.891.05,18.47c-.005-.843-.01-1.8-.017-2.854C.026,13.5.018,10.98.009,8.187.007,6.788,0,5.321,0,3.8q0-.571,0-1.151,0-.29,0-.583a2.262,2.262,0,0,1,.058-.61A1.92,1.92,0,0,1,1.914,0a1.959,1.959,0,0,1,1.2.345,1.932,1.932,0,0,1,.732,1,2.133,2.133,0,0,1,.086.613q0,.293,0,.583,0,.58,0,1.151c0,1.521,0,2.988-.007,4.387-.009,2.792-.017,5.309-.024,7.429-.007,1.055-.012,2.011-.017,2.854q0,.628-.009,1.17a1.842,1.842,0,0,1-.283.958,1.786,1.786,0,0,1-1.1.8,1.339,1.339,0,0,1-.475.042" transform="translate(27.935 13.893)" fill="#1a2e35"/>
            <path id="Fill_148" data-name="Fill 148" d="M23.368.009a2.244,2.244,0,0,1,.4-.007l1.178.033c.259.012.55.012.869.039L26.854.22l1.213.174L29.421.73a21.942,21.942,0,0,1,6.566,2.863,23.567,23.567,0,0,1,6.791,6.614,23.767,23.767,0,0,1,3.853,10.8,23.942,23.942,0,0,1,.064,3.175c-.037.537-.026,1.083-.1,1.624s-.164,1.086-.246,1.635a23.306,23.306,0,0,1-2.207,6.461,24.881,24.881,0,0,1-4.22,5.807,24.394,24.394,0,0,1-6.081,4.368,22.094,22.094,0,0,1-7.411,2.275,14.722,14.722,0,0,1-1.977.168,17.822,17.822,0,0,1-2,.036,23.657,23.657,0,0,1-4-.506A23.383,23.383,0,0,1,10.479,42.7l.241.024L2.6,45.983l-.481.193.137-.5L4.647,37l.041.214A23.281,23.281,0,0,1,.357,27.3a21.068,21.068,0,0,1-.316-5.08,16.276,16.276,0,0,1,.23-2.44q.093-.6.185-1.187c.072-.39.191-.769.284-1.149a23.21,23.21,0,0,1,9.055-13.2A22.2,22.2,0,0,1,15.184,1.4L16.4.965,17.55.672,18.6.41c.338-.065.664-.1.971-.146C20.189.186,20.728.08,21.2.057l1.193-.04L23.122,0a1.1,1.1,0,0,1,.246.009,1.116,1.116,0,0,1-.246.034L22.4.1,21.212.18c-.469.036-1,.155-1.61.244A23.084,23.084,0,0,0,1.146,17.546c-.089.374-.2.745-.273,1.129S.756,19.45.7,19.841a16.012,16.012,0,0,0-.215,2.4,20.69,20.69,0,0,0,.329,4.98,22.858,22.858,0,0,0,4.272,9.7l.073.1-.032.118q-1.148,4.205-2.368,8.682l-.344-.306,8.113-3.267.127-.052.115.076a22.9,22.9,0,0,0,7.79,3.275,23.267,23.267,0,0,0,3.913.495A17.369,17.369,0,0,0,24.424,46a14.224,14.224,0,0,0,1.933-.163,21.617,21.617,0,0,0,7.248-2.216,23.961,23.961,0,0,0,5.956-4.262,24.465,24.465,0,0,0,4.145-5.675,22.863,22.863,0,0,0,2.182-6.323q.125-.807.248-1.6c.079-.531.069-1.067.109-1.592A23.64,23.64,0,0,0,46.2,21.05,22.933,22.933,0,0,0,35.827,3.841,22.083,22.083,0,0,0,29.368.928L28.03.572l-1.2-.2L25.8.205C25.485.17,25.2.162,24.94.141L23.768.056a2.242,2.242,0,0,1-.4-.047" transform="translate(0.067 0.281)" fill="#262c3d"/>
          </g>
          <path id="Path" d="M106.85,259l-87.808-.4A19.14,19.14,0,0,1,0,239.373L.934,19.065A19.138,19.138,0,0,1,20.15,0l87.808.4A19.139,19.139,0,0,1,127,19.627l-.933,220.308A19.133,19.133,0,0,1,106.85,259Z" transform="translate(25 202) rotate(-90)" fill="#f7b500"/>
          <path id="Path-2" data-name="Path" d="M101.708.422,84.732.341A4.279,4.279,0,0,0,80.59,4.75l-.016,3.161a4.279,4.279,0,0,1-4.141,4.409L43.34,12.166a4.283,4.283,0,0,1-4.1-4.45l.016-3.161a4.294,4.294,0,0,0-4.1-4.45L29.18.073,14.326,0A13.546,13.546,0,0,0,.907,13.666L0,233.808a13.541,13.541,0,0,0,13.292,13.779l87.382.413a13.546,13.546,0,0,0,13.419-13.665L115,14.192A13.532,13.532,0,0,0,101.708.422Z" transform="translate(30.5 196.5) rotate(-90)" fill="#fff"/>
          <g id="Group_8" data-name="Group 8" transform="translate(42 86)">
            <path id="Fill_80" data-name="Fill 80" d="M23.015,20.1H.066L0,10.116A10.05,10.05,0,0,1,10.049,0H23.015a10.05,10.05,0,0,1,0,20.1" transform="translate(7.415 0.892)" fill="#fce5a6"/>
            <path id="Fill_81" data-name="Fill 81" d="M40.845,9.1H4.451A4.456,4.456,0,0,1,0,4.648v-.2A4.456,4.456,0,0,1,4.451,0H40.845A4.457,4.457,0,0,1,45.3,4.451v.2A4.457,4.457,0,0,1,40.845,9.1ZM4.451.278A4.178,4.178,0,0,0,.278,4.451v.2A4.178,4.178,0,0,0,4.451,8.821H40.845a4.178,4.178,0,0,0,4.173-4.173v-.2A4.178,4.178,0,0,0,40.845.278Z" transform="translate(0.32 95.989)" fill="#f7b500"/>
            <path id="Fill_82" data-name="Fill 82" d="M4.524,2.262A2.262,2.262,0,1,1,2.262,0,2.262,2.262,0,0,1,4.524,2.262" transform="translate(39.122 98.139)" fill="#f7b500"/>
            <path id="Fill_83" data-name="Fill 83" d="M1.408,2.456H1.4A.07.07,0,0,1,1.34,2.4l-.289-1.07-1-.356a.07.07,0,0,1,0-.131L2.409,0a.067.067,0,0,1,.024,0,.068.068,0,0,1,.05.022A.069.069,0,0,1,2.5.1L1.471,2.415A.069.069,0,0,1,1.408,2.456ZM2.3.19.277.913l.854.3a.069.069,0,0,1,.044.048l.247.916L2.3.19Z" transform="translate(39.919 99.341)" fill="#fff"/>
            <path id="Fill_84" data-name="Fill 84" d="M.07,1.35a.07.07,0,0,1-.047-.121L1.347.018a.07.07,0,0,1,.1,0,.069.069,0,0,1,0,.1L.117,1.332A.07.07,0,0,1,.07,1.35" transform="translate(40.957 99.341)" fill="#fff"/>
            <path id="Fill_85" data-name="Fill 85" d="M.437.114H0V0H1.006V.114H.568v1.13H.437Z" transform="translate(10.318 99.672)" fill="#1a2e35"/>
            <path id="Fill_86" data-name="Fill 86" d="M1.006,0,.538,1.046c-.078.183-.178.242-.311.242A.318.318,0,0,1,0,1.2l.059-.094a.233.233,0,0,0,.171.071c.084,0,.14-.039.194-.156L.464.933.046,0H.178L.529.794.881,0Z" transform="translate(11.226 99.981)" fill="#1a2e35"/>
            <path id="Fill_87" data-name="Fill 87" d="M.133,1.286H0V.007H.128V.192A.434.434,0,0,1,.508,0,.462.462,0,0,1,1,.474.463.463,0,0,1,.508.95.438.438,0,0,1,.133.766v.519ZM.5.11A.354.354,0,0,0,.131.474.35.35,0,0,0,.5.838.35.35,0,0,0,.867.474.354.354,0,0,0,.5.11Z" transform="translate(12.41 99.974)" fill="#1a2e35"/>
            <path id="Fill_88" data-name="Fill 88" d="M.539,1A.5.5,0,0,1,0,.5.484.484,0,0,1,.5,0,.477.477,0,0,1,1,.5C1,.5,1,.511,1,.517S1,.532,1,.54H.139a.374.374,0,0,0,.4.342A.419.419,0,0,0,.858.753L.936.839A.516.516,0,0,1,.539,1ZM.5.114A.353.353,0,0,0,.139.441H.867A.348.348,0,0,0,.5.114Z" transform="translate(13.52 99.974)" fill="#1a2e35"/>
            <path id="Fill_89" data-name="Fill 89" d="M.436,1C.171,1,0,.888,0,.714S.163.436.46.436H.839V.375C.839.205.722.115.5.115A.693.693,0,0,0,.1.231L.032.132A.864.864,0,0,1,.517,0C.833,0,1,.132,1,.381v.61H.846V.837A.488.488,0,0,1,.436,1ZM.464.535c-.2,0-.306.059-.306.175S.271.9.46.9a.391.391,0,0,0,.379-.2V.535Z" transform="translate(15.076 99.975)" fill="#1a2e35"/>
            <path id="Fill_90" data-name="Fill 90" d="M1.542.4V.941H1.416V.412c0-.2-.1-.3-.268-.3A.3.3,0,0,0,.835.451V.941H.709V.412c0-.2-.1-.3-.27-.3A.3.3,0,0,0,.126.451V.941H0V.007H.121V.178A.378.378,0,0,1,.464,0,.335.335,0,0,1,.8.2a.407.407,0,0,1,.37-.2.353.353,0,0,1,.377.4" transform="translate(16.668 99.974)" fill="#1a2e35"/>
            <path id="Fill_91" data-name="Fill 91" d="M.539,1A.5.5,0,0,1,0,.5.484.484,0,0,1,.5,0,.477.477,0,0,1,1,.5C1,.5,1,.511,1,.517S1,.532,1,.54H.139a.374.374,0,0,0,.4.342A.415.415,0,0,0,.857.753L.936.839A.516.516,0,0,1,.539,1ZM.5.114A.353.353,0,0,0,.139.441H.867A.348.348,0,0,0,.5.114Z" transform="translate(18.463 99.974)" fill="#1a2e35"/>
            <path id="Fill_92" data-name="Fill 92" d="M0,.835l.057-.1A.562.562,0,0,0,.389.841C.567.841.64.78.64.688.64.444.034.636.034.267.034.114.165,0,.4,0a.635.635,0,0,1,.33.087l-.055.1A.48.48,0,0,0,.4.109C.234.109.16.174.16.263c0,.252.606.062.606.421C.766.845.623.951.38.951A.622.622,0,0,1,0,.835" transform="translate(19.501 99.974)" fill="#1a2e35"/>
            <path id="Fill_93" data-name="Fill 93" d="M0,.835l.057-.1A.562.562,0,0,0,.389.841c.178,0,.25-.06.25-.153C.639.444.034.636.034.267.034.114.165,0,.4,0a.637.637,0,0,1,.33.087l-.055.1A.48.48,0,0,0,.4.109C.234.109.16.174.16.263c0,.252.606.062.606.421C.766.845.623.951.38.951A.62.62,0,0,1,0,.835" transform="translate(20.37 99.974)" fill="#1a2e35"/>
            <path id="Fill_94" data-name="Fill 94" d="M.436,1C.171,1,0,.888,0,.714S.163.436.46.436H.839V.375C.839.205.722.115.5.115A.693.693,0,0,0,.1.231L.032.132A.864.864,0,0,1,.517,0C.833,0,1,.132,1,.381v.61H.846V.837A.488.488,0,0,1,.436,1ZM.464.535c-.2,0-.306.059-.306.175S.271.9.46.9a.391.391,0,0,0,.379-.2V.535Z" transform="translate(21.29 99.975)" fill="#1a2e35"/>
            <path id="Fill_95" data-name="Fill 95" d="M.513,1.3a.7.7,0,0,1-.454-.144l.067-.1a.591.591,0,0,0,.383.128c.245,0,.359-.108.359-.338V.725A.445.445,0,0,1,.49.906.458.458,0,0,1,0,.451.456.456,0,0,1,.49,0,.441.441,0,0,1,.874.186V.007H1V.828C1,1.142.841,1.3.513,1.3ZM.5.11A.34.34,0,0,0,.133.451.342.342,0,0,0,.5.795.343.343,0,1,0,.5.11Z" transform="translate(22.326 99.974)" fill="#1a2e35"/>
            <path id="Fill_96" data-name="Fill 96" d="M.539,1A.5.5,0,0,1,0,.5.484.484,0,0,1,.5,0,.477.477,0,0,1,1,.5C1,.5,1,.511,1,.517S1,.532,1,.54H.139a.374.374,0,0,0,.4.342A.419.419,0,0,0,.858.753L.936.839A.516.516,0,0,1,.539,1ZM.5.114A.353.353,0,0,0,.139.441H.868A.35.35,0,0,0,.5.114Z" transform="translate(23.545 99.974)" fill="#1a2e35"/>
            <path id="Fill_97" data-name="Fill 97" d="M.141.235a.094.094,0,0,1,.095-.1.1.1,0,0,1,.1.1.1.1,0,0,1-.1.1.1.1,0,0,1-.095-.1" transform="translate(24.49 100.592)" fill="#1a2e35"/>
            <path id="Fill_98" data-name="Fill 98" d="M.141.235a.094.094,0,0,1,.094-.1.1.1,0,0,1,.1.1.1.1,0,0,1-.1.1.1.1,0,0,1-.094-.1" transform="translate(24.867 100.592)" fill="#1a2e35"/>
            <path id="Fill_99" data-name="Fill 99" d="M.141.235a.094.094,0,0,1,.094-.1.1.1,0,0,1,.1.1.1.1,0,0,1-.1.1.1.1,0,0,1-.094-.1" transform="translate(25.244 100.592)" fill="#1a2e35"/>
            <path id="Fill_100" data-name="Fill 100" d="M.989,2.086a.492.492,0,1,1-.757-.63L1.251.234a.318.318,0,1,1,.49.407L.877,1.679h0a.181.181,0,0,1-.27-.228l.665-.8L1.182.576l-.635.763h0l-.031.037,0,0a.294.294,0,0,0,.448.373l0,0,.017-.021L1,1.718H1L1.842.706h0A.437.437,0,0,0,1.169.147h0L.105,1.423l0,0a.611.611,0,0,0,.935.779l0,0L1.9,1.176,1.811,1.1Z" transform="translate(3.758 99.228)" fill="#e1e1e1"/>
            <path id="Fill_101" data-name="Fill 101" d="M19.375.236c0,.042-4.337.077-9.687.077S0,.278,0,.236,4.337.16,9.688.16s9.687.034,9.687.077" transform="translate(13.903 6.169)" fill="#1a2e35"/>
            <path id="Fill_102" data-name="Fill 102" d="M19.375.236c0,.042-4.337.077-9.687.077S0,.278,0,.236,4.337.16,9.688.16s9.687.034,9.687.077" transform="translate(13.903 8.565)" fill="#1a2e35"/>
            <path id="Fill_103" data-name="Fill 103" d="M19.375.236c0,.042-4.337.077-9.687.077S0,.278,0,.236,4.337.16,9.688.16s9.687.034,9.687.077" transform="translate(13.903 10.961)" fill="#1a2e35"/>
            <path id="Fill_104" data-name="Fill 104" d="M19.375.236c0,.042-4.337.077-9.687.077S0,.278,0,.236,4.337.16,9.688.16s9.687.034,9.687.077" transform="translate(13.903 13.357)" fill="#1a2e35"/>
            <path id="Fill_105" data-name="Fill 105" d="M9.722.236a1.884,1.884,0,0,1-.382.03L8.3.29C7.418.3,6.2.313,4.861.313S2.3.3,1.424.29L.382.266A1.884,1.884,0,0,1,0,.236,1.841,1.841,0,0,1,.382.207L1.424.182C2.3.168,3.519.16,4.861.16S7.418.168,8.3.182L9.34.207a1.841,1.841,0,0,1,.382.03" transform="translate(13.903 15.753)" fill="#1a2e35"/>
            <path id="Fill_106" data-name="Fill 106" d="M19.342,10.915H0V5.143A5.143,5.143,0,0,1,5.143,0h14.2a5.142,5.142,0,0,1,5.142,5.143v.629a5.142,5.142,0,0,1-5.142,5.143" transform="translate(7.414 28.37)" fill="#fce5a6"/>
            <path id="Fill_107" data-name="Fill 107" d="M17.041.236c0,.043-3.815.077-8.52.077S0,.279,0,.236,3.814.16,8.521.16s8.52.034,8.52.076" transform="translate(11.136 32.28)" fill="#1a2e35"/>
            <path id="Fill_108" data-name="Fill 108" d="M10.406.237A2.137,2.137,0,0,1,10,.266L8.882.29C7.941.3,6.64.313,5.2.313S2.465.3,1.524.29L.409.266A2.135,2.135,0,0,1,0,.237,2.1,2.1,0,0,1,.409.207L1.524.183C2.465.168,3.766.16,5.2.16S7.941.168,8.882.183L10,.207a2.107,2.107,0,0,1,.409.03" transform="translate(11.136 34.937)" fill="#1a2e35"/>
            <path id="Fill_114" data-name="Fill 114" d="M5.143,10.915H35V5.143A5.143,5.143,0,0,0,29.855,0H5.143A5.143,5.143,0,0,0,0,5.143v.63a5.143,5.143,0,0,0,5.143,5.143" transform="translate(6.448 48.748)" fill="#fce5a6"/>
            <path id="Fill_115" data-name="Fill 115" d="M24.027.236c0,.042-5.379.077-12.013.077S0,.278,0,.236,5.378.16,12.014.16,24.027.194,24.027.236" transform="translate(11.747 52.545)" fill="#1a2e35"/>
            <path id="Fill_116" data-name="Fill 116" d="M24.027.236c0,.043-5.379.077-12.013.077S0,.279,0,.236,5.378.16,12.014.16,24.027.194,24.027.236" transform="translate(11.747 55.133)" fill="#1a2e35"/>
            <path id="Fill_117" data-name="Fill 117" d="M19.342,10.915H0V5.143A5.142,5.142,0,0,1,5.143,0h14.2a5.143,5.143,0,0,1,5.143,5.143v.629a5.143,5.143,0,0,1-5.143,5.143" transform="translate(6.522 69.128)" fill="#fce5a6"/>
            <path id="Fill_118" data-name="Fill 118" d="M18.027.236c0,.043-4.036.077-9.013.077S0,.279,0,.236,4.035.16,9.014.16s9.013.034,9.013.077" transform="translate(9.75 72.858)" fill="#1a2e35"/>
            <path id="Fill_119" data-name="Fill 119" d="M11.592.237a2.643,2.643,0,0,1-.456.029L9.895.29C8.846.3,7.4.313,5.8.313S2.746.3,1.7.29L.456.266A2.643,2.643,0,0,1,0,.237,2.6,2.6,0,0,1,.456.207L1.7.183C2.746.168,4.2.16,5.8.16s3.05.009,4.1.023l1.242.024a2.6,2.6,0,0,1,.456.03" transform="translate(9.75 75.451)" fill="#1a2e35"/>
          </g>
          <g id="Group_3" data-name="Group 3" transform="translate(103 18)">
            <path id="Fill_151" data-name="Fill 151" d="M.347,2.017,2.388,4.058a1.219,1.219,0,0,0,.835.346A1.182,1.182,0,0,0,4.405,3.223a1.232,1.232,0,0,0-.346-.835L2.017.346A1.219,1.219,0,0,0,1.182,0,1.2,1.2,0,0,0,.347.346,1.187,1.187,0,0,0,0,1.181a1.229,1.229,0,0,0,.346.835" transform="translate(84.296 128.719)" fill="#fafafa"/>
            <path id="Fill_153" data-name="Fill 153" d="M4.572.236A10.711,10.711,0,0,1,2.286.36,10.7,10.7,0,0,1,0,.236,10.7,10.7,0,0,1,2.286.113,10.711,10.711,0,0,1,4.572.236" transform="translate(87.48 99.733)" fill="#375a64"/>
            <path id="Fill_155" data-name="Fill 155" d="M22.243,12.676c-.811-2.452.653-11.244-1.273-11.261-2.455-.021-1.749,9.94-1.755,10.831-.005.866-1.293.881-1.245.077C18.039,11.169,18.423-.2,15.966,0c-1.362.11-1.191,2.592-1.191,2.592s.762,11.368-.4,11.423c-1.182.056-1.577-6.576-1.673-8.909-.092-2.237-1.034-3.126-2.062-2.375-1.1.8-.825,7.483-.767,9.725s.322,8.393-2.272,5.4S1.909,13.523.832,13.734-.3,15.529.809,16.045a14.779,14.779,0,0,1,3.128,2.478,14.107,14.107,0,0,1,1.908,2.569,12.322,12.322,0,0,1,1.563,3.769,7.671,7.671,0,0,0,3.871,4.957l-.122,4.165,11.982-1.041.23-7.882A75.144,75.144,0,0,1,25.179,11.4c1.014-5.714.277-5.89-.408-5.857-1.512.072-1.736,9.524-2.528,7.131" transform="translate(85.784 34.631)" fill="#c88976"/>
            <path id="Fill_157" data-name="Fill 157" d="M9.53.023a13.107,13.107,0,0,0-1.645.41,6.362,6.362,0,0,0-3.11,2.489,6.14,6.14,0,0,0-.551,1.1l-.071.182-.146-.122A9.913,9.913,0,0,0,1.23,2.455C.473,2.163-.008,2.06,0,2.021a4.007,4.007,0,0,1,1.289.267A8.909,8.909,0,0,1,4.183,3.873l-.218.06a6.056,6.056,0,0,1,.572-1.163,6.284,6.284,0,0,1,1.6-1.677A6.173,6.173,0,0,1,7.82.244,5.379,5.379,0,0,1,9.066,0a1.426,1.426,0,0,1,.465.02" transform="translate(98.496 55.017)" fill="#bf654e"/>
            <path id="Fill_159" data-name="Fill 159" d="M5.93.01A7.876,7.876,0,0,1,3.021.822,7.871,7.871,0,0,1,0,.751C.007.666,1.351.752,2.986.542S5.9-.07,5.93.01" transform="translate(100.43 63.452)" fill="#bf654e"/>
            <path id="Fill_161" data-name="Fill 161" d="M0,0S6.244,3.19,9.53,7.785s13.2,18.836,13.2,18.836l-1.4-21.615L36.65,3.021s4.458,21.77,5.5,29.3c.975,7.047.568,13.977-6.311,17.758-8.119,4.463-17.339-1.562-20.4-3.85C11.627,43.384,4.6,38.753,4.6,38.753Z" transform="translate(74.205 63.821)" fill="#e1e1e1"/>
            <path id="Fill_163" data-name="Fill 163" d="M25.954,6.35l-4.37-4.884L2.477,0,0,4,6.7,45.8,3.682,88.012h24.9Z" transform="translate(40.555 54.776)" fill="#f7b500"/>
            <path id="Fill_165" data-name="Fill 165" d="M.519,2.678A4.707,4.707,0,0,1,3.214.99C10.091.839,17.117.151,24,0l.263,12.718L20.91,11.152c-.189-1.445-.432-3.17-1.75-3.789a3.941,3.941,0,0,0-2.428-.053A57.133,57.133,0,0,1,9.251,8.6a12,12,0,0,1-7.3-1.592A4.454,4.454,0,0,1,.21,5.122,2.309,2.309,0,0,1,.519,2.678" transform="translate(44.873 130.07)"/>
            <path id="Fill_167" data-name="Fill 167" d="M0,0,12.239,7.921l2.586,8.5L17.3,42.906,14.574,70.018,19.29,86.546H6.992l-.025-6.521-1.309-45.9L4.37,4.884Z" transform="translate(62.139 56.242)" fill="#e1e1e1"/>
            <path id="Fill_169" data-name="Fill 169" d="M.217,35.716a2.441,2.441,0,0,0,.2-.342l.545-1.005c.226-.441.446-1.008.731-1.655.135-.326.245-.687.381-1.064s.277-.775.387-1.205a45.4,45.4,0,0,0,1.57-13.732c-.014-.42-.03-.835-.059-1.248l-.005-.072L3.9,15.365l-1.918-.806.028.2,1.914-1.539.04-.033,0-.047A16.655,16.655,0,0,0,3.1,7.661c-.482-1.6-1.01-2.984-1.472-4.119S.759,1.52.471.917C.327.616.213.384.132.23A1.275,1.275,0,0,0,0,0,1.484,1.484,0,0,0,.1.247l.3.7c.266.612.648,1.507,1.093,2.646s.953,2.523,1.418,4.121a16.738,16.738,0,0,1,.833,5.406l.042-.079-1.92,1.533-.153.122.181.076,1.917.809-.072-.1c.028.405.043.82.058,1.237A46.934,46.934,0,0,1,2.3,30.4c-.1.43-.244.826-.369,1.2s-.233.737-.362,1.064c-.271.646-.478,1.217-.691,1.662q-.316.644-.5,1.022a2.555,2.555,0,0,0-.162.365" transform="translate(68.511 60.979)" fill="#1a2e35"/>
            <path id="Fill_171" data-name="Fill 171" d="M.069,36.184a2.1,2.1,0,0,0,.106-.356q.1-.386.258-1.033c.113-.449.244-1,.37-1.644s.294-1.375.423-2.192.3-1.708.419-2.674c.146-.962.246-2,.362-3.085.2-2.179.329-4.584.332-7.11s-.153-4.931-.358-7.111c-.12-1.088-.224-2.123-.375-3.084-.127-.965-.282-1.858-.429-2.672s-.3-1.547-.432-2.19S.486,1.836.371,1.388Q.206.741.109.356A2.172,2.172,0,0,0,0,0,2.311,2.311,0,0,0,.062.367Q.145.756.281,1.408c.1.451.22,1,.336,1.649s.275,1.376.4,2.193.282,1.706.4,2.67c.141.961.238,1.993.352,3.079.192,2.174.327,4.571.338,7.091S1.976,23,1.792,25.179c-.11,1.085-.2,2.118-.34,3.08-.114.964-.257,1.857-.389,2.672S.791,32.478.673,33.124s-.231,1.2-.33,1.651L.129,35.816a2.177,2.177,0,0,0-.06.367" transform="translate(77.255 77.756)" fill="#1a2e35"/>
            <path id="Fill_173" data-name="Fill 173" d="M0,0A4.956,4.956,0,0,0,.535,1.1,17.869,17.869,0,0,0,2.213,3.534,17.851,17.851,0,0,0,4.266,5.659a4.987,4.987,0,0,0,.976.739,8.472,8.472,0,0,0-.862-.862A26.3,26.3,0,0,1,2.4,3.384,26.247,26.247,0,0,1,.678,1.016,8.545,8.545,0,0,0,0,0" transform="translate(74.358 136.11)" fill="#1a2e35"/>
            <path id="Fill_175" data-name="Fill 175" d="M27.543,51.61a5.239,5.239,0,0,0-4.241.2,11.634,11.634,0,0,1-4.176,1.213c-1.981-.019-4.793-.741-5.83-2.429a22.569,22.569,0,0,1-2.51-6.2C9.207,37.13,8.849,30.757,7.27,23.491a85.7,85.7,0,0,0-3.417-12.3C2.431,7.537,1.116,3.757,0,0,.2,8.523.394,17.076,1.711,25.5c.847,5.416,2.154,10.757,2.866,16.193.61,4.655.78,9.356.949,14.048l4.43,5.415,12.206.249,6.376-8.223Z" transform="translate(40.709 62.321)"/>
            <path id="Fill_177" data-name="Fill 177" d="M19.078.7A15.077,15.077,0,0,0,9.815,11.43C6.232,27.23.1,48.246,0,55.026c-.122,8.635,3.653,14.547,8.582,15.636,3.9.862,39.232-1.072,39.232-1.072l1.67-14.745-28.63-2.633,3.918-21.892L20.9,0Z" transform="translate(4.936 62.756)" fill="#e1e1e1"/>
            <path id="Fill_179" data-name="Fill 179" d="M4.389,8.119,12.3,4.887,21.342,0l.083.262C20.4,2.011,19.32,5.238,19.7,7.227l6.94,36.207L25.067,69.887,22.791,88.152H0L8.267,68.7,4.2,32.167Z" transform="translate(21.445 54.637)" fill="#e1e1e1"/>
            <path id="Fill_181" data-name="Fill 181" d="M4.114,0a1.06,1.06,0,0,0-.061.243c-.037.186-.082.418-.138.7-.118.644-.278,1.519-.473,2.586-.386,2.217-.91,5.223-1.489,8.545C1.4,15.4.9,18.413.526,20.633c-.167,1.072-.3,1.951-.406,2.6-.04.286-.072.52-.1.708a1.006,1.006,0,0,0-.018.25,1.018,1.018,0,0,0,.066-.241c.038-.187.085-.418.142-.7l.48-2.584c.4-2.185.925-5.206,1.495-8.546s1.071-6.364,1.42-8.557c.165-1.072.3-1.952.4-2.6C4.044.673,4.075.438,4.1.25A.948.948,0,0,0,4.114,0" transform="translate(25.827 90.866)" fill="#1a2e35"/>
            <path id="Fill_183" data-name="Fill 183" d="M1.149,0a.317.317,0,0,0-.032.088L1.044.353C.986.587.884.93.791,1.382a32.162,32.162,0,0,0-.6,3.9,44.092,44.092,0,0,0-.15,5.945c.077,2.26.317,4.76.658,7.408l.011.084.083.016,2.586.48-.088-.159c-.147.4-.3.825-.418,1.266a16.123,16.123,0,0,0,.3,8.777A27.677,27.677,0,0,0,6.2,35.64c1.08,1.751,2.056,3.1,2.727,4.03l.785,1.065.209.273A.447.447,0,0,0,10,41.1a.445.445,0,0,0-.059-.1l-.19-.286L9,39.617c-.647-.947-1.6-2.308-2.659-4.064a28.118,28.118,0,0,1-2.972-6.52A16.025,16.025,0,0,1,3.1,20.38c.116-.434.266-.852.41-1.242L3.556,19l-.138-.026L.831,18.5l.094.1C.58,15.958.332,13.467.241,11.215a45.946,45.946,0,0,1,.1-5.923A36.358,36.358,0,0,1,.872,1.4c.08-.454.169-.8.214-1.036L1.138.094A.317.317,0,0,0,1.149,0" transform="translate(37.298 57.187)" fill="#1a2e35"/>
            <path id="Fill_185" data-name="Fill 185" d="M0,6.943V1.166S-.074-.259,1.126.042s.975,2.55.975,2.55.225,8.777-.3,8.7-.727-.75-.727-.75V7.168Z" transform="translate(38.447 87.383)" fill="#e1e1e1"/>
            <path id="Fill_187" data-name="Fill 187" d="M0,.237A20.371,20.371,0,0,0,3.094.355,20.37,20.37,0,0,0,6.189.237,20.257,20.257,0,0,0,3.094.118,20.258,20.258,0,0,0,0,.237" transform="translate(33.455 94.449)" fill="#1a2e35"/>
            <path id="Fill_189" data-name="Fill 189" d="M0,0a4.285,4.285,0,0,0,.647.24A15.144,15.144,0,0,1,2.364.985,13.341,13.341,0,0,1,7.007,4.941a9.833,9.833,0,0,1,.912,1.487,9.416,9.416,0,0,1,.549,1.53,15.343,15.343,0,0,1,.461,2.729c.068.788.08,1.43.086,1.873a5.351,5.351,0,0,0,.017.69,2.984,2.984,0,0,0,.076-.688A17.155,17.155,0,0,0,9.1,10.675,14.332,14.332,0,0,0,8.679,7.9a9.253,9.253,0,0,0-.55-1.573A9.715,9.715,0,0,0,7.2,4.8,12.858,12.858,0,0,0,2.438.835,11.913,11.913,0,0,0,.676.155,3.483,3.483,0,0,0,0,0" transform="translate(22.025 66.885)" fill="#1a2e35"/>
            <path id="Fill_191" data-name="Fill 191" d="M33.864,17.327a1.622,1.622,0,0,1,.013-.278c.018-.2.043-.465.074-.8.074-.721.179-1.744.311-3.029.285-2.616.687-6.3,1.161-10.647l.1.124-10.634-.9L6.92.21A9.359,9.359,0,0,0,1.671,1.246a10.341,10.341,0,0,0-1.254.783L.11,2.263A.519.519,0,0,1,0,2.337,7.1,7.1,0,0,1,1.626,1.161,9.3,9.3,0,0,1,6.935.037l17.978,1.51,10.63.924.115.01-.013.114C35.134,6.94,34.7,10.618,34.4,13.232c-.159,1.282-.285,2.3-.374,3.021-.045.336-.081.6-.108.8a1.562,1.562,0,0,1-.049.274" transform="translate(18.89 115.021)" fill="#1a2e35"/>
            <path id="Fill_193" data-name="Fill 193" d="M.222,15.814a3.071,3.071,0,0,1-.085-.622c-.041-.4-.078-.986-.106-1.708A45.362,45.362,0,0,1,1.025,2.26C1.18,1.554,1.32.987,1.431.6A3.09,3.09,0,0,1,1.624,0a3.112,3.112,0,0,1-.1.62c-.087.443-.2,1-.328,1.674C.929,3.71.618,5.675.423,7.864S.191,12.04.2,13.48c.011.682.021,1.255.028,1.706a3.086,3.086,0,0,1-.011.628" transform="translate(44.843 116.926)" fill="#1a2e35"/>
            <path id="Fill_195" data-name="Fill 195" d="M1.235.06A.627.627,0,0,1,1.586,0,1.592,1.592,0,0,1,2.5.328a1.514,1.514,0,0,1,.625,1.3A1.665,1.665,0,0,1,2.117,3.077,1.637,1.637,0,0,1,.4,2.671a1.43,1.43,0,0,1-.342-1.4A1.486,1.486,0,0,1,.6.46C.795.325.924.3.928.312S.823.386.665.534a1.512,1.512,0,0,0-.438.777,1.264,1.264,0,0,0,.335,1.2,1.431,1.431,0,0,0,1.467.335A1.459,1.459,0,0,0,2.9,1.617,1.353,1.353,0,0,0,2.4.464,1.649,1.649,0,0,0,1.578.1,2.454,2.454,0,0,1,1.235.06" transform="translate(47.883 128.057)" fill="#1a2e35"/>
            <path id="Fill_197" data-name="Fill 197" d="M38.2,0s-.049.034-.15.092L37.594.35l-1.773.99L29.084,5.068l0,0h0L17.726,9.826a12.168,12.168,0,0,0-5.714,4.722,16.19,16.19,0,0,0-1.8,3.65,18.953,18.953,0,0,0-.981,4.147v.016c-2.1,8.98-4.483,19.286-6.79,30.235q-.744,3.533-1.4,6.988c-.114.575-.211,1.151-.315,1.722S.5,62.45.433,63.018a18.547,18.547,0,0,0-.173,3.4,17.066,17.066,0,0,0,1.5,6.42,12.4,12.4,0,0,0,1.69,2.717A9.707,9.707,0,0,0,5.82,77.58,10.089,10.089,0,0,0,11.593,79l5.747-.116c3.708-.092,7.161-.2,10.314-.306l14.932-.546,4.06-.154,1.056-.035c.238-.007.36,0,.36,0s-.121.014-.359.029l-1.055.06-4.058.2c-3.525.163-8.625.389-14.93.624-3.153.117-6.607.235-10.315.336l-5.749.129A10.3,10.3,0,0,1,5.7,77.774a9.91,9.91,0,0,1-2.429-2.067A12.619,12.619,0,0,1,1.548,72.94,17.289,17.289,0,0,1,.019,66.431a18.81,18.81,0,0,1,.173-3.447c.072-.578.184-1.145.284-1.719s.2-1.15.315-1.725q.655-3.457,1.4-6.994C4.5,41.593,6.894,31.289,9.01,22.311l0,.016a19.114,19.114,0,0,1,1-4.2,16.371,16.371,0,0,1,1.835-3.691,12.344,12.344,0,0,1,5.812-4.777L29.029,4.952l-.007,0,6.767-3.674L37.577.319l.461-.242C38.142.023,38.2,0,38.2,0" transform="translate(4.692 54.512)" fill="#1a2e35"/>
            <path id="Fill_199" data-name="Fill 199" d="M0,3.368H10.8V0H0Z" transform="translate(71.737 92.48)" fill="#1a2e35"/>
            <path id="Fill_201" data-name="Fill 201" d="M71.824.479,35.884,38.814.831,39.03,0,37.437,34.55,0Z" transform="translate(50.664 98.198)" fill="#1a2e35"/>
            <path id="Fill_202" data-name="Fill 202" d="M10.361,1.4s2.335-.016,3.026.814c.812.975,2.358,3.164-1.028,8.749-1.352,2.232-7.981,9.939-10.708,17.8C-.9,36.112.265,38.543.265,38.543l25.291-.789.493-.914S37.046,7.05,34.131,1.4c-1.341-2.6-23.95-.954-23.771,0" transform="translate(78.16 96.8)" fill="#e1e1e1"/>
            <path id="Fill_203" data-name="Fill 203" d="M27.238,37.157.029,37.383C-.3,30.491,2.1,25.491,5.654,19.578c1.363-2.265,3.223-4.2,4.58-6.469a17.47,17.47,0,0,0,2.435-7.865,4.647,4.647,0,0,0-.68-3.175c-.68-.873-3.1-.922-4.15-.494a7.926,7.926,0,0,1,4-1.477c2.2-.183,20.182-.06,23.53-.035a10.718,10.718,0,0,1,2.387.387C40.2,1.715,40.7,5.036,40.355,7.426c-.327,2.268-1.731,4.4-3.494,6.791a22.566,22.566,0,0,0-1.4,2.137C33.6,19.572,28.474,28.6,27.553,31.711a14.267,14.267,0,0,0-.315,5.447" transform="translate(80.682 96.623)" fill="#fafafa"/>
            <path id="Fill_204" data-name="Fill 204" d="M27.292,37.157l-6.553.055-12.514.1-5.252.044-1.76.015a4.217,4.217,0,0,1-.982.009c-.025-.007-.13.02-.148,0,0,0,.038-.5.036-.562q-.009-.357-.007-.713,0-.694.044-1.387a23.638,23.638,0,0,1,.919-5.228,41.945,41.945,0,0,1,4.576-9.647C6.658,18.17,7.9,16.673,9.058,15.1a19.687,19.687,0,0,0,2.674-4.818A16.912,16.912,0,0,0,12.8,4.932c.032-1.174-.138-2.779-1.371-3.3a4.7,4.7,0,0,0-1.773-.314,3.407,3.407,0,0,0-1.679.226c-.1.078-.046.1.024.087a.807.807,0,0,0,.161-.113c.184-.125.377-.24.573-.346a8.117,8.117,0,0,1,2.1-.787A21.86,21.86,0,0,1,15.38.136C20.043.1,24.707.121,29.37.145q2.692.013,5.383.032a12.714,12.714,0,0,1,2.522.242,4.232,4.232,0,0,1,2.776,3.028,8.935,8.935,0,0,1,.239,4.38,13.7,13.7,0,0,1-2.432,5.032c-.955,1.381-1.934,2.713-2.771,4.172q-.871,1.518-1.725,3.045c-1.367,2.442-2.711,4.9-3.957,7.4A17.813,17.813,0,0,0,27.135,34.2a14.074,14.074,0,0,0,.1,3.034c.011.075.126.043.114-.031a13.031,13.031,0,0,1,1.015-7.237c1.067-2.434,2.335-4.784,3.6-7.116q1.734-3.189,3.553-6.332c1.764-3.047,4.6-5.706,4.99-9.376.243-2.291-.286-5.65-2.694-6.694a7.115,7.115,0,0,0-2.6-.385C34.559.056,33.9.053,33.25.049Q26.378,0,19.506,0c-1.974,0-3.949,0-5.923.04a10.108,10.108,0,0,0-5.1,1.136,5.2,5.2,0,0,0-.628.417c-.045.036,0,.119.057.1a5.152,5.152,0,0,1,3.237-.044c1.432.469,1.586,2.174,1.528,3.47a17.4,17.4,0,0,1-2.881,8.726c-.842,1.28-1.815,2.466-2.728,3.695A37.745,37.745,0,0,0,4.717,21.2a40.869,40.869,0,0,0-3.425,7.217A24.626,24.626,0,0,0,.024,37.442a.06.06,0,0,0,.059.059l9.194-.077L23.93,37.3l3.362-.028a.059.059,0,0,0,0-.118" transform="translate(80.628 96.564)" fill="#1a2e35"/>
            <path id="Fill_205" data-name="Fill 205" d="M21.433.236c0,.068-4.8.123-10.716.123S0,.3,0,.236,4.8.113,10.717.113,21.433.168,21.433.236" transform="translate(84.878 127.862)" fill="#1a2e35"/>
            <path id="Fill_206" data-name="Fill 206" d="M21.433.236c0,.068-4.8.123-10.716.123S0,.3,0,.236,4.8.113,10.717.113,21.433.168,21.433.236" transform="translate(85.479 124.279)" fill="#1a2e35"/>
            <path id="Fill_207" data-name="Fill 207" d="M21.433.237c0,.068-4.8.123-10.716.123S0,.3,0,.237,4.8.113,10.717.113,21.433.168,21.433.237" transform="translate(88.359 120.432)" fill="#1a2e35"/>
            <path id="Fill_208" data-name="Fill 208" d="M21.433.237c0,.068-4.8.123-10.716.123S0,.3,0,.237,4.8.113,10.717.113,21.433.168,21.433.237" transform="translate(90.133 116.918)" fill="#1a2e35"/>
            <path id="Fill_209" data-name="Fill 209" d="M21.433.236c0,.069-4.8.123-10.716.123S0,.3,0,.236,4.8.113,10.717.113,21.433.168,21.433.236" transform="translate(91.316 113.704)" fill="#1a2e35"/>
            <path id="Fill_210" data-name="Fill 210" d="M21.433.236c0,.069-4.8.123-10.716.123S0,.3,0,.236,4.8.113,10.717.113,21.433.168,21.433.236" transform="translate(94.207 109.481)" fill="#1a2e35"/>
            <path id="Fill_211" data-name="Fill 211" d="M21.433.236c0,.069-4.8.123-10.716.123S0,.3,0,.236,4.8.113,10.717.113,21.433.168,21.433.236" transform="translate(96.966 105.44)" fill="#1a2e35"/>
            <path id="Fill_212" data-name="Fill 212" d="M21.433.237c0,.068-4.8.123-10.716.123S0,.3,0,.237,4.8.113,10.717.113,21.433.168,21.433.237" transform="translate(96.769 101.596)" fill="#1a2e35"/>
            <path id="Fill_213" data-name="Fill 213" d="M33.72,0a.879.879,0,0,1,.149.106l.422.335,1.628,1.325.043.035-.039.043C33,5.044,26.658,11.881,19.3,19.768,14.222,25.332,9.333,30.1,5.8,33.535c-1.772,1.717-3.215,3.1-4.218,4.044L.417,38.664l-.306.277A.636.636,0,0,1,0,39.03a.567.567,0,0,1,.093-.107l.29-.295L1.51,37.51l4.164-4.1c3.508-3.471,8.369-8.247,13.447-13.81C26.478,11.713,32.858,4.914,35.845,1.771l0,.078L34.255.484l-.4-.355A.826.826,0,0,1,33.72,0" transform="translate(51.495 98.198)" fill="#375a64"/>
            <path id="Fill_214" data-name="Fill 214" d="M1.433,4.272l5.129,0s3.468-3.022,4.257-3.257A55.251,55.251,0,0,1,16.73,0L13.82,3.154h0c-.672.729-1.913,1.385-1.177,1.385h5.335S23.438,1.92,24.25,2.4c.681.4.919,1.128.221,2.14s-5.481,3.4-6.033,3.588l-1.564.46,1.472.46L25.3,6.616c.452-.081,1.076-.155,1.279.106a.929.929,0,0,1-.037,1.345A29.379,29.379,0,0,1,23.4,10.543s1.111,1.632.191,2.46S20,16.314,20,16.314a3.919,3.919,0,0,1-1.1,2.024c-.828.644-9.935.644-10.579.644S4,16.866,4,16.866l-4-.294Z" transform="translate(52.956 115.024)" fill="#c88976"/>
            <path id="Fill_215" data-name="Fill 215" d="M0,2.636A2.835,2.835,0,0,0,1,2.77a3.038,3.038,0,0,0,1.089-.19A6.109,6.109,0,0,0,3.27,1.948c.789-.513,1.494-.987,2-1.339A4.643,4.643,0,0,0,6.065,0a4.64,4.64,0,0,0-.877.48c-.526.32-1.246.775-2.033,1.287a6.732,6.732,0,0,1-1.14.627A3.166,3.166,0,0,1,.992,2.62C.387,2.646,0,2.6,0,2.636" transform="translate(70.255 125.562)" fill="#bf654e"/>
            <path id="Fill_216" data-name="Fill 216" d="M0,1.655a1.118,1.118,0,0,0,.692.388A2.566,2.566,0,0,0,2.57,1.727,7.728,7.728,0,0,0,4.095.593,2.361,2.361,0,0,0,4.613,0,25.1,25.1,0,0,1,2.468,1.54,2.639,2.639,0,0,1,.723,1.9,4.178,4.178,0,0,1,0,1.655" transform="translate(69.836 129.951)" fill="#bf654e"/>
            <path id="Fill_217" data-name="Fill 217" d="M0,.592A3.678,3.678,0,0,0,1.442.48,3.669,3.669,0,0,0,2.81.012,7.515,7.515,0,0,0,1.4.272,7.527,7.527,0,0,0,0,.592" transform="translate(67.258 123.476)" fill="#bf654e"/>
            <path id="Fill_218" data-name="Fill 218" d="M17.845,5.283A10.494,10.494,0,0,0,11.539.359,10.494,10.494,0,0,0,3.606,1.39C1.566,2.572-.129,4.708.008,7.062c.129,2.219,1.782,4.01,3.339,5.595A5.637,5.637,0,0,0,.433,19.4a7.054,7.054,0,0,0,6.05,4.617,9.5,9.5,0,0,0,7.3-2.788,14.737,14.737,0,0,0,3.82-6.987" transform="translate(14.6 16.445)" fill="#1a2e35"/>
            <path id="Fill_219" data-name="Fill 219" d="M8.481,13.9a4.345,4.345,0,0,1-1.361.344A6.383,6.383,0,0,1,3.4,13.47a6.508,6.508,0,0,1-2.039-1.7A6.308,6.308,0,0,1,.117,8.98,7.563,7.563,0,0,1,2.067,2.468,8.465,8.465,0,0,1,8.447.008a7.765,7.765,0,0,1,5.189,2.14,5.193,5.193,0,0,1,1.532,3.459,4,4,0,0,1-.1,1.041,2.376,2.376,0,0,1-.074.261c-.019.058-.031.087-.035.086a5.821,5.821,0,0,0,.116-1.383A5.172,5.172,0,0,0,13.512,2.27,7.644,7.644,0,0,0,8.438.234a8.286,8.286,0,0,0-6.195,2.4,7.37,7.37,0,0,0-1.9,6.3,6.136,6.136,0,0,0,1.178,2.7A6.391,6.391,0,0,0,3.48,13.318a6.429,6.429,0,0,0,3.631.832,10.128,10.128,0,0,0,1.37-.248" transform="translate(15.477 13.554)" fill="#1a2e35"/>
            <path id="Fill_220" data-name="Fill 220" d="M9.191.7C9.2.714,9.084.788,8.869.91a5.952,5.952,0,0,1-.958.427A7.992,7.992,0,0,1,6.4,1.716a9.281,9.281,0,0,1-1.91.069,9.262,9.262,0,0,1-1.879-.356A8.009,8.009,0,0,1,1.17.827,5.923,5.923,0,0,1,.287.26C.092.107-.01.017,0,0,.028-.034.464.294,1.248.671a9.2,9.2,0,0,0,1.425.54,10.092,10.092,0,0,0,1.833.328,10.114,10.114,0,0,0,1.861-.048,9.186,9.186,0,0,0,1.489-.319C8.688.917,9.17.658,9.191.7" transform="translate(17.816 28.815)" fill="#375a64"/>
            <path id="Fill_221" data-name="Fill 221" d="M0,2.679a1.951,1.951,0,0,1,.19-.567,3.217,3.217,0,0,1,1-1.294,4.721,4.721,0,0,1,2.3-.774,11.5,11.5,0,0,1,2.96.14A15.63,15.63,0,0,1,11.517,1.93a13.9,13.9,0,0,1,1.373.871,2.626,2.626,0,0,1,.46.38,2.953,2.953,0,0,1-.514-.3c-.326-.2-.8-.486-1.4-.8A16.92,16.92,0,0,0,6.415.427,11.923,11.923,0,0,0,3.516.27,4.694,4.694,0,0,0,1.3.958a3.363,3.363,0,0,0-1.017,1.2A4.761,4.761,0,0,1,0,2.679" transform="translate(14.598 21.222)" fill="#375a64"/>
            <path id="Fill_222" data-name="Fill 222" d="M13.295.611c.008,0-.017.059-.07.159a4.938,4.938,0,0,1-.255.427,7.636,7.636,0,0,1-1.191,1.388A8.113,8.113,0,0,1,9.5,4.064,8.127,8.127,0,0,1,6.24,4.71,7.857,7.857,0,0,1,2.991,4,6.013,6.013,0,0,1,.852,2.321,4,4,0,0,1,.06.67,2.581,2.581,0,0,1,0,.174C0,.06,0,0,.009,0,.037,0,.04.238.153.647A4.2,4.2,0,0,0,.987,2.212a6.036,6.036,0,0,0,2.1,1.579,7.847,7.847,0,0,0,3.155.673,8.115,8.115,0,0,0,3.171-.61,8.313,8.313,0,0,0,2.25-1.4A11.762,11.762,0,0,0,13.295.611" transform="translate(15.738 32.77)" fill="#375a64"/>
            <path id="Fill_223" data-name="Fill 223" d="M15.025,1.974a4.181,4.181,0,0,1-.516.628c-.351.388-.874.937-1.564,1.572-.344.318-.734.653-1.168,1a8.19,8.19,0,0,1-1.482.97,8.04,8.04,0,0,1-3.959.77A6.71,6.71,0,0,1,2.53,5.6a6.9,6.9,0,0,1-2-2.621A6.048,6.048,0,0,1,.006.813a3.386,3.386,0,0,1,.015-.6A.679.679,0,0,1,.054,0,.693.693,0,0,1,.071.211,4.934,4.934,0,0,0,.1.807,6.436,6.436,0,0,0,.688,2.9,6.885,6.885,0,0,0,2.67,5.417,6.579,6.579,0,0,0,6.351,6.665,7.958,7.958,0,0,0,10.2,5.937a8.2,8.2,0,0,0,1.456-.928c.434-.331.827-.656,1.177-.964.7-.614,1.239-1.142,1.61-1.508a6.806,6.806,0,0,1,.585-.562" transform="translate(14.907 33.865)" fill="#375a64"/>
            <path id="Fill_224" data-name="Fill 224" d="M6.453,1.261l.69.542A2.6,2.6,0,0,0,4.352.014,4.055,4.055,0,0,0,1.473,2,9.766,9.766,0,0,0,.318,5.414a10.384,10.384,0,0,0,.235,5.954c.789,1.855,2.827,3.312,4.784,2.825s3.038-2.6,3.328-4.59A11.129,11.129,0,0,0,6.453,1.261" transform="translate(27.454 20.186)" fill="#2ad3e7"/>
            <path id="Fill_225" data-name="Fill 225" d="M3.623.293A2.974,2.974,0,0,1,1.754.7,3.954,3.954,0,0,1,.416.4C.069.265-.032.007.008,0A1.657,1.657,0,0,0,.477.242,5.823,5.823,0,0,0,1.766.454,13.106,13.106,0,0,0,3.623.293" transform="translate(27.576 30.138)" fill="#1a2e35"/>
            <path id="Fill_226" data-name="Fill 226" d="M4.526.307A10.491,10.491,0,0,1,2.259.359,10.5,10.5,0,0,1,0,.165,10.567,10.567,0,0,1,2.267.113,10.505,10.505,0,0,1,4.526.307" transform="translate(27.633 26.621)" fill="#1a2e35"/>
            <path id="Fill_227" data-name="Fill 227" d="M3,.379A6.2,6.2,0,0,1,1.477.285,3.651,3.651,0,0,0,.439.342C.178.4.02.467,0,.433S.118.283.388.176a2.568,2.568,0,0,1,1.1-.137A4.007,4.007,0,0,1,3,.379" transform="translate(28.404 22.801)" fill="#1a2e35"/>
            <path id="Fill_228" data-name="Fill 228" d="M.657,13.7C.6,11.723,2.432,10.193,4.275,9.468s3.892-1,5.535-2.1c1.454-.979,2.432-2.506,3.664-3.755A12.445,12.445,0,0,1,25.361.409,12.444,12.444,0,0,1,33.977,9.2c.708,2.819.224,6.153-2,8.027-2.58,2.174-6.4,1.691-9.709,1.015s-7.046-1.343-9.806.6c-1.664,1.171-2.618,3.075-3.636,4.837S6.535,27.239,4.611,27.9.075,27.42,0,25.387" transform="translate(35.548 0)" fill="#1a2e35"/>
            <path id="Fill_229" data-name="Fill 229" d="M6.627,8.848c.218,1.66-.983,3.145-2.178,4.317S1.9,15.579,1.692,17.239c-.247,1.939,1.169,3.85.758,5.761-.261,1.213-1.2,2.148-1.777,3.249a6.9,6.9,0,0,0-.352,5.087c.492,1.671,1.278,5.4,2.439,6.7a26.822,26.822,0,0,0,13.024,7.77,50.41,50.41,0,0,0,14.384.79c3.937-.242,8.465-.061,11.746-5.478,1.7-2.805,2.541-6.535,3.444-9.688.778-2.715,1.451-5.622.642-8.328-.471-1.576-1.42-2.978-1.884-4.557-.58-1.972-.369-4.081-.6-6.123A14.048,14.048,0,0,0,23.526,1.331" transform="translate(29.712 5.941)" fill="#1a2e35"/>
            <path id="Fill_230" data-name="Fill 230" d="M.224.149.249.323.224.149" transform="translate(42.807 59.718)" fill="#c88976"/>
            <path id="Fill_231" data-name="Fill 231" d="M30.287,12C29.918,6.354,26.159-.571,20.529.037L2.958,4.52A3.314,3.314,0,0,0,0,7.887L1.933,49.341a5.564,5.564,0,0,0,.489,2.041C3.726,54.26,8.062,61.57,17.479,58.61c2.3-.724,3.356-3.244,3.813-5.837,0-.308.127-.579.131-.873a27.759,27.759,0,0,0,.069-5.822c.033-3.422.029-4.826.031-4.794,0,0,7.217-1.214,8.691-10.637.733-4.686.481-12.366.072-18.643" transform="translate(41.055 9.589)" fill="#c88976"/>
            <path id="Fill_232" data-name="Fill 232" d="M.235.225c0,.032,0,.027,0,0" transform="translate(42.821 59.816)" fill="#c88976"/>
            <path id="Fill_233" data-name="Fill 233" d="M2.411,1.089A1.208,1.208,0,0,1,1.248,2.31,1.155,1.155,0,0,1,0,1.224,1.208,1.208,0,0,1,1.161,0,1.156,1.156,0,0,1,2.411,1.089" transform="translate(66.101 26.626)" fill="#1a2e35"/>
            <path id="Fill_234" data-name="Fill 234" d="M4.774,1.265C4.626,1.422,3.708.747,2.408.753c-1.3-.012-2.251.659-2.392.5C-.054,1.183.1.9.513.595A3.316,3.316,0,0,1,2.428,0,3.184,3.184,0,0,1,4.312.6c.4.306.536.591.463.661" transform="translate(64.91 24.327)" fill="#1a2e35"/>
            <path id="Fill_235" data-name="Fill 235" d="M2.41,1.089A1.207,1.207,0,0,1,1.248,2.31,1.155,1.155,0,0,1,0,1.224,1.209,1.209,0,0,1,1.162,0,1.155,1.155,0,0,1,2.41,1.089" transform="translate(53.218 26.626)" fill="#1a2e35"/>
            <path id="Fill_236" data-name="Fill 236" d="M4.775,1.265C4.626,1.422,3.708.747,2.409.754c-1.3-.012-2.251.658-2.392.5C-.053,1.183.1.9.514.595A3.313,3.313,0,0,1,2.428,0,3.191,3.191,0,0,1,4.312.6c.4.306.536.591.463.661" transform="translate(52.132 24.598)" fill="#1a2e35"/>
            <path id="Fill_237" data-name="Fill 237" d="M.633,10.83a8.6,8.6,0,0,1,2.11-.386c.332-.035.646-.1.7-.328a1.692,1.692,0,0,0-.224-.983q-.471-1.2-.987-2.525A43.458,43.458,0,0,1,.014,0,43.466,43.466,0,0,1,2.76,6.413c.33.887.645,1.732.946,2.541a1.923,1.923,0,0,1,.175,1.3.831.831,0,0,1-.544.486,2.256,2.256,0,0,1-.564.08,8.465,8.465,0,0,1-2.14.008" transform="translate(61.013 24.662)" fill="#1a2e35"/>
            <path id="Fill_238" data-name="Fill 238" d="M12.622,3.337A23.959,23.959,0,0,1,0,0S3.186,6.514,12.612,5.611Z" transform="translate(49.956 47.536)" fill="#bf654e"/>
            <path id="Fill_239" data-name="Fill 239" d="M3.876.88a2.341,2.341,0,0,0-2.1-.865A2.136,2.136,0,0,0,.3.81,1.355,1.355,0,0,0,.2,2.359a1.571,1.571,0,0,0,1.7.427,4.92,4.92,0,0,0,1.66-1,1.439,1.439,0,0,0,.37-.385.434.434,0,0,0,0-.484" transform="translate(57.227 37.747)" fill="#bf654e"/>
            <path id="Fill_240" data-name="Fill 240" d="M.21,0C.421-.013.427,1.4,1.637,2.4s2.711.841,2.723,1.038c.02.089-.335.275-.969.293a3.514,3.514,0,0,1-2.273-.786A3.061,3.061,0,0,1,.011.932c-.055-.59.1-.94.2-.932" transform="translate(57.613 36.4)" fill="#1a2e35"/>
            <path id="Fill_241" data-name="Fill 241" d="M5.931.969c-.128.353-1.426.189-2.95.376C1.452,1.5.224,1.951.02,1.634-.07,1.483.143,1.15.64.806A4.939,4.939,0,0,1,2.833.034,4.942,4.942,0,0,1,5.143.3c.561.224.843.5.788.67" transform="translate(51.556 22.617)" fill="#1a2e35"/>
            <path id="Fill_242" data-name="Fill 242" d="M4.427,1.341c-.228.3-1.124-.009-2.2-.021-1.076-.05-1.988.2-2.2-.105C-.065,1.065.078.77.476.489A3.046,3.046,0,0,1,2.264,0a3.039,3.039,0,0,1,1.756.59c.381.3.507.606.406.75" transform="translate(64.771 20.49)" fill="#1a2e35"/>
            <path id="Fill_243" data-name="Fill 243" d="M0,37.518a8.507,8.507,0,0,0,7.347-2.073,8.507,8.507,0,0,0,2.6-7.177c-.293-2.313-1.54-4.667-.738-6.856,1.06-2.895,5.119-3.786,6.2-6.675.626-1.679.064-3.643.774-5.288.667-1.547,2.3-2.438,3.88-3.011a16.179,16.179,0,0,0,4.613-2C26,3.4,26.834,1.45,25.976,0A89.3,89.3,0,0,0,5.394,5,7.946,7.946,0,0,0,1.333,7.632C.371,9.077.417,10.946.5,12.68L1.682,38.052" transform="translate(37.436 7.58)" fill="#1a2e35"/>
            <path id="Fill_244" data-name="Fill 244" d="M6.217,45.552a.586.586,0,0,1-.152-.1l-.419-.319c-.364-.285-.9-.71-1.56-1.292a16.611,16.611,0,0,1-2.215-2.331A8.69,8.69,0,0,1,.11,37.635a5.9,5.9,0,0,1,1.215-4.957,19.063,19.063,0,0,1,2.194-1.871,5.122,5.122,0,0,0,1.712-2.335c.7-1.92.386-4.143.655-6.416a12.769,12.769,0,0,1,2.67-6.49,8.808,8.808,0,0,1,2.793-2.283,17.221,17.221,0,0,1,3.3-1.112,7.669,7.669,0,0,0,2.892-1.425,11.366,11.366,0,0,0,2.1-2.315c1.183-1.68,2.058-3.471,3.185-4.964A10.807,10.807,0,0,1,24.679,1.5,7.1,7.1,0,0,1,26.88.3a4.688,4.688,0,0,1,4.183.417,3.853,3.853,0,0,1,1.486,2.82,2.809,2.809,0,0,1-.567,1.939,1.735,1.735,0,0,1-.384.368c-.1.072-.146.105-.15.1s.038-.051.123-.132a2.043,2.043,0,0,0,.345-.386,2.8,2.8,0,0,0,.473-1.878A3.7,3.7,0,0,0,30.929.9,4.458,4.458,0,0,0,26.974.575a6.825,6.825,0,0,0-2.093,1.17A10.521,10.521,0,0,0,23.1,3.671c-1.092,1.469-1.95,3.255-3.149,4.98a11.693,11.693,0,0,1-2.163,2.4,8.066,8.066,0,0,1-3.026,1.507,17.034,17.034,0,0,0-3.223,1.09,8.43,8.43,0,0,0-2.662,2.18,12.422,12.422,0,0,0-2.587,6.277c-.274,2.2.044,4.454-.7,6.5a5.49,5.49,0,0,1-1.838,2.485,19.188,19.188,0,0,0-2.171,1.82A5.6,5.6,0,0,0,.4,37.588a8.525,8.525,0,0,0,1.658,3.786,17.331,17.331,0,0,0,2.138,2.35c.64.6,1.158,1.041,1.5,1.347a4.6,4.6,0,0,1,.518.481" transform="translate(31.809 2.785)" fill="#375a64"/>
            <path id="Fill_245" data-name="Fill 245" d="M8.021,24.157a2.257,2.257,0,0,0,.551-.9,3.476,3.476,0,0,0-.538-2.765c-.327-.524-.766-1.045-1.212-1.635a5.718,5.718,0,0,1-1.085-2.107,7.44,7.44,0,0,1-.105-2.616c.1-.9.281-1.816.4-2.755a10.731,10.731,0,0,0-.616-5.225A11.706,11.706,0,0,0,3.163,2.459,10.9,10.9,0,0,0,.924.566C.338.193-.012.025,0,0A1.245,1.245,0,0,1,.26.11,6.4,6.4,0,0,1,.975.484,10.178,10.178,0,0,1,3.29,2.341,11.618,11.618,0,0,1,5.625,6.07a10.824,10.824,0,0,1,.648,5.336c-.119.953-.3,1.865-.4,2.751a7.27,7.27,0,0,0,.086,2.535,5.566,5.566,0,0,0,1.029,2.04c.432.587.87,1.122,1.2,1.665a3.522,3.522,0,0,1,.481,2.886,1.832,1.832,0,0,1-.421.7.93.93,0,0,1-.221.177" transform="translate(68.234 9.453)" fill="#1a2e35"/>
            <path id="Fill_246" data-name="Fill 246" d="M161.9.113C72.333.114,0,.168,0,.236S72.333.359,161.9.359Z" transform="translate(0 142.844)" fill="#1a2e35"/>
            <path id="Fill_248" data-name="Fill 248" d="M0,46.307H40.419V0H0Z" transform="translate(117.109 115.132)" fill="#ececec"/>
          </g>
          <g id="Group_329" data-name="Group 329" transform="translate(220 133)">
            <path id="Fill_249" data-name="Fill 249" d="M40.542,46.431s0-.077-.006-.223,0-.365-.006-.646c0-.573-.007-1.412-.013-2.5-.007-2.191-.017-5.391-.029-9.454-.013-8.12-.032-19.682-.054-33.481l.108.108L.128.246h0L.246.123C.239,17.2.232,33.12.227,46.431l-.1-.1,29.3.054,8.2.026,2.164.012c.49,0,.749.011.749.011s-.243.008-.727.011l-2.144.012-8.177.026-29.37.054h-.1v-.1C.013,33.12.007,17.2,0,.123V0H.128L40.542.014h.109V.123c-.022,13.828-.041,25.414-.055,33.551-.012,4.052-.022,7.244-.028,9.43-.006,1.082-.01,1.914-.013,2.483,0,.275,0,.486-.006.634s-.007.21-.007.21" transform="translate(0.329 0.434)" fill="#1a2e35"/>
            <path id="Fill_251" data-name="Fill 251" d="M2.169,3.67c.5-.744.819-3.816,1.464-3.644.822.22-.333,3.482-.413,3.78s.351.413.408.141c.084-.392,1-4.224,1.807-3.931.445.162.159.975.159.975s-1.3,3.727-.92,3.853S5.807,2.794,6.055,2.023c.237-.739.633-.949.908-.6.293.369-.415,2.575-.641,3.32s-.882,2.774.261,2.014A3.592,3.592,0,0,1,9.224,6c.34.17.213.7-.206.774a5.145,5.145,0,0,0-1.274.539,4.925,4.925,0,0,0-.874.682A4.276,4.276,0,0,0,6,9.11a2.657,2.657,0,0,1-1.75,1.3l-.343,1.4L0,10.358.65,7.7a26.023,26.023,0,0,0,.655-4.73c.189-2,.451-1.993.677-1.919.5.164-.3,3.342.187,2.615" transform="translate(6.56 13.264)" fill="#ffbf9d"/>
            <path id="Fill_253" data-name="Fill 253" d="M0,0A4.5,4.5,0,0,1,.512.29a2.205,2.205,0,0,1,.809,1.119,2.117,2.117,0,0,1,.082.42l.007.068.06-.027A3.435,3.435,0,0,1,2.549,1.58c.28-.027.45-.017.451-.032a1.413,1.413,0,0,0-.455-.03,3.077,3.077,0,0,0-1.113.263l.068.04a2.092,2.092,0,0,0-.084-.441A2.179,2.179,0,0,0,1.036.673,2.147,2.147,0,0,0,.552.233a1.9,1.9,0,0,0-.394-.2A.491.491,0,0,0,0,0" transform="translate(8.015 19.517)" fill="#ff9a6c"/>
            <path id="Fill_255" data-name="Fill 255" d="M0,0a2.739,2.739,0,0,0,.9.54A2.74,2.74,0,0,0,1.913.8C1.919.767,1.462.672.936.451S.017-.023,0,0" transform="translate(7.794 22.484)" fill="#ff9a6c"/>
            <path id="Fill_257" data-name="Fill 257" d="M4.523,20.954a4.251,4.251,0,0,0,2.334-.985l6.3-5.329L13.1,20.782l-1.248.089.351,4.565H31.719l.008-.108a6.916,6.916,0,0,0,2.2-4.244c.474-3.038.651-7.994,1.075-11.5.3-2.464-.245-5.656-2.437-6.82L30.87,2.1h0L25.538,0,18.689.315,14.115,1.6c-1.268.482-2.362,2-3.141,3.121l-3.812,5.3A63.734,63.734,0,0,1,8.884,3.7L4.219,1.775S-.587,12.458.06,17.073c.538,3.838,4.463,3.881,4.463,3.881" transform="translate(2.134 21.129)" fill="#ffc107"/>
            <path id="Fill_259" data-name="Fill 259" d="M13.133,3.206a4.69,4.69,0,0,1,1.288,4.637l-.01.035a16.046,16.046,0,0,1-2.843,5.554c-.115.145-.3.3-.461.22a.406.406,0,0,1-.164-.331,13.423,13.423,0,0,1,.168-3.266A8.126,8.126,0,0,0,11.017,6.8a3.172,3.172,0,0,0-2.152-2.27,3.464,3.464,0,0,0-2.335.418c-.717.371-1.353.878-2.039,1.306a4.453,4.453,0,0,1-2.258.788A2.114,2.114,0,0,1,.255,5.9a1.408,1.408,0,0,1,.9-1.907A1.489,1.489,0,0,1,0,2.472s.047-1.23,1.831-1.146A1.408,1.408,0,0,1,3.862.147c1.609.6,1.823,1.081,4.359.514,0,0,3.42-.831,4.466,2.116Z" transform="translate(16.77 2.18)" fill="#1a2e35"/>
            <path id="Fill_261" data-name="Fill 261" d="M11.477,6.58,9.895,18.736a3.646,3.646,0,1,1-7.23-.947c.12-.915.218-1.678.224-1.773A3.716,3.716,0,0,1,.007,12.23c.084-1.494.509-4.558.926-7.324A5.768,5.768,0,0,1,7.035.014l.3.021c3.2.41,4.642,3.357,4.144,6.546" transform="translate(17.999 3.753)" fill="#ffbf9d"/>
            <path id="Fill_263" data-name="Fill 263" d="M.063.867A7.2,7.2,0,0,0,4.169,0,3.815,3.815,0,0,1,0,1.666Z" transform="translate(20.822 18.858)" fill="#ff9a6c"/>
            <path id="Fill_265" data-name="Fill 265" d="M.006.407C.056.468.408.244.882.278s.806.3.862.241C1.771.495,1.723.387,1.579.266A1.209,1.209,0,0,0,.894,0a1.157,1.157,0,0,0-.7.174c-.154.1-.211.2-.185.23" transform="translate(19.315 10.555)" fill="#1a2e35"/>
            <path id="Fill_267" data-name="Fill 267" d="M.006.407C.056.468.408.244.882.278s.807.3.862.241C1.771.495,1.723.387,1.578.266A1.213,1.213,0,0,0,.894,0a1.164,1.164,0,0,0-.7.174c-.154.1-.21.2-.185.23" transform="translate(23.891 10.818)" fill="#1a2e35"/>
            <path id="Fill_269" data-name="Fill 269" d="M1.186,3.941a3.1,3.1,0,0,0-.761-.192C.3,3.728.192,3.7.177,3.612a.614.614,0,0,1,.106-.354l.422-.9A15.874,15.874,0,0,0,1.676,0,15.981,15.981,0,0,0,.517,2.276c-.142.316-.278.617-.407.9a.7.7,0,0,0-.1.472.3.3,0,0,0,.187.19.807.807,0,0,0,.2.043,3.1,3.1,0,0,0,.781.055" transform="translate(20.998 10.093)" fill="#1a2e35"/>
            <path id="Fill_271" data-name="Fill 271" d="M1.6,0c-.077-.01-.113.505-.58.841S.01,1.082,0,1.153c-.009.032.115.109.347.131A1.284,1.284,0,0,0,1.2,1.052,1.118,1.118,0,0,0,1.65.345C1.685.131,1.635,0,1.6,0" transform="translate(21.959 14.458)" fill="#1a2e35"/>
            <path id="Fill_273" data-name="Fill 273" d="M0,.3C.039.429.518.4,1.07.506S2.062.8,2.144.684C2.181.632,2.111.5,1.938.367A1.808,1.808,0,0,0,1.155.031a1.809,1.809,0,0,0-.85.041C.1.14-.015.235,0,.3" transform="translate(24.155 8.466)" fill="#1a2e35"/>
            <path id="Fill_275" data-name="Fill 275" d="M.009.437c.076.114.411.025.8.046s.722.122.806.015C1.657.446,1.612.334,1.473.223A1.118,1.118,0,0,0,.832,0,1.116,1.116,0,0,0,.176.173c-.147.1-.2.209-.167.264" transform="translate(19.785 8.422)" fill="#1a2e35"/>
            <path id="Fill_277" data-name="Fill 277" d="M.33.056C.384.037,2.5-.426,2.282,1.682A1.592,1.592,0,0,1,0,3.079C0,3.019.33.056.33.056" transform="translate(28.735 12.547)" fill="#ffbf9d"/>
            <path id="Fill_279" data-name="Fill 279" d="M0,1.629c.01-.006.034.029.093.064a.37.37,0,0,0,.274.033.912.912,0,0,0,.5-.772A1.212,1.212,0,0,0,.823.418.427.427,0,0,0,.575.108.189.189,0,0,0,.348.187c-.034.056-.025.1-.037.1S.27.249.3.164A.235.235,0,0,1,.392.04.28.28,0,0,1,.6.007.52.52,0,0,1,.951.373a1.257,1.257,0,0,1,.068.6.959.959,0,0,1-.628.856.394.394,0,0,1-.33-.09C0,1.68,0,1.632,0,1.629" transform="translate(29.457 13.265)" fill="#ff9a6c"/>
            <path id="Fill_281" data-name="Fill 281" d="M0,4.758a4.472,4.472,0,0,0,4.025-.62c.8-.585,1.438-1.461,2.4-1.686a2.517,2.517,0,0,1,1.9.395A4.86,4.86,0,0,1,9.688,4.285c-.705,1.529-.425,3.309-.131,4.966a.84.84,0,0,0,.212.5.671.671,0,0,0,.854-.128,2.615,2.615,0,0,0,.669-1.337,8.716,8.716,0,0,0,.216-3.427,5.934,5.934,0,0,0-1.42-3.1A5.617,5.617,0,0,0,6.261.009,6.9,6.9,0,0,0,2.171,1.161a4.039,4.039,0,0,0-1.4,1.4" transform="translate(18.322 3.215)" fill="#1a2e35"/>
            <path id="Fill_283" data-name="Fill 283" d="M.221.292A.055.055,0,0,0,.287.25.055.055,0,0,0,.251.181.055.055,0,0,0,.186.223.055.055,0,0,0,.221.292" transform="translate(25.367 12.468)" fill="#ff9a6c"/>
            <path id="Fill_285" data-name="Fill 285" d="M.219.3A.06.06,0,0,0,.287.251.061.061,0,0,0,.254.173a.061.061,0,0,0-.068.05A.06.06,0,0,0,.219.3" transform="translate(24.477 12.191)" fill="#ff9a6c"/>
            <path id="Fill_287" data-name="Fill 287" d="M.22.32C.248.326.278.293.288.247S.281.158.252.152.194.18.185.226.191.315.22.32" transform="translate(23.867 12.113)" fill="#ff9a6c"/>
            <path id="Fill_289" data-name="Fill 289" d="M.234.27C.263.272.287.258.288.24S.267.2.239.2.185.214.184.232.2.267.234.27" transform="translate(24.87 13.028)" fill="#ff9a6c"/>
            <path id="Fill_291" data-name="Fill 291" d="M.227.3A.056.056,0,0,0,.288.245.057.057,0,0,0,.245.177.056.056,0,0,0,.184.228.056.056,0,0,0,.227.3" transform="translate(24.058 12.752)" fill="#ff9a6c"/>
            <path id="Fill_293" data-name="Fill 293" d="M.221.294A.056.056,0,0,0,.287.25.056.056,0,0,0,.252.179.056.056,0,0,0,.186.223.056.056,0,0,0,.221.294" transform="translate(19.771 11.938)" fill="#ff9a6c"/>
            <path id="Fill_295" data-name="Fill 295" d="M.225.3A.061.061,0,0,0,.288.245.06.06,0,0,0,.247.171.06.06,0,0,0,.185.228.06.06,0,0,0,.225.3" transform="translate(19.152 11.831)" fill="#ff9a6c"/>
            <path id="Fill_297" data-name="Fill 297" d="M.224.281A.05.05,0,0,0,.287.25.05.05,0,0,0,.248.192a.05.05,0,0,0-.063.03A.05.05,0,0,0,.224.281" transform="translate(20.312 12.004)" fill="#ff9a6c"/>
            <path id="Fill_299" data-name="Fill 299" d="M.208.29A.057.057,0,0,0,.283.261.057.057,0,0,0,.265.183.057.057,0,0,0,.19.212.057.057,0,0,0,.208.29" transform="translate(19.828 12.581)" fill="#ff9a6c"/>
            <path id="Fill_301" data-name="Fill 301" d="M.245.28A.049.049,0,0,0,.288.226.05.05,0,0,0,.228.193.05.05,0,0,0,.185.247.05.05,0,0,0,.245.28" transform="translate(19.27 12.45)" fill="#ff9a6c"/>
            <path id="Fill_303" data-name="Fill 303" d="M5.6,1.448a1.9,1.9,0,0,1-.756.753,3.258,3.258,0,0,1-2.528.417A3.256,3.256,0,0,1,.3,1.026,1.892,1.892,0,0,1,.008,0,10,10,0,0,0,.454.938,3.3,3.3,0,0,0,2.373,2.38,3.3,3.3,0,0,0,4.75,2.051a10,10,0,0,0,.845-.6" transform="translate(17.218 4.126)" fill="#375a64"/>
            <path id="Fill_305" data-name="Fill 305" d="M9.1,1.98A2.562,2.562,0,0,0,8.163.909,2.979,2.979,0,0,0,6.686.48,7.425,7.425,0,0,0,4.768.707a14.464,14.464,0,0,1-1.95.358A3.9,3.9,0,0,1,1.191.892,2.479,2.479,0,0,1,.243.326C.057.14-.01.01,0,0A3.206,3.206,0,0,0,1.243.727,3.971,3.971,0,0,0,2.8.84,16.93,16.93,0,0,0,4.716.467,7.086,7.086,0,0,1,6.7.254a3.031,3.031,0,0,1,1.559.51,2.132,2.132,0,0,1,.734.827.793.793,0,0,1,.11.389" transform="translate(20.403 4.13)" fill="#375a64"/>
            <path id="Fill_307" data-name="Fill 307" d="M2.5,1.2a1.834,1.834,0,0,1-1.448-.182A1.832,1.832,0,0,1,.007,0a9.661,9.661,0,0,0,1.15.8A9.541,9.541,0,0,0,2.5,1.2" transform="translate(28.005 7.464)" fill="#375a64"/>
            <path id="Fill_309" data-name="Fill 309" d="M2.316,1.711c-.009.032-.181.022-.454-.033A3.284,3.284,0,0,1,.831,1.291,1.845,1.845,0,0,1,.083.461C-.028.188-.005,0,.024,0S.1.16.238.382a2.177,2.177,0,0,0,.722.7,5.655,5.655,0,0,0,.95.429c.256.1.414.167.4.2" transform="translate(27.928 8.355)" fill="#375a64"/>
            <path id="Fill_311" data-name="Fill 311" d="M.236,13.916c-.027,0-.049-3.115-.049-6.958S.209,0,.236,0,.285,3.115.285,6.958.264,13.916.236,13.916" transform="translate(15.062 28.003)" fill="#1a2e35"/>
            <path id="Fill_313" data-name="Fill 313" d="M4.825.091A8.138,8.138,0,0,0,3.9.072a4.36,4.36,0,0,0-2.091.7A4.36,4.36,0,0,0,.346,2.423,8.053,8.053,0,0,0,0,3.285a1.031,1.031,0,0,1,.047-.248,3.671,3.671,0,0,1,.236-.645A4.142,4.142,0,0,1,3.893,0a3.743,3.743,0,0,1,.686.035,1.03,1.03,0,0,1,.246.053" transform="translate(29.9 25.264)" fill="#1a2e35"/>
            <path id="Fill_315" data-name="Fill 315" d="M1.031,0a2.023,2.023,0,0,1-.02.293,7.7,7.7,0,0,0-.021.8c0,.674.146,1.6.195,2.633A5.147,5.147,0,0,1,.7,6.313a2.746,2.746,0,0,1-.474.651A1.632,1.632,0,0,1,0,7.156a3.73,3.73,0,0,0,.637-.875,5.3,5.3,0,0,0,.449-2.554C1.039,2.7.907,1.771.921,1.091a5.84,5.84,0,0,1,.052-.8C.984.195,1,.122,1.01.073A.236.236,0,0,1,1.031,0" transform="translate(8.232 30.478)" fill="#1a2e35"/>
            <path id="Fill_317" data-name="Fill 317" d="M7.139,1.265,7.5,5.237,5.622,5.231,3.962,5.2a11.643,11.643,0,0,1-1.9.051c-.053-.005-.085-.012-.088-.02a1.533,1.533,0,0,1-.289-.07H1.672v0C1.5,5.1,1.328,4.991,1.356,4.8c.082-.569.42-.615.42-.615l.17-.012.014-.049c-.258,0-.474-.007-.589-.018-.053-.006-.085-.013-.088-.02S.617,4.01.668,3.658c.082-.569.421-.615.421-.615s.23-.017.548-.037c-.266,0-.491-.006-.609-.018-.053-.006-.084-.012-.088-.02S.274,2.889.325,2.537c.082-.57.421-.615.421-.615L1.2,1.891c-.215,0-.393-.008-.494-.018C.652,1.867.621,1.86.617,1.853S-.048,1.774,0,1.422C.085.852.424.806.424.806S1.47.732,2.188.7C2.189.7,3-.033,3.325,0c.479.051,3.269,1.08,3.269,1.08Z" transform="translate(6.901 41.322)" fill="#ffbf9d"/>
            <path id="Fill_319" data-name="Fill 319" d="M1.85.207A3.777,3.777,0,0,1,.92.3,3.556,3.556,0,0,1,0,.266,3.786,3.786,0,0,1,.93.177a3.544,3.544,0,0,1,.92.03" transform="translate(8.671 45.187)" fill="#ff9a6c"/>
            <path id="Fill_321" data-name="Fill 321" d="M2.648.189A7.413,7.413,0,0,1,1.326.3,7.317,7.317,0,0,1,0,.283,7.386,7.386,0,0,1,1.322.176,7.357,7.357,0,0,1,2.648.189" transform="translate(7.879 44.078)" fill="#ff9a6c"/>
            <path id="Fill_323" data-name="Fill 323" d="M2.648.189A7.367,7.367,0,0,1,1.326.3,7.4,7.4,0,0,1,0,.283,7.328,7.328,0,0,1,1.322.177,7.333,7.333,0,0,1,2.648.189" transform="translate(7.784 42.934)" fill="#ff9a6c"/>
            <path id="Fill_325" data-name="Fill 325" d="M0,.2A1.888,1.888,0,0,0,.422.236L1.437.269,2.453.306a1.947,1.947,0,0,0,.423,0A1.739,1.739,0,0,0,2.458.237C2.2.211,1.839.185,1.441.171S.682.159.422.167A1.766,1.766,0,0,0,0,.2" transform="translate(8.79 41.844)" fill="#ff9a6c"/>
            <path id="Fill_327" data-name="Fill 327" d="M0,11.553a.292.292,0,0,0,.066,0l.19-.01L.989,11.5l2.693-.166C5.956,11.2,9.1,11,12.571,10.823l1.859-.085.045,0,0-.046c.029-.754.1-1.491.154-2.2s.118-1.384.173-2.028c.114-1.284.215-2.431.3-3.39s.151-1.72.2-2.255c.021-.26.038-.463.049-.608,0-.066.008-.118.011-.158a.233.233,0,0,0,0-.054.2.2,0,0,0-.01.053c-.005.04-.011.092-.02.157-.016.144-.038.347-.066.606-.055.534-.132,1.3-.228,2.253s-.2,2.1-.322,3.389c-.057.643-.118,1.321-.18,2.027s-.128,1.439-.158,2.2l.046-.048-1.861.083c-3.473.176-6.615.385-8.888.542l-2.692.2-.731.061-.19.019a.324.324,0,0,0-.064.01" transform="translate(13.99 30.447)" fill="#1a2e35"/>
          </g>
          <g id="Group_129" data-name="Group 129" transform="translate(0 34)">
            <path id="Fill_121" data-name="Fill 121" d="M34.029,9.795c-.522-4.208-4.082-8.131-8.321-8.133a9.3,9.3,0,0,0-6.6,3.136,17.2,17.2,0,0,0-1.672,1.983,17.157,17.157,0,0,0-1.249-2.273A9.292,9.292,0,0,0,10.339.134C6.182-.7,1.92,2.448.58,6.47s-.224,8.538,1.979,12.16A23.85,23.85,0,0,0,15.547,29.338c4.819-.618,11.273-4.892,14.147-8.01S34.55,14,34.029,9.795" transform="translate(274.249 0.068)" fill="#fa6400"/>
            <path id="Fill_123" data-name="Fill 123" d="M31.909,8.158a.5.5,0,0,1-.14,0l-.409-.026L29.791,8l-5.767-.528.1-.064-2.4,6.263-.145.378-.1-.394c-.731-3.039-1.552-6.445-2.416-10.033L18.286.354,18.53.4l-4.4,6.051-.043.058-.07-.007L3.885,5.447l-2.867-.32L.259,5.033A1.281,1.281,0,0,1,0,4.987a1.305,1.305,0,0,1,.263.006l.762.056L3.9,5.3l10.141.957-.113.051L18.309.242,18.484,0l.069.29.785,3.271L21.73,13.6l-.24-.016,2.45-6.245.028-.072.076.008,5.758.617,1.564.182.406.055a.542.542,0,0,1,.138.028" transform="translate(274.841 9.262)" fill="#fafafa"/>
            <path id="Fill_125" data-name="Fill 125" d="M22.737,4.32C21.79,1.6,18.866-.5,16.05.1a6.314,6.314,0,0,0-3.934,3.023,11.634,11.634,0,0,0-.828,1.556,11.692,11.692,0,0,0-1.154-1.332A6.316,6.316,0,0,0,5.624,1.281c-2.88.04-5.263,2.737-5.579,5.6a10.1,10.1,0,0,0,3.049,7.8,16.2,16.2,0,0,0,10.154,5.26c3.113-1.1,6.79-4.857,8.254-7.338A10.106,10.106,0,0,0,22.737,4.32" transform="translate(0.328 20.427)" fill="#fa6400"/>
            <path id="Fill_127" data-name="Fill 127" d="M21.648,3.5a.338.338,0,0,1-.093.02l-.275.041-1.06.138-3.906.472.06-.057c-.2,1.3-.441,2.83-.7,4.5l-.043.272-.119-.248-3.036-6.32L11.487.263l.169,0L9.595,4.908l-.02.045-.048.005L2.647,5.7.7,5.9l-.517.045A.869.869,0,0,1,0,5.948a.871.871,0,0,1,.176-.034L.69,5.843,2.635,5.6l6.873-.81-.068.05L11.485.186,11.567,0l.087.183.988,2.061,3.02,6.327-.161.023.736-4.5.009-.052.052-.006,3.913-.411,1.065-.1.277-.022a.368.368,0,0,1,.1,0" transform="translate(1.48 26.48)" fill="#fafafa"/>
          </g>
          <g id="Group_7" data-name="Group 7" transform="translate(126 172)">
            <g id="Group_4" data-name="Group 4" transform="translate(41.863)">
              <path id="Fill_53" data-name="Fill 53" d="M15.767,7.884A7.884,7.884,0,1,1,7.883,0a7.884,7.884,0,0,1,7.884,7.884" transform="translate(0 0)" fill="#fa6400"/>
              <path id="Fill_54" data-name="Fill 54" d="M1.421,5.94A1.422,1.422,0,0,1,0,4.52v-3.1a1.422,1.422,0,1,1,2.843,0v3.1A1.423,1.423,0,0,1,1.421,5.94ZM1.421.3A1.125,1.125,0,0,0,.3,1.422v3.1a1.124,1.124,0,0,0,2.247,0v-3.1A1.125,1.125,0,0,0,1.421.3Z" transform="translate(6.462 3.715)" fill="#fff"/>
              <path id="Fill_55" data-name="Fill 55" d="M2.76,3.562a2.567,2.567,0,0,1-2-.789A3.787,3.787,0,0,1,.013.135a.149.149,0,1,1,.3.029,3.544,3.544,0,0,0,.679,2.41,2.278,2.278,0,0,0,1.773.69,2.385,2.385,0,0,0,1.8-.689A3.721,3.721,0,0,0,5.377.155.149.149,0,0,1,5.52,0a.155.155,0,0,1,.155.143,3.969,3.969,0,0,1-.9,2.638,2.672,2.672,0,0,1-2.013.781" transform="translate(5.123 7.09)" fill="#fff"/>
            </g>
            <g id="Group_6" data-name="Group 6">
              <path id="Fill_57" data-name="Fill 57" d="M15.767,7.884A7.884,7.884,0,1,1,7.883,0a7.884,7.884,0,0,1,7.884,7.884" transform="translate(0 0)" fill="#fa6400"/>
              <path id="Fill_58" data-name="Fill 58" d="M.777,1.554A.777.777,0,1,1,1.554.776a.777.777,0,0,1-.777.777" transform="translate(4.604 7.107)" fill="#fff"/>
              <path id="Fill_59" data-name="Fill 59" d="M.777,1.554A.777.777,0,1,1,1.554.776a.777.777,0,0,1-.777.777" transform="translate(7.022 7.107)" fill="#fff"/>
              <path id="Fill_60" data-name="Fill 60" d="M.777,1.554A.777.777,0,1,1,1.554.776a.777.777,0,0,1-.777.777" transform="translate(9.609 7.107)" fill="#fff"/>
            </g>
            <g id="Group_5" data-name="Group 5" transform="translate(21.067 0.137)">
              <path id="Fill_61" data-name="Fill 61" d="M15.5,7.748A7.748,7.748,0,1,1,7.748,0,7.748,7.748,0,0,1,15.5,7.748" transform="translate(0 0)" fill="#fa6400"/>
              <path id="Fill_62" data-name="Fill 62" d="M2.105.284A1.34,1.34,0,0,0,.1.691.8.8,0,0,0,.287,1.7C1,2.4,2.494,3.8,3.144,4.408a1.611,1.611,0,0,0,1.327.43,1.393,1.393,0,0,0,.94-.583c.733-1.006-1.024-1.79-1.024-1.79l-.768.807L1.829,1.543,2.614.677Z" transform="translate(4.952 5.32)" fill="#fff"/>
            </g>
          </g>
          <g id="Group_2" data-name="Group 2" transform="translate(253 90)">
            <path id="Fill_63" data-name="Fill 63" d="M8.03,16.06h0a8.03,8.03,0,1,1,8.03-8.03,8.03,8.03,0,0,1-8.03,8.03" transform="translate(0 0)" fill="#fce5a6"/>
            <path id="Fill_64" data-name="Fill 64" d="M2.65,2.5a1.282,1.282,0,1,0-.778-.009A2.232,2.232,0,0,0,0,4.7H4.467A2.234,2.234,0,0,0,2.65,2.5" transform="translate(5.102 5.586)" fill="#fa6400"/>
            <path id="Fill_65" data-name="Fill 65" d="M.236,2.424A.184.184,0,0,1,.052,2.24V.184a.185.185,0,0,1,.369,0V2.24a.184.184,0,0,1-.185.184" transform="translate(10.019 6.046)" fill="#fa6400"/>
            <path id="Fill_66" data-name="Fill 66" d="M2.24.421H.184a.184.184,0,1,1,0-.369H2.24a.184.184,0,0,1,0,.369" transform="translate(9.043 7.022)" fill="#fa6400"/>
          </g>
        </g>
      </g>
    </g>
  </g>
</svg>
