<svg xmlns="http://www.w3.org/2000/svg" width="263" height="239.467" viewBox="0 0 263 239.467">
  <g id="illus" transform="translate(0 -0.533)">
    <g id="Background_2_">
      <path id="Oval" d="M119.351,0A119.2,119.2,0,1,1,0,119.2,119.276,119.276,0,0,1,119.351,0Z" transform="translate(15.42 0.533)" fill="#fce5a6"/>
      <path id="Path" d="M0,34.58a17.092,17.092,0,0,1,21.36-13.8A24.146,24.146,0,0,1,32.908,3.247a24.384,24.384,0,0,1,20.96-1.6l57.54,33.733Z" transform="translate(16.488 202.087)" fill="#e1e1e1"/>
      <path id="Path-2" data-name="Path" d="M0,29.128c2.27-7.6,8.411-16.733,14.752-21.6C19.892,3.594,26.5.994,32.842,2.194a25.14,25.14,0,0,0,4.472.8c2.336.067,4.606-.867,6.809-1.6C56.605-2.539,71.357,2.061,79.3,12.528c5.407-1.733,11.481.6,15.62,4.533s6.809,9.067,9.345,14.2Z" transform="translate(141.846 207.006)" fill="#e1e1e1"/>
      <ellipse id="Oval-2" data-name="Oval" cx="131.5" cy="2.533" rx="131.5" ry="2.533" transform="translate(0 234.933)" fill="#fce5a6"/>
    </g>
    <g id="Clock" transform="translate(44 56)">
      <path id="Oval-3" data-name="Oval" d="M90.667,0A90.667,90.667,0,1,1,0,90.667,90.667,90.667,0,0,1,90.667,0Z" transform="translate(0.2 0.333)" fill="#fa6400"/>
      <path id="Path-3" data-name="Path" d="M159.867,79.933A79.943,79.943,0,0,1,7.733,114.267,79.049,79.049,0,0,1,0,79.933,81.056,81.056,0,0,1,1.933,62.267,79.926,79.926,0,0,1,77.6,0h2.267a80.133,80.133,0,0,1,80,79.933Z" transform="translate(10.867 11)" fill="#fff"/>
      <path id="Path-4" data-name="Path" d="M60.533,77.6,0,26.667A79.666,79.666,0,0,1,57.333,0C58.533,16.333,60.533,77.6,60.533,77.6Z" transform="translate(31.133 11)" fill="#f7b500"/>
      <rect id="Rectangle" width="62.464" height="1.267" transform="matrix(0.653, -0.757, 0.757, 0.653, 50.646, 135.678)" fill="#ef716b"/>
      <path id="Path-5" data-name="Path" d="M80.6,15.133,7.733,52A79.049,79.049,0,0,1,0,17.667,81.056,81.056,0,0,1,1.933,0Z" transform="translate(10.867 73.267)" fill="#f7b500"/>
      <path id="Path-6" data-name="Path" d="M79.267,58.333a79.614,79.614,0,0,1-24.4,57.467L0,55.8,54,0A79.846,79.846,0,0,1,79.267,58.333Z" transform="translate(91.467 32.6)" fill="#f7b500"/>
      <circle id="Oval-4" data-name="Oval" cx="2.333" cy="2.333" r="2.333" transform="translate(89.333 86.267)" fill="#070707"/>
      <path id="Path-7" data-name="Path" d="M43.333,26.733,36.867,18,0,0,32.267,24.467Z" transform="translate(91.667 88.6)" fill="#070707"/>
      <path id="Path-8" data-name="Path" d="M0,0,6.4,34.133,17.933,68.667,10.6,32.733Z" transform="translate(73.733 19)" fill="#070707"/>
      <path id="Path-9" data-name="Path" d="M5.63,8.9h0A1.094,1.094,0,0,1,4.1,8.5L.163,1.7A1.094,1.094,0,0,1,.563.163h0A1.094,1.094,0,0,1,2.1.563l3.933,6.8A1.056,1.056,0,0,1,5.63,8.9Z" transform="translate(54.104 27.837)" fill="#070707"/>
      <path id="Path-10" data-name="Path" d="M1.133,10.133h0A1.168,1.168,0,0,1,0,9V1.133A1.168,1.168,0,0,1,1.133,0h0A1.168,1.168,0,0,1,2.267,1.133V9A1.168,1.168,0,0,1,1.133,10.133Z" transform="translate(90.2 18.067)" fill="#070707"/>
      <path id="Path-11" data-name="Path" d="M.563,8.9h0a1.108,1.108,0,0,1-.4-1.533L4.1.563A1.108,1.108,0,0,1,5.63.163h0A1.108,1.108,0,0,1,6.03,1.7L2.1,8.5A1.079,1.079,0,0,1,.563,8.9Z" transform="translate(121.837 27.37)" fill="#070707"/>
      <path id="Path-12" data-name="Path" d="M.163,5.63h0A1.094,1.094,0,0,1,.563,4.1L7.363.163A1.094,1.094,0,0,1,8.9.563h0A1.094,1.094,0,0,1,8.5,2.1L1.7,6.03A1.056,1.056,0,0,1,.163,5.63Z" transform="translate(145.304 53.637)" fill="#070707"/>
      <path id="Path-13" data-name="Path" d="M0,1.133H0A1.168,1.168,0,0,1,1.133,0H9a1.168,1.168,0,0,1,1.133,1.133h0A1.168,1.168,0,0,1,9,2.267H1.133A1.168,1.168,0,0,1,0,1.133Z" transform="translate(154 89.733)" fill="#070707"/>
      <path id="Path-14" data-name="Path" d="M.163.563h0A1.108,1.108,0,0,1,1.7.163L8.5,4.1A1.108,1.108,0,0,1,8.9,5.63h0a1.108,1.108,0,0,1-1.533.4L.563,2.1A1.079,1.079,0,0,1,.163.563Z" transform="translate(145.304 121.837)" fill="#070707"/>
      <path id="Path-15" data-name="Path" d="M.545.182h0a1.168,1.168,0,0,1,1.6.333l4.2,6.667a1.168,1.168,0,0,1-.333,1.6h0a1.168,1.168,0,0,1-1.6-.333L.211,1.782A1.112,1.112,0,0,1,.545.182Z" transform="translate(121.722 144.885)" fill="#070707"/>
      <path id="Path-16" data-name="Path" d="M1.133,0h0A1.168,1.168,0,0,1,2.267,1.133V9a1.168,1.168,0,0,1-1.133,1.133h0A1.168,1.168,0,0,1,0,9V1.133A1.124,1.124,0,0,1,1.133,0Z" transform="translate(89.733 153.533)" fill="#070707"/>
      <path id="Path-17" data-name="Path" d="M6.115.182h0a1.168,1.168,0,0,1,.333,1.6L2.115,8.315a1.168,1.168,0,0,1-1.6.333h0a1.168,1.168,0,0,1-.333-1.6L4.515.515A1.181,1.181,0,0,1,6.115.182Z" transform="translate(53.885 145.418)" fill="#070707"/>
      <path id="Path-18" data-name="Path" d="M8.9.563h0A1.094,1.094,0,0,1,8.5,2.1L1.7,6.03a1.094,1.094,0,0,1-1.533-.4h0A1.094,1.094,0,0,1,.563,4.1L7.363.163A1.108,1.108,0,0,1,8.9.563Z" transform="translate(27.837 121.837)" fill="#070707"/>
      <path id="Path-19" data-name="Path" d="M10.133,1.133h0A1.168,1.168,0,0,1,9,2.267H1.133A1.168,1.168,0,0,1,0,1.133H0A1.168,1.168,0,0,1,1.133,0H9A1.124,1.124,0,0,1,10.133,1.133Z" transform="translate(18.067 89.733)" fill="#070707"/>
      <path id="Path-20" data-name="Path" d="M8.715,6.048h0a1.168,1.168,0,0,1-1.6.333L.515,2.115A1.168,1.168,0,0,1,.182.515h0a1.168,1.168,0,0,1,1.6-.333l6.6,4.267A1.168,1.168,0,0,1,8.715,6.048Z" transform="translate(27.885 53.485)" fill="#070707"/>
    </g>
    <g id="Man_2_" transform="translate(12 9)">
      <rect id="Rectangle-2" data-name="Rectangle" width="8.667" height="6.657" transform="translate(50.667 211.023)" fill="#ef716b"/>
      <path id="Path-21" data-name="Path" d="M9.867,109.839h10.75l4.05-62.566L23.636,0,0,2.859,4.786,51.927Z" transform="translate(40 103.848)" fill="#0c0c0e"/>
      <path id="Path-22" data-name="Path" d="M1.026,7.988C.513,7.041,0,0,0,0L11.654.474,14,5.483Z" transform="translate(38.667 35.282)" fill="#4b4a5a"/>
      <path id="Path-23" data-name="Path" d="M12.618,17.28c0,.067-.072.133-.145.2a10.678,10.678,0,0,1-2.673,5L8.427,29.956H2.358l-.65-8.74s-2.24-1.935-1.59-6.939l2.962-3.669a3.247,3.247,0,0,1,0,3.736L4.6,12.409S5.1,9.941,5.754,7.472c0,0-.65-6.271,2.023-7.472l.65,11.742v.067s2.023.6,2.023,1.868c0,0,2.023.6,1.373,1.868C11.823,15.612,12.907,16.613,12.618,17.28Z" transform="translate(79.333 21.968)" fill="#ef716b"/>
      <rect id="Rectangle-3" data-name="Rectangle" width="8.667" height="6.657" transform="translate(24 211.023)" fill="#ef716b"/>
      <path id="Path-24" data-name="Path" d="M10.311,12.914c.071,4.061.284,7.722.284,7.722L0,16.243C.64,10.651,2.7.666,2.7,0l7.964,3.928a34.711,34.711,0,0,0-.284,5.192C10.311,10.385,10.311,11.65,10.311,12.914Z" transform="translate(40 25.296)" fill="#ef716b"/>
      <path id="Path-25" data-name="Path" d="M20.667,10.7s-1.375,26.4-16.939,8.2c0,0-6.8-8.8-2.027-15.719,0,0,7.456-5.643,15.564-1.881C17.264,1.293,20.667,4.383,20.667,10.7Z" transform="translate(38 9.32)" fill="#ef716b"/>
      <path id="Path-26" data-name="Path" d="M0,0S10.613,8.574,21.444,31.569L24.86,9.77h8.868S36.418,44,24.86,45.859c0,0-4.8,1.861-15.629-13.093Z" transform="translate(54.667 40.607)" fill="#e1e1e1"/>
      <path id="Path-27" data-name="Path" d="M28,0,21.442,45.495,11.2,107.176H0L2.579,53.355,3.611,0Z" transform="translate(22 106.51)" fill="#4b4a5a"/>
      <path id="Path-28" data-name="Path" d="M3.765,72.56h18.9L16.022,2.338,14.471,0S10.41,8.285,2.732,0L0,2.338Z" transform="translate(36.667 37.279)" fill="#316398"/>
      <path id="Path-29" data-name="Path" d="M28,99.188,0,96.449,2.579,76.144C4.642,62.318,4.126,44.751,4.126,44.751c-.368-3.607-.589-6.746-.737-9.485C2.8,23.712,3.758,19.9,4.053,19.1a.482.482,0,0,0,.074-.2C5.158,7.347,16.358,0,16.358,0l9.137,26.316Z" transform="translate(20 37.944)" fill="#e1e1e1"/>
      <path id="Path-30" data-name="Path" d="M2.61,96.458.522,13.3,0,0S6.189,3.191,8.276,12.431c0,0,2.088,11.035,3.057,38.623v45.47H2.61Z" transform="translate(53.333 39.941)" fill="#e1e1e1"/>
      <path id="Path-31" data-name="Path" d="M3.949,26.628,0,0,3.949,4.416v7.828L6,13.648Z" transform="translate(50.667 35.947)" fill="#e1e9fe"/>
      <path id="Path-32" data-name="Path" d="M.185,31.287C-.4,19.771.549,15.977.839,15.178L10.213,0C10.359.666,19.95,13.979.185,31.287Z" transform="translate(23.333 41.938)" fill="#e7e5ff"/>
      <path id="Path-33" data-name="Path" d="M6.286,4.3S4.051-.478,1.956.039c0,0,1.816,4.718,3.981,6.527,0,0-3.841-5.235-5.937-4.459,0,0,2.165,4.782,5.1,5.881L7.333,7.6Z" transform="translate(15.333 103.182)" fill="#ef716b"/>
      <path id="Path-34" data-name="Path" d="M12,10.657s-.675,4.654-7.65,4.654A15.9,15.9,0,0,0,2.7,6.677,14.132,14.132,0,0,0,.3,3.3C.225,3.17.075,3.1,0,2.968L6.15,0s.15.135.45.472C7.875,1.956,11.85,6.745,12,10.657Z" transform="translate(16 96.525)" fill="#ef716b"/>
      <path id="Path-35" data-name="Path" d="M6,0,2.313,5.991A13.645,13.645,0,0,0,0,2.735Z" transform="translate(16 97.191)" fill="#ed6969"/>
      <path id="Path-36" data-name="Path" d="M33.091.036s6.868,11.8-3.434,20.492L12.632,30.475,22.788,56.339,15.92,61.909,1.745,36.311A9.362,9.362,0,0,1,1.6,25.634C7.664,16.482,27.538-.893,33.091.036Z" transform="translate(0 39.941)" fill="#e1e1e1"/>
      <path id="Path-37" data-name="Path" d="M6.37,0c.513.464,6.3,28.625,6.3,28.625L4.027,16.7l1.025-2.717L0,4.373Z" transform="translate(32.667 35.282)" fill="#e1e9fe"/>
      <path id="Path-38" data-name="Path" d="M29.689,5.725C25.594-1.265,9.143-.333,6.511,4.26A6.837,6.837,0,0,1,10.24,0S4.464,1.2,4.171,6.324c-3.363,1-8.7,4.793,3.071,18.972l1.243-3.928a3.5,3.5,0,0,1-2.267-1.132c-1.17-1.6-1.024-4.926,2.559-3.661v-.067a13.836,13.836,0,0,1,.951,2.4s1.024,1.4,1.024.932a5.779,5.779,0,0,1,2.12-4.926c2.267.466,10.529,1.93,15.5-1.6a32.865,32.865,0,0,1-10.383.8c.951-.067,1.974-.067,3.071-.067C21.134,14.046,34.3,13.58,29.689,5.725Z" transform="translate(32.667)" fill="#0b1643"/>
      <path id="Path-39" data-name="Path" d="M7.95,5.251,5.524,6.981c-1.323,1.473-2.205.9-2.205.9C3.246,7.3,4.275,6.084,4.5,5.828,2.511,7.941,1.7,7.365,1.7,7.365.967,6.853,2.511,5,2.8,4.675.158,7.493.011,6.212.011,6.212-.209,4.483,2.878.9,3.613,0V.064S5.671.64,5.671,1.857c0,0,2.058.576,1.4,1.793C7.142,3.65,8.244,4.611,7.95,5.251Z" transform="translate(84 33.95)" fill="#fc7474"/>
      <path id="Path-40" data-name="Path" d="M7.333,13.314h0C3.3,13.314,0,10.318,0,6.657V0H14.667V6.657C14.667,10.318,11.367,13.314,7.333,13.314Z" transform="translate(28 109.173)" fill="#e1e9fe"/>
      <path id="Path-41" data-name="Path" d="M2.563,0H11.2s4.539,4.164,9.079,5.155,5.052,4.164,5.052,4.164H0A31.933,31.933,0,0,1,2.563,0Z" transform="translate(21.333 217.68)" fill="#4b4a5a"/>
      <path id="Path-42" data-name="Path" d="M2.563,0H11.2s4.539,4.164,9.079,5.155c4.539,1.057,5.052,4.164,5.052,4.164H0A31.933,31.933,0,0,1,2.563,0Z" transform="translate(48 217.68)" fill="#0c0c0e"/>
      <path id="Path-43" data-name="Path" d="M6,7.988C1.129,5.546,0,0,0,0,1.341,2.773,4.024,3.433,6,4.291Z" transform="translate(44 29.956)" fill="#ed6969"/>
    </g>
  </g>
</svg>
