<svg xmlns="http://www.w3.org/2000/svg" width="241.48" height="238.356" viewBox="0 0 241.48 238.356">
  <g id="illus" transform="translate(-0.455 -0.648)">
    <g id="_x33_">
      <g id="Background" transform="translate(0 3.907)">
        <ellipse id="Oval" cx="109.616" cy="109.734" rx="109.616" ry="109.734" transform="translate(14.247 0.521)" fill="#fce5a6"/>
        <ellipse id="Oval-2" data-name="Oval" cx="120.74" cy="2.344" rx="120.74" ry="2.344" transform="translate(0.455 230.408)" fill="#fce5a6"/>
      </g>
      <g id="Element_1_" transform="translate(101.484 39.725)">
        <path id="Path" d="M83.4,127.187H13.336A13.361,13.361,0,0,1,0,113.836V13.35A13.361,13.361,0,0,1,13.336,0H83.4A13.361,13.361,0,0,1,96.735,13.35V113.836A13.361,13.361,0,0,1,83.4,127.187Z" transform="translate(0 17.323)" fill="#f7b500"/>
        <path id="Path-2" data-name="Path" d="M3.513,0,88.994,4.3,85.936,119.437,0,120.609Z" transform="translate(5.204 19.472)" fill="#d8d8d8"/>
        <path id="Path-3" data-name="Path" d="M2.277,0,88.213,4.233,83.529,117.874,0,113.576Z" transform="translate(2.927 22.207)" fill="#fff"/>
        <path id="Shape" d="M40.312,24.291H40.4s0,0-.019,0ZM0,24.291c10.473-1.693,13.141-10.55,13.792-15.3a4.53,4.53,0,0,0,.065-1.628V7.034a7.026,7.026,0,1,1,14.052,0,3.461,3.461,0,0,0,.065.847c2.321,14.8,11.351,16.332,12.339,16.411Z" transform="translate(27.062 0.326)" fill="#fa6400"/>
        <path id="Shape-2" data-name="Shape" d="M11.579,11.4h0L0,10.745.586,0,12.165.652,11.579,11.4ZM1.626,1.237,1.171,9.769l9.368.521.455-8.531Z" transform="translate(12.1 45.587)" fill="#f7b500"/>
        <path id="Rectangle" d="M.176,0H.827l0,56.533H.173Z" transform="matrix(0.053, -0.999, 0.999, 0.053, 27.54, 48.897)"/>
        <path id="Rectangle-2" data-name="Rectangle" d="M.176,0H.827l0,56.533H.173Z" transform="matrix(0.053, -0.999, 0.999, 0.053, 27.335, 52.26)"/>
        <path id="Rectangle-3" data-name="Rectangle" d="M.176,0H.827l0,56.533H.173Z" transform="matrix(0.053, -0.999, 0.999, 0.053, 27.197, 55.561)"/>
        <path id="Shape-3" data-name="Shape" d="M11.579,11.4h0L0,10.745.586,0,12.165.652,11.579,11.4ZM1.626,1.172,1.171,9.7l9.368.52.455-8.531Z" transform="translate(10.799 69.878)" fill="#f7b500"/>
        <path id="Rectangle-4" data-name="Rectangle" d="M.176,0H.827l0,56.533H.173Z" transform="matrix(0.053, -0.999, 0.999, 0.053, 26.264, 73.173)"/>
        <path id="Rectangle-5" data-name="Rectangle" d="M.176,0H.827l0,56.533H.173Z" transform="matrix(0.053, -0.999, 0.999, 0.053, 26.058, 76.536)"/>
        <path id="Rectangle-6" data-name="Rectangle" d="M.176,0H.827l0,56.533H.173Z" transform="matrix(0.053, -0.999, 0.999, 0.053, 25.856, 79.833)"/>
        <path id="Shape-4" data-name="Shape" d="M11.579,11.4h0L0,10.745.586,0,12.165.652,11.579,11.4ZM1.626,1.172,1.171,9.7l9.368.52.455-8.531Z" transform="translate(9.498 94.169)" fill="#f7b500"/>
        <path id="Rectangle-7" data-name="Rectangle" d="M.176,0H.827l0,56.533H.173Z" transform="matrix(0.053, -0.999, 0.999, 0.053, 24.923, 97.446)"/>
        <path id="Rectangle-8" data-name="Rectangle" d="M.176,0H.827l0,56.533H.173Z" transform="matrix(0.053, -0.999, 0.999, 0.053, 24.782, 100.812)"/>
        <path id="Rectangle-9" data-name="Rectangle" d="M.176,0H.827l0,56.533H.173Z" transform="matrix(0.053, -0.999, 0.999, 0.053, 24.58, 104.109)"/>
        <path id="Shape-5" data-name="Shape" d="M11.579,11.4h0L0,10.745.586,0,12.165.652,11.579,11.4ZM1.626,1.172,1.171,9.7l9.368.52.455-8.531Z" transform="translate(8.392 115.074)" fill="#f7b500"/>
        <path id="Rectangle-10" data-name="Rectangle" d="M.176,0H.827l0,56.533H.173Z" transform="matrix(0.053, -0.999, 0.999, 0.053, 23.853, 118.359)"/>
        <path id="Rectangle-11" data-name="Rectangle" d="M.176,0H.827l0,56.533H.173Z" transform="matrix(0.053, -0.999, 0.999, 0.053, 23.647, 121.722)"/>
        <path id="Rectangle-12" data-name="Rectangle" d="M.175,0H.827l0,35.2H.173Z" transform="matrix(0.053, -0.999, 0.999, 0.053, 23.713, 125.024)"/>
        <path id="Path-4" data-name="Path" d="M13.89.4a1.553,1.553,0,0,0-2.212.13L5.954,6.849,2.506,4.374a1.589,1.589,0,0,0-1.822,2.6L4.718,9.845a1.979,1.979,0,0,0,.325.456,1.553,1.553,0,0,0,2.212-.13L14.02,2.681A1.632,1.632,0,0,0,13.89.4Z" transform="translate(11.351 44.729)" fill="#fa6400"/>
        <path id="Path-5" data-name="Path" d="M13.89.4a1.553,1.553,0,0,0-2.212.13L5.954,6.849,2.506,4.374a1.589,1.589,0,0,0-1.822,2.6L4.718,9.845a1.979,1.979,0,0,0,.325.456,1.553,1.553,0,0,0,2.212-.13L14.02,2.681A1.632,1.632,0,0,0,13.89.4Z" transform="translate(10.05 69.085)" fill="#fa6400"/>
        <path id="Path-6" data-name="Path" d="M13.89.4a1.553,1.553,0,0,0-2.212.13L5.954,6.849,2.506,4.374a1.589,1.589,0,0,0-1.822,2.6L4.718,9.845a1.979,1.979,0,0,0,.325.456,1.553,1.553,0,0,0,2.212-.13L14.02,2.681A1.636,1.636,0,0,0,13.89.4Z" transform="translate(10.05 93.181)" fill="#fa6400"/>
        <path id="Path-7" data-name="Path" d="M13.89.4a1.553,1.553,0,0,0-2.212.13L5.954,6.849,2.506,4.374a1.589,1.589,0,0,0-1.822,2.6L4.718,9.845a1.979,1.979,0,0,0,.325.456,1.553,1.553,0,0,0,2.212-.13L14.02,2.681A1.632,1.632,0,0,0,13.89.4Z" transform="translate(7.643 114.542)" fill="#fa6400"/>
      </g>
      <g id="Element" transform="translate(154.177 97.686)">
        <path id="Path-8" data-name="Path" d="M53.806,2.728C39.429-6.063,31.948,8.915,30.516,12.237,29.085,8.98,21.6-6.063,7.227,2.728-4.938,10.218-4.548,37.114,30.516,54.893h0C65.58,37.114,65.971,10.218,53.806,2.728Z" transform="translate(0.384 0.137)" fill="#fa6400"/>
        <path id="Path-9" data-name="Path" d="M40.789,32.692,35.975,4.559l-3.9,15.5H25.826l-1.887,5.6L21.663,16.02,18.215,32.627,12.946,4.494l-3.9,16.02H0V19.6H8.262L13.011.065,18.28,27.743,21.6,11.657l2.537,10.55.976-3.126h6.245L36.1,0l4.814,27.678L44.3,11.657l1.5,10.224.976-2.8h4.163v.977H47.424l-1.952,5.861-1.366-8.987Z" transform="translate(5.66 13.35)" fill="#fff"/>
      </g>
      <g id="Man" transform="translate(37.081)">
        <rect id="Rectangle-13" data-name="Rectangle" width="7.221" height="6.252" transform="translate(41.374 219.662)" fill="#ef716b"/>
        <rect id="Rectangle-14" data-name="Rectangle" width="7.221" height="6.252" transform="translate(14.507 219.662)" fill="#ef716b"/>
        <path id="Path-10" data-name="Path" d="M24.72,0l-5.8,41.875L9.874,98.728H0L2.279,49.1,3.176,0Z" transform="translate(13.466 123.605)" fill="#0c0c0e"/>
        <path id="Path-11" data-name="Path" d="M9.108,101.4h9.9l3.759-57.765L21.829,0,0,2.67,4.409,47.931Z" transform="translate(30.705 120.935)" fill="#4b4a5a"/>
        <path id="Path-12" data-name="Path" d="M2.147,0H9.368s3.838,3.842,7.611,4.819c3.838.977,4.228,3.842,4.228,3.842H0A35.862,35.862,0,0,1,2.147,0Z" transform="translate(12.36 225.979)" fill="#0c0c0e"/>
        <path id="Path-13" data-name="Path" d="M2.147,0H9.368s3.838,3.842,7.611,4.819c3.838.977,4.228,3.842,4.228,3.842H0A35.862,35.862,0,0,1,2.147,0Z" transform="translate(39.227 225.979)" fill="#4b4a5a"/>
        <path id="Path-14" data-name="Path" d="M5.923.785.589,6.776a2.363,2.363,0,0,0,.2,3.321h0A2.357,2.357,0,0,0,4.1,9.9L9.436,3.911A2.363,2.363,0,0,0,9.241.59h0A2.357,2.357,0,0,0,5.923.785Z" transform="translate(110.458 0.648)" fill="#f7b500"/>
        <path id="Path-15" data-name="Path" d="M36.43,18.235A18.283,18.283,0,1,1,30.445,4.754a17.527,17.527,0,0,1,4.749,7.033A16.268,16.268,0,0,1,36.43,18.235Z" transform="translate(79.626 1.368)" fill="#372786"/>
        <path id="Path-16" data-name="Path" d="M30.966,15.5A15.483,15.483,0,1,1,15.483,0,15.3,15.3,0,0,1,26.022,4.168a15,15,0,0,1,4.424,7.424A12.619,12.619,0,0,1,30.966,15.5Z" transform="translate(82.228 4.233)" fill="#fce5a6"/>
        <path id="Path-17" data-name="Path" d="M28.693,7.424,17.829,20.774a3.654,3.654,0,0,1-5.53.326c-.325-.326-10.669-8.987-10.669-8.987A4.675,4.675,0,0,1,.72,6.057,3.654,3.654,0,0,1,6.184,5.015l8.522,6.708L24.269,0A16.008,16.008,0,0,1,28.693,7.424Z" transform="translate(84.046 8.336)" fill="#f7b500"/>
        <path id="Rectangle-15" data-name="Rectangle" d="M0,0,3.253,0l.01,22.2L.01,22.2Z" transform="translate(86.018 36.878) rotate(30.001)" fill="#372786"/>
        <path id="Rectangle-16" data-name="Rectangle" d="M0,0H1.887l0,9.31H0Z" transform="translate(88.734 33.637) rotate(30.001)" fill="#372786"/>
        <path id="Path-18" data-name="Path" d="M12.3,14.653a2.077,2.077,0,0,1-.455.065v8.466L1.691,23.77V10.745L0,0,18.085.586C19,12.048,13.922,14.262,12.3,14.653Z" transform="translate(26.022 19.798)" fill="#ef716b"/>
        <path id="Path-19" data-name="Path" d="M9.173,4.442a31.239,31.239,0,0,0-.26,3.582A2.627,2.627,0,0,1,7.676,9.782l-.846.781L6.05,16.685l-.52,4.363-.13.847L0,17.857l.651-1.823.065-.13L2.862,9.847,1.952,5.614,3.513,2.032a.42.42,0,0,1,.781.065,5.533,5.533,0,0,1,0,2.6l.26,2.6L8.327.208a.379.379,0,0,1,.716.13A17.647,17.647,0,0,1,9.173,4.442Z" transform="translate(78.585 41.275)" fill="#ef716b"/>
        <path id="Path-20" data-name="Path" d="M5.595.781,5.009,5.145.13.13,0,0H.2Z" transform="translate(79.04 57.179)" fill="#ed6969"/>
        <path id="Path-21" data-name="Path" d="M14.377,3.777,12.946,0H.716L0,3.777Z" transform="translate(25.501 39.335)" fill="#e1e9fe"/>
        <path id="Shape-6" data-name="Shape" d="M12.3,101.19s-.781-3.516-.066-29.5A23.9,23.9,0,0,1,.984,61.2a8.535,8.535,0,0,1-.977-3.973c-.13-9.377,1.171-50.47,23.42-55.811A7.83,7.83,0,0,1,24.793.183s4.748-.521,16.718.2c16.069.977,27.843,28.2,30.9,27.613l5.92-12.96,8.457,6.122L80.674,32.94c-2.082,5.145-5.53,11.592-8.717,10.941-.065,0-.2-.066-.26-.066-4.228-1.433-16-15.565-16-15.565s-.066,22.143-.131,53.532c-.065,7.945-.13,9.312-.26,16.607-.068,3.209-.155,2.731-.258,2.254-.095-.433-.2-.867-.327,1.458a201.719,201.719,0,0,1-22.741,1.438C24.766,103.539,17.36,102.985,12.3,101.19Z" transform="translate(0.188 41.757)" fill="#e1e1e1"/>
        <path id="Path-22" data-name="Path" d="M18.462,15.711s-5.66.586-1.106,6.252c0,0-2.277,9.052-12.751,4.819,0,0-1.952-1.954-2.537-7.1,0,0-7.351-13.611,5.66-18.691,0,0,13.6-3.973,17.5,3.973C29.2,12.911,20.154,15.125,18.462,15.711Z" transform="translate(23.042 5.519)" fill="#0b1643"/>
        <path id="Path-23" data-name="Path" d="M1.756,14.653c.325-3-.13-3.126.781-5.991C3.513,5.731,4.879,2.019,6.375,0L0,68.054V49.494S.26,28.329,1.756,14.653Z" transform="translate(12.295 71.441)" fill="#e7e5ff"/>
        <path id="Path-24" data-name="Path" d="M20.1,22.728c-.065,0-.2-.065-.26-.065C15.613,21.23,3.838,7.1,3.838,7.1s-.065,22.207-.13,53.532c0,7.945-.065,9.378-.26,16.607L0,0C3.188,4.754,16.524,20.319,20.1,22.728Z" transform="translate(52.108 62.91)" fill="#e7e5ff"/>
        <path id="Path-25" data-name="Path" d="M6.961.065v4.3A16.431,16.431,0,0,1,0,0,10.164,10.164,0,0,0,6.961.065Z" transform="translate(30.901 34.581)" fill="#ed6969"/>
      </g>
    </g>
  </g>
</svg>
