<svg
   width="645"
   height="1226"
   viewBox="0 0 645 1226"
   >
  
  <path
     id="ear"
     d="m 266.859,135.759 v 0 a 40.86,40.86 0 0 1 -6.558,-9.837 27.461,27.461 0 0 1 -2.614,-11.552 c 0,-0.27 0,-0.54 0.013,-0.812 v 0 a 13.968,13.968 0 0 1 0.585,-3.9 5.519,5.519 0 0 1 0.889,-1.718 4.51,4.51 0 0 1 2.165,-1.459 12.872,12.872 0 0 1 4.157,-0.554 c 0.305,0 0.631,0.01 0.961,0.022 a 34,34 0 0 0 1.323,3.731 c -0.076,1.446 -0.283,5.871 -0.283,11.69 0,4.658 0.133,10.21 0.573,15.851 -0.388,-0.493 -0.786,-0.979 -1.211,-1.462 z"
     fill="#f4b087" />
  <path
     id="thumb"
     d="m 72.444,634.89 a 24.478,24.478 0 0 1 -4.739,2.819 12.435,12.435 0 0 1 -4.967,1.078 14.274,14.274 0 0 1 -6.3,-1.6 c 3.818,-3.781 7.985,-7.231 12.089,-10.815 a 86.116,86.116 0 0 0 10.64,-10.689 c -0.035,0.588 -0.054,1.174 -0.054,1.753 a 41.5,41.5 0 0 0 1.04,8.815 c 0.19,0.855 0.379,1.6 0.545,2.2 -2.909,2.026 -5.553,4.468 -8.254,6.439 z"
     fill="#f4b087" />
  <path
     id="shoulder"
     d="m 364.086,214.494 c 0.041,0.038 0.074,0.081 0.116,0.118 a 20.15,20.15 0 0 0 6.3,3.658 c 16.115,6.267 32.2,12.253 47,21.125 3.744,2.236 7.975,3.228 12.2,3.934 4.225,0.706 8.476,1.1 12.291,1.943 10.453,2.309 18.232,6.878 24.346,13.322 6.114,6.444 10.531,14.846 13.922,24.809 a 132.856,132.856 0 0 1 7.121,43.093 143.422,143.422 0 0 1 -0.937,16.17 136.958,136.958 0 0 1 -44.4,-19.5 249.7,249.7 0 0 1 -85.753,-102.563 c 2.625,-2.057 5.361,-4.238 7.794,-6.109 z"
     fill="#f4b087" />
  <path
     id="neck"
     d="m 322.363,229.791 c -8.892,0 -17.961,-2.992 -27.265,-8.619 -4.232,-2.56 -9.46,-5.415 -14.1,-7.9 a 14.174,14.174 0 0 0 0.948,-1.158 15.943,15.943 0 0 0 2.818,-9.595 c 0,-0.123 0,-0.247 0,-0.371 v 0 c -0.056,-3.578 -0.073,-7.738 -0.073,-12.018 0,-4.871 0.022,-9.9 0.033,-14.415 0.866,0.55 1.761,1.1 2.709,1.653 a 120.631,120.631 0 0 0 18.03,8.982 46.8,46.8 0 0 0 16.627,3.287 44.391,44.391 0 0 0 14.979,-2.737 86.254,86.254 0 0 0 16.783,-8.44 c 1.9,-1.192 3.7,-2.317 5.4,-3.456 0,0.614 0.006,1.235 0.006,1.867 0,5.751 -0.145,12.106 -0.145,17.487 0,1.9 0.018,3.686 0.068,5.286 v 0 a 51.921,51.921 0 0 0 0.431,5.859 18.829,18.829 0 0 0 0.974,3.929 13.16,13.16 0 0 0 0.581,1.321 c -3.937,3.027 -8.558,6.779 -12.162,9.454 v 0 c -8.964,6.632 -17.764,9.576 -26.642,9.584 z"
     fill="#f4b087" />
  <path
     id="stomach"
     d="m 420.801,488.953 c 1.951,9.465 2.066,18.98 2.064,28.62 q 0,1.685 0,3.374 c 0,6 0.054,12.048 0.573,18.148 -9.939,2.555 -18.5,6.845 -25.2,13.143 -7.134,6.7 -12.107,15.627 -14.487,26.744 a 80.063,80.063 0 0 0 -1.838,16.8 68.07,68.07 0 0 0 1.723,15.405 48.982,48.982 0 0 1 -17.787,-7.355 79.5,79.5 0 0 1 -16.843,-15.277 43.338,43.338 0 0 0 -9.591,-8.756 23.674,23.674 0 0 0 -12.9,-3.87 c -0.63,0 -1.273,0.031 -1.922,0.082 v -5.243 c 0,-15.161 0,-30.277 0,-45.106 a 11.543,11.543 0 0 0 6.462,-2.981 10.326,10.326 0 0 0 0,-15.268 11.544,11.544 0 0 0 -6.454,-2.985 c 0,-28.778 0,-57.961 0.008,-87.166 a 33.481,33.481 0 0 1 12.358,2.951 25.143,25.143 0 0 1 10.644,8.988 c 1.729,2.639 3.684,5.032 5.484,7.387 a 42.16,42.16 0 0 1 4.621,7.089 24.549,24.549 0 0 0 9.061,10.4 34.451,34.451 0 0 0 12.593,4.463 240.159,240.159 0 0 0 39.714,3.158 c -0.089,2.2 -0.15,4.385 -0.152,6.541 a 103.6,103.6 0 0 0 1.869,20.714 z"
     fill="#f4b087" />
  <path
     id="ear"
     data-name="Ear"
     d="m 375.695,106.562 a 10.7,10.7 0 0 1 3.633,-0.732 5.952,5.952 0 0 1 2.057,0.337 4.471,4.471 0 0 1 2.183,1.706 8.277,8.277 0 0 1 1.274,3.788 25.958,25.958 0 0 1 0.18,3.041 25.251,25.251 0 0 1 -1.9,9.583 33.859,33.859 0 0 1 -5.2,8.582 v 0 a 59.856,59.856 0 0 0 -4.281,5.958 c 0.324,-4.695 0.556,-9.411 0.719,-13.66 0.3,-7.816 0.373,-14.025 0.386,-15.5 q 0.503,-1.549 0.949,-3.103 z"
     fill="#f4b087" />
  <path
     id="head"
     d="m 274.74,61.286 c 3.578,-4.551 8.908,-7.995 15.936,-10.45 a 92.03,92.03 0 0 1 30.531,-5.322 93.924,93.924 0 0 1 30.69,5.306 35.616,35.616 0 0 1 14.038,8.339 27.66,27.66 0 0 1 7.362,14.076 v 0 c 0.173,0.815 0.316,1.628 0.45,2.442 -0.139,-0.007 -0.278,-0.013 -0.413,-0.014 a 11.942,11.942 0 0 0 -2.016,0.193 c -0.587,0.1 -1.092,0.221 -1.405,0.288 v 0 a 208.383,208.383 0 0 1 -44.24,4.592 266.672,266.672 0 0 1 -56.164,-6.3 25.907,25.907 0 0 1 5.231,-13.15 z"
     fill="#f4b087" />
  <path
     id="mouth"
     d="m 279.846,165.811 a 19.313,19.313 0 0 1 -4.266,-9.87 v 0 c -0.166,-1.028 -0.356,-2.036 -0.562,-3.036 0,-0.017 0,-0.033 -0.008,-0.05 v 0 c -0.025,-0.1 -0.047,-0.2 -0.072,-0.3 -0.15,-0.708 -0.3,-1.412 -0.482,-2.106 a 106.12,106.12 0 0 1 -1.83,-13.4 c -0.44,-5.543 -0.573,-11.058 -0.573,-15.682 0,-3.5 0.076,-6.486 0.153,-8.6 0.038,-1.054 0.075,-1.889 0.1,-2.459 0.014,-0.285 0.026,-0.5 0.034,-0.648 0.008,-0.148 0.013,-0.215 0.013,-0.216 a 2.334,2.334 0 0 0 -0.193,-1.067 c -2.574,-5.77 -2.964,-11.914 -2.96,-18.392 0,-2.364 0.049,-4.767 0.049,-7.195 0,-0.926 -0.007,-1.857 -0.027,-2.791 v 0 q -0.01,-0.482 -0.01,-0.956 v -0.019 a 270.832,270.832 0 0 0 56.458,6.264 212.882,212.882 0 0 0 45.207,-4.7 v 0 c 0.37,-0.08 0.784,-0.175 1.22,-0.252 a 7.511,7.511 0 0 1 1.236,-0.125 2.05,2.05 0 0 1 0.646,0.079 2.31,2.31 0 0 0 0.35,0.4 c 0.1,1.369 0.163,2.736 0.163,4.1 a 76.819,76.819 0 0 1 -4.187,23.8 2.258,2.258 0 0 0 -0.112,0.692 c 0,0 0,0.418 -0.013,1.194 -0.034,2.717 -0.15,9.755 -0.516,17.929 -0.366,8.174 -0.983,17.488 -2,24.684 -0.006,0.036 0,0.072 0,0.108 a 48.659,48.659 0 0 0 -0.891,4.883 v 0 a 14.73,14.73 0 0 1 -1.538,5.081 18.556,18.556 0 0 1 -5.165,5.857 95.353,95.353 0 0 1 -8.464,5.678 81.828,81.828 0 0 1 -15.885,8.006 39.793,39.793 0 0 1 -13.458,2.476 42.224,42.224 0 0 1 -15.026,-3 116.461,116.461 0 0 1 -17.334,-8.65 c -4.561,-2.643 -7.819,-5.046 -10.057,-7.717 z"
     fill="#f4b087" />
  <path
     id="shoulder"
     data-name="Shoulder"
     d="m 163.536,286.531 c 3.253,-10.625 7.591,-19.9 13.908,-27 6.317,-7.1 14.589,-12.111 26.18,-14.292 3.735,-0.7 7.823,-1.13 11.869,-1.874 a 35.339,35.339 0 0 0 11.662,-3.927 c 14.872,-8.789 30.717,-15.231 46.883,-21.407 a 21.878,21.878 0 0 0 3.259,-1.551 c 3.227,1.723 6.844,3.674 10.259,5.6 -15.812,32.419 -36.723,62.4 -63.967,86.029 a 186.136,186.136 0 0 1 -65.254,36.437 131.509,131.509 0 0 1 -1.1,-16.94 139.842,139.842 0 0 1 6.301,-41.075 z"
     fill="#f4b087" />
  <path
     id="fingers"
     d="m 95.279,712.486 c 6.841,-13.937 10.25,-28.517 11.503,-43.277 v -0.018 a 11.7,11.7 0 0 1 2.083,-1.156 4.951,4.951 0 0 1 1.871,-0.432 2.393,2.393 0 0 1 1.512,0.5 5.52,5.52 0 0 1 1.581,2.262 9.263,9.263 0 0 1 0.374,1.094 c 0.021,0.075 0.03,0.114 0.043,0.169 a 68.929,68.929 0 0 1 -3.742,20.373 123.075,123.075 0 0 1 -8.644,19.037 1.467,1.467 0 0 1 -0.437,0.473 4.882,4.882 0 0 1 -1.779,0.738 13.115,13.115 0 0 1 -2.952,0.3 h -0.02 c -0.443,0 -0.918,-0.029 -1.393,-0.063 z m -5.85,-1.126 a 19.721,19.721 0 0 1 -4.484,-2.021 c 6.848,-13.879 9.3,-28.385 11.66,-42.649 0.245,-0.109 0.523,-0.225 0.828,-0.34 a 9.654,9.654 0 0 1 3.149,-0.7 2.675,2.675 0 0 1 0.814,0.106 0.846,0.846 0 0 1 0.523,0.392 3.567,3.567 0 0 1 0.356,1.843 c 0,0.25 -0.012,0.529 -0.038,0.836 -1.253,14.755 -4.71,29.152 -11.66,42.855 -0.382,-0.105 -0.769,-0.202 -1.148,-0.322 z m 25.836,-5.3 a 34.132,34.132 0 0 1 -0.359,-5.927 28.7,28.7 0 0 0 -0.179,-3.139 10.037,10.037 0 0 0 -0.452,-1.985 c 0.186,-0.516 0.375,-1.028 0.551,-1.546 a 73.509,73.509 0 0 0 3.992,-21.985 2.161,2.161 0 0 0 -0.033,-0.427 6.95,6.95 0 0 1 1.06,-0.6 3.556,3.556 0 0 1 1.455,-0.346 2.6,2.6 0 0 1 0.976,0.191 4.819,4.819 0 0 1 1.723,1.3 13.244,13.244 0 0 1 2.055,3.315 c 0.216,0.481 0.376,0.9 0.492,1.212 -1.528,5.506 -2.907,11.608 -4.691,17.468 a 63.626,63.626 0 0 1 -5.975,14.278 6.577,6.577 0 0 1 -0.612,-1.805 z m -34.836,-0.514 a 4.944,4.944 0 0 1 -0.6,-2.518 15.673,15.673 0 0 1 0.369,-2.941 c 2.313,-12.041 3.486,-24.142 4.622,-36.175 a 13.718,13.718 0 0 1 2.464,-1.421 5.179,5.179 0 0 1 2,-0.481 2.128,2.128 0 0 1 1.327,0.411 4.383,4.383 0 0 1 1.318,1.875 7.419,7.419 0 0 1 0.3,0.918 c -2.343,14.251 -4.683,28.247 -11,41.377 a 5.175,5.175 0 0 1 -0.8,-1.045 z"
     fill="#f4b087"
     stroke="rgba(0,0,0,0)"
     stroke-miterlimit="10"
     stroke-width="1" />
  <path
     id="palm"
     d="m 142.873,624.384 c -0.122,9.561 -2.746,17.535 -6.079,25.558 -2.664,6.419 -5.784,12.856 -8.3,20.017 a 12.32,12.32 0 0 0 -2.378,-2.625 8.4,8.4 0 0 0 -2.149,-1.274 7.18,7.18 0 0 0 -2.664,-0.515 8.111,8.111 0 0 0 -3.307,0.74 c -0.31,0.138 -0.618,0.3 -0.925,0.473 a 8.668,8.668 0 0 0 -2.086,-2.3 6.989,6.989 0 0 0 -4.245,-1.407 9.48,9.48 0 0 0 -3.609,0.776 c -0.344,0.142 -0.692,0.308 -1.044,0.489 a 5.788,5.788 0 0 0 -0.684,-1.124 5.414,5.414 0 0 0 -2.321,-1.674 7.024,7.024 0 0 0 -2.5,-0.425 13.707,13.707 0 0 0 -4.669,0.97 c -0.114,-0.242 -0.237,-0.489 -0.379,-0.743 a 8.112,8.112 0 0 0 -2.247,-2.58 6.726,6.726 0 0 0 -4.008,-1.283 9.688,9.688 0 0 0 -3.777,0.843 c -0.051,0.022 -0.1,0.051 -0.157,0.074 0.579,-6.03 1.19,-12.039 1.975,-18.009 a 31.552,31.552 0 0 0 0.333,-4.147 15.243,15.243 0 0 0 -0.5,-3.993 13.111,13.111 0 0 0 -1.713,-3.774 c -0.153,-0.482 -0.523,-1.71 -0.888,-3.387 a 36.837,36.837 0 0 1 -0.888,-7.626 19,19 0 0 1 0.841,-5.931 9.552,9.552 0 0 1 2.88,-4.435 98.37,98.37 0 0 1 9.1,-6.061 35.06,35.06 0 0 1 8.265,-3.519 13.521,13.521 0 0 0 -0.357,3 14.691,14.691 0 0 0 1.943,7.152 23.713,23.713 0 0 0 9.288,9.207 25.381,25.381 0 0 0 12.246,3.2 22.718,22.718 0 0 0 5.931,-0.774 c 1.847,-0.5 3.953,-1.2 6.037,-1.9 0.9,-0.3 1.781,-0.6 2.639,-0.888 0.011,2.844 0.4,5.457 0.4,7.655 z"
     fill="#f4b087" />
  <path
     id="wrist"
     d="m 144.752,607.479 a 14.642,14.642 0 0 0 -1.694,4.021 c -1.479,0.472 -3.079,1.018 -4.673,1.553 -2.065,0.7 -4.115,1.372 -5.775,1.821 a 18.141,18.141 0 0 1 -4.739,0.615 20.838,20.838 0 0 1 -10.031,-2.629 19.15,19.15 0 0 1 -7.514,-7.43 10.121,10.121 0 0 1 -1.374,-4.945 9.748,9.748 0 0 1 1.163,-4.517 16.823,16.823 0 0 1 3.591,-4.538 12.909,12.909 0 0 0 3.089,-5.125 c 0.655,-1.767 1.157,-3.5 1.774,-4.833 a 130.314,130.314 0 0 0 5.813,-15.239 94.417,94.417 0 0 1 19.581,3.53 45.042,45.042 0 0 1 10.012,4.425 29.406,29.406 0 0 1 6.951,5.851 c -4.959,9.303 -10.593,18.348 -16.174,27.44 z"
     fill="#f4b087" />
  <path
     id="forearm"
     d="m 190.617,518.255 c -2.812,9.711 -7.092,18.8 -11.812,27.787 -4.72,8.987 -9.873,17.857 -14.37,27.14 -0.412,0.849 -0.846,1.691 -1.271,2.535 a 34.716,34.716 0 0 0 -6.811,-5.415 55.469,55.469 0 0 0 -16.818,-6.431 111.9,111.9 0 0 0 -13.828,-2.091 c 4.208,-15.04 6.07,-30.523 7.4,-45.865 1.044,-12.073 2.695,-23.751 5.995,-34.744 a 99.9,99.9 0 0 1 4.339,-11.785 55.588,55.588 0 0 0 30.354,8.413 85.441,85.441 0 0 0 21.353,-2.927 80.028,80.028 0 0 1 0.727,10.74 c -0.002,10.886 -2.1,21.736 -5.258,32.643 z"
     fill="#f4b087" />
  <path
     id="elbow"
     d="m 198.103,457.449 a 40.35,40.35 0 0 0 -2.053,7.109 c -0.407,1.941 -0.738,3.88 -1.029,5.628 a 81.9,81.9 0 0 1 -21.227,3.055 c -10.041,-0.006 -19.666,-2.32 -28.391,-8.007 a 82.949,82.949 0 0 1 9.576,-14.807 10.181,10.181 0 0 0 2.049,-4.084 15.223,15.223 0 0 0 0.341,-3.628 c 0,-0.317 0,-0.622 0,-0.916 0,-0.408 0,-0.8 0.024,-1.168 v 0 c 0.083,-1.624 0.125,-3.244 0.169,-4.863 a 75.188,75.188 0 0 1 22.2,-3.782 43.8,43.8 0 0 1 13.557,2.006 33.965,33.965 0 0 1 10.976,5.939 167.672,167.672 0 0 1 -6.192,17.518 z"
     fill="#f4b087" />
  <path
     id="arm"
     d="m 205.618,435.206 a 38.68,38.68 0 0 0 -10.9,-5.552 48.325,48.325 0 0 0 -14.965,-2.229 78.3,78.3 0 0 0 -22.11,3.537 c 0.009,-1.063 0.028,-2.127 0.028,-3.189 0,-6.041 -0.126,-12.051 -0.126,-18.034 0,-6.427 0.146,-12.818 0.745,-19.178 0.773,-8.318 2.7,-16.655 2.714,-25.68 a 52.106,52.106 0 0 0 -1.039,-10.605 c -0.356,-1.721 -0.665,-3.444 -0.95,-5.169 a 190.857,190.857 0 0 0 45.632,-21.246 c 6.064,11.9 11.528,25.311 12.347,38.589 0.073,1.166 0.106,2.314 0.106,3.452 a 85.387,85.387 0 0 1 -1.534,14.84 c -2.959,17.017 -5.511,34.013 -9.948,50.464 z"
     fill="#f4b087" />
  <path
     id="stomach"
     data-name="Stomach"
     d="m 222.323,499.65 a 116.168,116.168 0 0 0 3.4,-29.219 c 0,-2.928 -0.087,-5.87 -0.238,-8.814 2.56,0.029 5.468,0.085 8.268,0.087 2.179,0 4.294,-0.035 6.161,-0.149 10.788,-0.675 21.82,-1.018 31.708,-4.58 a 38.3,38.3 0 0 0 13.644,-8.277 43.151,43.151 0 0 0 10.152,-15.6 23.472,23.472 0 0 1 10.747,-11.762 34,34 0 0 1 13.886,-4.005 c 0,29.285 -0.007,58.549 -0.008,87.4 a 11.463,11.463 0 0 0 -4.877,2.676 10.323,10.323 0 0 0 0,15.268 11.487,11.487 0 0 0 4.877,2.676 c 0,14.926 0,30.147 0,45.412 v 5.327 c -0.349,-0.014 -0.705,-0.049 -1.051,-0.049 a 23.53,23.53 0 0 0 -9.894,2.12 27.739,27.739 0 0 0 -8.275,5.975 c -5.817,5.961 -11.836,11.781 -17.728,17.787 a 33.309,33.309 0 0 1 -21,9.621 95.622,95.622 0 0 0 1.664,-17.349 c 0,-14.275 -3.65,-26.956 -10.975,-36.716 -7.072,-9.44 -17.587,-16.025 -31.074,-18.639 0.309,-3.1 0.5,-6.219 0.5,-9.365 0,-2.189 -0.09,-4.388 -0.292,-6.6 -0.393,-4.305 -0.787,-8.546 -0.786,-12.638 a 41.872,41.872 0 0 1 1.191,-10.587 z"
     fill="#f4b087" />
  <path
     id="wrist"
     data-name="Wrist"
     d="m 209.622,650.748 a 500.52,500.52 0 0 1 7.384,-83.419 c 1.325,-7.883 3.072,-15.847 4.167,-23.949 12.364,2.485 21.621,8.4 27.967,16.835 6.613,8.807 10.061,20.466 10.062,33.98 a 94.82,94.82 0 0 1 -2.681,21.692 6.327,6.327 0 0 0 -2.3,1.688 7.578,7.578 0 0 0 -1.342,2.436 23.371,23.371 0 0 0 -0.776,3.332 7.663,7.663 0 0 1 -0.613,2.118 63.119,63.119 0 0 1 -18.942,20.818 103.374,103.374 0 0 1 -22.848,12.029 q -0.072,-3.778 -0.078,-7.56 z"
     fill="#f4b087" />
  <path
     id="calf"
     d="m 237.752,1004.13 c -4.789,-17.444 -8.513,-34.83 -8.512,-52.478 a 115.7,115.7 0 0 1 1.317,-17.634 c 1.243,-8.085 2.537,-16.168 3.829,-24.254 a 44.545,44.545 0 0 0 14.766,8.433 60.946,60.946 0 0 0 19.741,2.929 164.71,164.71 0 0 0 22.389,-1.964 8.68,8.68 0 0 0 2.893,-1.069 c 1.185,-0.649 2.338,-1.448 3.407,-2.165 0,0.024 0,0.049 0,0.073 a 157.424,157.424 0 0 0 1.732,21.09 307.5,307.5 0 0 1 2.574,41.389 c 0,18.394 -1.252,36.823 -2.665,55.323 -0.393,5.145 -0.776,10.3 -1.08,15.471 a 40.51,40.51 0 0 0 -13.187,-2.141 c -11.768,0.016 -23.143,4.468 -33.185,8.888 q -6.94,-25.962 -14.019,-51.891 z"
     fill="#f4b087" />
  <path
     id="fingers"
     data-name="Fingers"
     d="m 268.106,1177.04 c -0.711,-0.035 -1.419,-0.057 -2.124,-0.078 a 4.183,4.183 0 0 1 -0.176,-1.163 5.794,5.794 0 0 1 0.639,-2.454 44.22,44.22 0 0 1 2.752,-4.448 17.385,17.385 0 0 0 1.409,-2.618 8.247,8.247 0 0 0 0.679,-3.159 c 0,-0.068 -0.016,-0.14 -0.019,-0.21 a 6.665,6.665 0 0 1 1.5,-1.231 2.27,2.27 0 0 1 1.134,-0.35 1.676,1.676 0 0 1 0.726,0.173 3.207,3.207 0 0 1 0.855,0.636 10.821,10.821 0 0 1 -0.716,1.8 c -0.714,1.452 -1.779,3.017 -2.739,4.788 a 17.561,17.561 0 0 0 -1.265,2.868 10.778,10.778 0 0 0 -0.56,3.357 9.788,9.788 0 0 0 0.257,2.119 c -0.194,0 -0.392,0.011 -0.584,0.011 -0.598,0 -1.188,-0.01 -1.768,-0.041 z m 9.893,-0.205 c -0.971,0 -1.92,0.033 -2.858,0.072 a 5.613,5.613 0 0 1 -0.382,-1.953 6.85,6.85 0 0 1 0.588,-2.627 40.624,40.624 0 0 1 2.542,-4.6 18.034,18.034 0 0 0 2.1,-4.913 3.919,3.919 0 0 1 1.643,-0.282 12.987,12.987 0 0 1 3.971,0.769 18.137,18.137 0 0 0 -2.824,5.466 29.126,29.126 0 0 0 -1.229,8.247 33.409,33.409 0 0 0 -3.551,-0.179 z m -19.058,-1.063 a 5.323,5.323 0 0 1 -1.079,-0.78 c 1.153,-3.456 2.229,-6.679 3.289,-9.848 a 8.67,8.67 0 0 0 0.447,-2.736 c 0,-0.063 -0.011,-0.125 -0.013,-0.188 0.113,-0.046 0.23,-0.092 0.351,-0.139 a 9.205,9.205 0 0 1 3.051,-0.688 2.149,2.149 0 0 1 1.068,0.217 1.213,1.213 0 0 1 0.53,0.721 2.219,2.219 0 0 1 0.142,0.787 4.549,4.549 0 0 1 -0.607,2.008 c -0.626,1.246 -1.753,2.74 -2.805,4.453 a 16.723,16.723 0 0 0 -1.415,2.822 9.661,9.661 0 0 0 -0.651,3.4 7.639,7.639 0 0 0 0.052,0.765 8.4,8.4 0 0 1 -2.36,-0.794 z m -11.21,-2.929 a 1.536,1.536 0 0 1 -0.762,-0.382 3.471,3.471 0 0 1 -0.816,-1.386 3.971,3.971 0 0 1 -0.291,-1.358 1.61,1.61 0 0 1 0.335,-1.028 4.639,4.639 0 0 1 0.875,-0.877 c 0.6,-0.488 1.421,-1.011 2.3,-1.641 a 10.332,10.332 0 0 0 2.59,-2.513 v 0 c 0.775,-1.147 1.6,-2.3 2.435,-3.463 a 2.686,2.686 0 0 1 1.109,-0.323 0.775,0.775 0 0 1 0.458,0.129 1.91,1.91 0 0 1 0.52,0.539 3.236,3.236 0 0 1 0.554,1.868 4.115,4.115 0 0 1 -0.213,1.292 l -3.005,9 a 9.58,9.58 0 0 0 -1.087,-0.068 21.811,21.811 0 0 0 -2.309,0.16 17.855,17.855 0 0 1 -1.823,0.136 h -0.016 a 4.085,4.085 0 0 1 -0.854,-0.081 z"
     fill="#f4b087"
     stroke="rgba(0,0,0,0)"
     stroke-miterlimit="10"
     stroke-width="1" />
  <path
     id="toes"
     data-name="toes"
     d="m 305.049,1173.247 a 7.364,7.364 0 0 1 -0.488,2.794 5.278,5.278 0 0 1 -1.639,2.163 11.932,11.932 0 0 1 -7.5,2.5 14.316,14.316 0 0 1 -6.478,-1.569 19.276,19.276 0 0 0 -2.851,-1.179 26.246,26.246 0 0 1 1.018,-7.788 13.356,13.356 0 0 1 4.372,-6.442 20.652,20.652 0 0 1 2.614,-1.492 12.383,12.383 0 0 1 5.014,-1.365 4.649,4.649 0 0 1 1.818,0.332 3.671,3.671 0 0 1 1.218,0.847 c 0.335,1.13 0.694,2.26 1.106,3.388 a 24.308,24.308 0 0 1 1.796,7.811 z"
     fill="#f4b087" />
  <path
     id="foot"
     data-name="foot"
     d="m 303.992,1118.692 a 33.575,33.575 0 0 1 -1.452,9.753 61.567,61.567 0 0 0 -2.718,17.766 55.033,55.033 0 0 0 0.966,10.237 10.035,10.035 0 0 0 -1.675,-0.141 16.9,16.9 0 0 0 -7.157,1.9 25.247,25.247 0 0 0 -2.771,1.574 19.959,19.959 0 0 0 -7.556,-1.805 8.649,8.649 0 0 0 -3.292,0.589 7.505,7.505 0 0 0 -1.774,-1.185 6.236,6.236 0 0 0 -2.668,-0.607 6.843,6.843 0 0 0 -3.376,0.939 9.747,9.747 0 0 0 -1.134,0.773 5.3,5.3 0 0 0 -1.047,-0.816 6.644,6.644 0 0 0 -3.357,-0.831 13.623,13.623 0 0 0 -4.8,1.036 v 0 a 6.4,6.4 0 0 0 -1.774,-1.722 5.144,5.144 0 0 0 -0.856,-0.43 c 0.773,-1.142 1.529,-2.3 2.233,-3.5 a 27.366,27.366 0 0 0 4.229,-13.974 24.83,24.83 0 0 0 -0.954,-6.723 11.616,11.616 0 0 1 -0.385,-3.071 11.4,11.4 0 0 1 1.241,-5.438 17.421,17.421 0 0 0 2.22,-6.271 128.087,128.087 0 0 0 17.494,1.379 c 6.877,0 13.855,-0.8 20.137,-3.223 a 35.65,35.65 0 0 1 0.226,3.791 z"
     fill="#f4b087" />
  <path
     id="ankle"
     data-name="ankle"
     d="m 302.38,1107.714 c 0.238,0.86 0.444,1.712 0.632,2.559 -5.725,2.406 -12.5,3.3 -19.386,3.29 a 125.433,125.433 0 0 1 -17.388,-1.41 39.066,39.066 0 0 0 -1.289,-6.669 q -6,-22.5 -11.993,-45.01 c 10.072,-4.469 21.178,-8.8 32,-8.783 a 35.6,35.6 0 0 1 12.932,2.334 c -0.215,4.528 -0.353,9.064 -0.353,13.6 -0.003,13.363 1.16,26.762 4.845,40.089 z"
     fill="#f4b087" />
  <path
     id="knee"
     data-name="knee"
     d="m 306.376,874.862 a 59.248,59.248 0 0 1 -4.025,15.055 63.685,63.685 0 0 0 -4.585,20.555 c -0.362,0.189 -0.719,0.391 -1.077,0.606 -1.251,0.765 -2.513,1.674 -3.643,2.387 a 15.642,15.642 0 0 1 -1.518,0.866 3.383,3.383 0 0 1 -0.869,0.316 160.552,160.552 0 0 1 -21.767,1.922 56.418,56.418 0 0 1 -18.272,-2.686 40.118,40.118 0 0 1 -15.374,-9.509 c 1.591,-9.965 3.169,-19.938 4.647,-29.933 0.668,-4.523 1.714,-9.228 2.606,-13.989 a 78.8,78.8 0 0 0 1.632,-14.383 39.736,39.736 0 0 0 -0.321,-5.152 36.524,36.524 0 0 1 5.953,-2.494 46.73,46.73 0 0 1 8.064,-1.887 61.017,61.017 0 0 1 8.008,-0.521 c 15.065,-0.007 30,5.415 43.177,13.323 -0.694,8.522 -1.561,17.031 -2.636,25.524 z"
     fill="#f4b087" />
  <path
     id="thigh"
     data-name="thigh"
     d="m 320.044,663.87 c -3.922,13.455 -5.27,28.418 -6.082,41.9 -1.374,23 -2.008,46.048 -2.175,69.068 -0.172,23.217 -0.685,46.377 -2.383,69.439 -13.216,-7.59 -28.164,-12.817 -43.569,-12.823 a 65.562,65.562 0 0 0 -8.607,0.561 51.167,51.167 0 0 0 -8.882,2.074 43.812,43.812 0 0 0 -5.357,2.145 c -4.934,-26.854 -11.476,-53.481 -18.971,-79.712 a 378.256,378.256 0 0 1 -14.211,-93.383 109.568,109.568 0 0 0 25.393,-13.16 67.677,67.677 0 0 0 20.28,-22.325 10.812,10.812 0 0 0 1.024,-3.1 17.118,17.118 0 0 1 0.839,-3.462 2.15,2.15 0 0 1 0.552,-0.777 1.929,1.929 0 0 1 0.419,-0.262 63.046,63.046 0 0 1 15.54,10.013 c 4.978,4.2 9.668,8.982 14.547,13.689 9.469,9.143 20.578,13.887 31.643,14.557 z"
     fill="#f4b087" />
  <path
     id="groin"
     data-name="groin"
     d="m 291.563,640.476 c -4.82,-4.647 -9.572,-9.5 -14.769,-13.889 A 68.725,68.725 0 0 0 261.102,616.31 l 0.028,-0.127 a 37.977,37.977 0 0 0 25.217,-11.067 c 5.837,-5.949 11.858,-11.772 17.736,-17.795 a 23.177,23.177 0 0 1 6.909,-5.01 18.953,18.953 0 0 1 8,-1.707 c 0.342,0 0.7,0.032 1.051,0.049 0,24.8 0,49.534 0,73.091 -9.862,-0.667 -19.788,-4.894 -28.48,-13.268 z"
     fill="#f4b087" />
  <path
     id="ballybutton"
     data-name="BallyButton"
     d="m 318.28,519.345 a 5.767,5.767 0 0 1 0,-8.6 7.229,7.229 0 0 1 9.678,0 5.771,5.771 0 0 1 0,8.6 7.227,7.227 0 0 1 -9.678,0 z"
     fill="#f4b087" />
  <path
     id="groin"
     data-name="Groin"
     d="m 326.522,580.489 a 19.087,19.087 0 0 1 10.454,3.161 38.923,38.923 0 0 1 8.555,7.854 84.01,84.01 0 0 0 17.829,16.147 52.845,52.845 0 0 0 21.419,8.332 88.023,88.023 0 0 0 -16.935,11.951 c -5.854,5.056 -11.323,10.438 -16.465,14.883 a 43.847,43.847 0 0 1 -26.778,10.994 c 0,-23.6 0,-48.377 0,-73.216 0.654,-0.065 1.299,-0.106 1.921,-0.106 z"
     fill="#f4b087" />
  <path
     id="toes"
     data-name="Toes"
     d="m 359.786,1178.144 a 76.7,76.7 0 0 0 -7.846,1.62 15.671,15.671 0 0 1 -3.991,0.563 9.344,9.344 0 0 1 -3.4,-0.582 6.364,6.364 0 0 1 -3.2,-2.639 9,9 0 0 1 -1.2,-4.765 17.593,17.593 0 0 1 1.142,-5.906 52.153,52.153 0 0 0 1.591,-5.282 8.9,8.9 0 0 1 4.324,-1.072 13.674,13.674 0 0 1 5.152,1.121 16.027,16.027 0 0 1 1.608,0.778 c 0.186,0.1 0.327,0.189 0.415,0.244 l 0.093,0.058 0.016,0.01 v 0 l 0.153,0.094 a 8.913,8.913 0 0 1 2.743,2.312 10.871,10.871 0 0 1 1.984,4.707 31.607,31.607 0 0 1 0.436,5.935 c 0.002,0.935 -0.012,1.87 -0.02,2.804 z"
     fill="#f4b087" />
  <path
     id="fingers"
     data-name="Fingers"
     d="m 364.366,1175.34 a 29.376,29.376 0 0 0 -1.111,-9.1 14.7,14.7 0 0 0 -1.51,-3.249 1.886,1.886 0 0 1 0.276,-0.118 5.092,5.092 0 0 1 1.537,-0.2 15.477,15.477 0 0 1 3.4,0.461 c 0.488,0.116 0.9,0.231 1.19,0.318 a 11.009,11.009 0 0 1 2.7,3.753 12.13,12.13 0 0 1 0.931,4.8 18.167,18.167 0 0 1 -0.791,5.078 c -2.209,0.086 -4.423,0.23 -6.642,0.458 0.011,-0.713 0.02,-1.445 0.02,-2.201 z m 15.611,1.662 h -0.157 v 0 q -1.543,-0.023 -3.084,-0.025 c -0.341,0 -0.68,0.01 -1.02,0.01 a 21.915,21.915 0 0 0 0.622,-4.977 16.648,16.648 0 0 0 -1.3,-6.6 15.2,15.2 0 0 0 -2.024,-3.379 12.75,12.75 0 0 1 3.814,-0.518 24.88,24.88 0 0 1 5.859,0.806 c 0.039,0.322 0.075,0.532 0.081,0.571 l 0.083,0.321 c 1.256,3.734 2.517,7.477 3.832,11.381 a 10.677,10.677 0 0 1 -6.673,2.409 z m 14.459,-4.156 a 23.454,23.454 0 0 0 -2.921,-0.244 q -0.335,0 -0.685,0.022 l -3.6,-10.679 a 9.466,9.466 0 0 1 -0.086,-1.255 4.422,4.422 0 0 1 0.293,-1.782 l 0.09,-0.145 0.031,-0.03 a 0.619,0.619 0 0 1 0.241,-0.032 5.138,5.138 0 0 1 1.921,0.577 c 1.052,1.471 2.1,2.916 3.1,4.329 a 10.106,10.106 0 0 0 2.5,2.364 c 1.3,0.9 2.55,1.615 3.311,2.288 a 3.436,3.436 0 0 1 0.771,0.883 1.579,1.579 0 0 1 0.209,0.818 3.562,3.562 0 0 1 -0.22,1.132 4.375,4.375 0 0 1 -0.561,1.147 1.665,1.665 0 0 1 -0.766,0.619 3.506,3.506 0 0 1 -1.3,0.193 h -0.019 a 19.383,19.383 0 0 1 -2.309,-0.205 z"
     fill="#f4b087"
     stroke="rgba(0,0,0,0)"
     stroke-miterlimit="10"
     stroke-width="1" />
  <path
     id="foot"
     data-name="Foot"
     d="m 385.07,1152.16 c 0.417,0.74 0.871,1.455 1.32,2.172 a 4.6,4.6 0 0 0 -1.355,0.609 4.806,4.806 0 0 0 -1.372,1.406 5.962,5.962 0 0 0 -0.634,1.355 28.3,28.3 0 0 0 -6.2,-0.745 15.963,15.963 0 0 0 -6.731,1.313 10.248,10.248 0 0 0 -1.208,0.657 c -0.261,-0.071 -0.555,-0.147 -0.88,-0.224 a 19.884,19.884 0 0 0 -4.452,-0.583 8.441,8.441 0 0 0 -3.969,0.852 5.4,5.4 0 0 0 -0.937,0.632 14.233,14.233 0 0 0 -1.627,-1.1 v 0 a 19.354,19.354 0 0 0 -9.819,-2.982 13.892,13.892 0 0 0 -3.315,0.4 61.574,61.574 0 0 0 0.611,-8.737 107.2,107.2 0 0 0 -1.7,-17.54 c -0.291,-1.714 -0.871,-3.46 -1.351,-5.247 a 20.3,20.3 0 0 1 -0.864,-5.163 7.582,7.582 0 0 1 0.483,-2.8 6.466,6.466 0 0 1 0.378,-0.774 c 0.123,0.084 0.244,0.174 0.369,0.252 a 15.569,15.569 0 0 0 4.172,1.667 c 1.383,0.375 2.727,0.669 3.881,1.034 a 30.2,30.2 0 0 0 9.148,1.261 90.692,90.692 0 0 0 9.339,-0.646 86.121,86.121 0 0 1 8.789,-0.622 c 0.677,0 1.341,0.024 2,0.063 a 26.16,26.16 0 0 0 1.534,5.049 c 0.451,1.078 0.9,2.042 1.206,2.957 a 8.229,8.229 0 0 1 0.5,2.706 7.581,7.581 0 0 1 -0.345,2.221 23.454,23.454 0 0 0 -1.024,6.787 27.9,27.9 0 0 0 4.053,13.77 z"
     fill="#f4b087" />
  <path
     id="ankle"
     data-name="Ankle"
     d="m 380.727,1100.247 a 49.834,49.834 0 0 0 -2.1,13 c 0,0.278 0.01,0.558 0.017,0.839 -0.5,-0.018 -0.995,-0.038 -1.493,-0.038 a 90.119,90.119 0 0 0 -9.261,0.646 86.819,86.819 0 0 1 -8.868,0.622 25.682,25.682 0 0 1 -7.778,-1.051 c -1.269,-0.4 -2.516,-0.679 -3.64,-0.973 a 20.01,20.01 0 0 1 -2.261,-0.7 4.653,4.653 0 0 1 -2.013,-1.322 2.875,2.875 0 0 1 -0.484,-0.933 5.317,5.317 0 0 1 -0.21,-1.58 13.566,13.566 0 0 1 0.471,-3.239 c 3.185,-12.662 4.2,-25.414 4.2,-38.134 0,-4.421 -0.128,-8.839 -0.327,-13.25 a 44.887,44.887 0 0 1 14.492,-2.36 c 10.362,0 20.752,3.348 30.031,8.494 q -5.386,19.994 -10.776,39.979 z"
     fill="#f4b087" />
  <path
     id="calf"
     data-name="Calf"
     d="m 415.989,949.4 q 0.027,1.244 0.029,2.489 c 0,16.192 -3.612,32.142 -8.052,48.058 q -7.77,27.866 -15.244,55.8 c -9.556,-5.132 -20.281,-8.525 -31.249,-8.529 a 49.614,49.614 0 0 0 -14.732,2.207 c -0.371,-6.619 -0.874,-13.221 -1.356,-19.789 -1.267,-17.311 -2.427,-34.528 -2.427,-51.721 a 290.035,290.035 0 0 1 2.265,-37.712 177.263,177.263 0 0 0 1.839,-22.947 c 0,-0.055 0,-0.109 0,-0.164 a 92.317,92.317 0 0 0 25.662,3.79 71.681,71.681 0 0 0 38.314,-10.608 c 2.477,13.035 4.647,26.022 4.951,39.126 z"
     fill="#f4b087" />
  <path
     id="knee"
     data-name="Knee"
     d="m 406.662,887.066 c 1.07,6.153 2.274,12.275 3.455,18.381 a 66.872,66.872 0 0 1 -37.4,10.875 88.311,88.311 0 0 1 -25.8,-4.038 70.878,70.878 0 0 0 -4.568,-22.336 c -4.492,-11.522 -5.471,-24.131 -6.288,-36.873 -0.029,-0.436 -0.044,-0.843 -0.044,-1.222 a 6.049,6.049 0 0 1 0.569,-2.925 4.061,4.061 0 0 1 0.832,-1.058 7.4,7.4 0 0 1 1.593,-1.093 c 12.122,-6.426 24.8,-10.6 37.571,-10.6 a 56.589,56.589 0 0 1 25.547,6.107 q -0.14,2.67 -0.142,5.334 c 0.002,13.305 2.431,26.475 4.675,39.448 z"
     fill="#f4b087" />
  <path
     id="thigh"
     data-name="Thigh"
     d="m 435.235,673.326 c 0,15.324 -2.426,30.565 -5.666,45.628 -7.881,36.666 -17.692,72.993 -25.672,109.8 a 81.768,81.768 0 0 0 -1.376,8.641 60.94,60.94 0 0 0 -25.935,-5.772 c -13.773,0 -27.154,4.48 -39.706,11.13 a 12.912,12.912 0 0 0 -1.693,1.086 c -0.007,-0.074 -0.016,-0.163 -0.022,-0.232 -0.024,-0.252 -0.042,-0.468 -0.056,-0.632 l -0.014,-0.2 v -0.057 -0.014 0 0 c -0.746,-25.067 -1.392,-50.145 -2.143,-75.226 -0.636,-21.218 -0.888,-42.52 -2.263,-63.8 -0.839,-12.831 -1.358,-27.413 -6.082,-40.34 v -4.968 a 48.386,48.386 0 0 0 29.761,-12.1 c 5.3,-4.585 10.752,-9.952 16.461,-14.881 a 85.012,85.012 0 0 1 15.652,-11.157 59.932,59.932 0 0 0 4.266,8.634 64.059,64.059 0 0 0 25.6,23.686 c 5.21,2.738 10.4,5.616 15.734,8.312 a 4.6,4.6 0 0 0 2.106,0.449 c 0.182,0 0.35,-0.013 0.517,-0.021 q 0.533,6.021 0.531,12.034 z"
     fill="#f4b087" />
  <path
     id="wrist"
     data-name="Wrist"
     d="m 423.929,543.674 c 0.205,1.6 0.419,3.182 0.614,4.739 l 0.01,0.075 1.03,6.5 c 0,0.145 0,0.289 0,0.434 0,9.823 1.649,18.8 3.417,27.622 1.768,8.822 3.664,17.52 4.279,26.861 0.846,12.785 1.022,33.154 1.179,46.835 -0.1,0.006 -0.209,0.013 -0.279,0.011 -0.07,-0.002 -0.108,0 -0.139,0 -5.2,-2.631 -10.342,-5.479 -15.581,-8.233 a 57.594,57.594 0 0 1 -31.985,-52.726 75.521,75.521 0 0 1 1.737,-15.846 c 2.229,-10.349 6.728,-18.331 13.152,-24.381 5.903,-5.553 13.495,-9.47 22.566,-11.891 z"
     fill="#f4b087" />
  <path
     id="arm"
     data-name="Arm"
     d="m 439.008,436.409 c -0.223,-1.091 -0.4,-2.09 -0.506,-2.625 v 0 c -3.134,-15.471 -5.383,-31.148 -7.874,-46.829 a 99.016,99.016 0 0 1 -1.257,-15.529 80.685,80.685 0 0 1 12.066,-43.2 141.661,141.661 0 0 0 44.431,18.974 q -0.513,3.557 -1.192,7.116 a 50.847,50.847 0 0 0 -0.869,9.63 c 0,6.37 0.966,12.328 1.506,18.249 1.265,13.765 2.7,27.343 2.7,40.993 0,2.672 -0.079,5.349 -0.2,8.028 -4.06,-1.253 -7.662,-2.265 -10.959,-3 a 50.8,50.8 0 0 0 -11.077,-1.394 33.567,33.567 0 0 0 -13.814,2.986 81.73,81.73 0 0 0 -12.8,7.354 c -0.046,-0.249 -0.105,-0.503 -0.155,-0.753 z"
     fill="#f4b087" />
  <path
     id="elbow"
     data-name="Elbow"
     d="m 440.819,441.556 a 81.246,81.246 0 0 1 12.964,-7.563 28.971,28.971 0 0 1 12,-2.608 46.4,46.4 0 0 1 10.086,1.284 c 3.406,0.759 7.256,1.855 11.723,3.253 -0.023,0.61 -0.036,1.228 -0.036,1.855 a 31.376,31.376 0 0 0 1.174,8.933 25.25,25.25 0 0 0 4.924,9.15 60.356,60.356 0 0 1 6.746,10.032 c -8.421,4.877 -17.87,6.876 -27.515,6.877 a 85.546,85.546 0 0 1 -23.97,-3.693 86.273,86.273 0 0 0 -8.096,-27.52 z"
     fill="#f4b087" />
  <path
     id="forearm"
     data-name="Forearm"
     d="m 482.13,576.475 q -5.791,-10.519 -11.49,-21.083 c -5.75,-10.7 -11.174,-21.481 -15.146,-32.585 -3.972,-11.104 -6.5,-22.521 -6.5,-34.535 q 0,-2.872 0.2,-5.79 0.179,-2.637 0.178,-5.212 c 0,-1.121 -0.033,-2.231 -0.082,-3.336 a 89.011,89.011 0 0 0 23.595,3.391 c 10.168,0 20.365,-2.1 29.541,-7.346 a 79.27,79.27 0 0 1 4.16,11.515 c 2.59,9.3 3.8,19.216 4.672,29.224 a 321.149,321.149 0 0 0 8.108,50.258 c -6.339,1.251 -13.182,2.326 -19.747,4.523 a 45.127,45.127 0 0 0 -10.632,5.047 34.729,34.729 0 0 0 -6.857,5.929 z"
     fill="#f4b087" />
  <path
     id="wrist"
     data-name="Wrist"
     d="m 500.91,611.51 a 25.141,25.141 0 0 0 -2.083,-4.951 q -7.2,-12.895 -14.346,-25.8 a 29.957,29.957 0 0 1 7.016,-6.407 47.268,47.268 0 0 1 14.8,-6.041 c 4.782,-1.2 9.762,-2.028 14.626,-3 2.167,4.244 3.967,9.393 6.023,14.547 2.187,5.445 4.687,10.906 8.5,15.331 -0.169,4.6 -1.053,8.444 -2.832,11.469 a 15.263,15.263 0 0 1 -3.67,4.239 19.964,19.964 0 0 1 -5.716,3.112 18.473,18.473 0 0 1 -6.361,1.048 c -5.226,0.005 -10.856,-1.805 -15.957,-3.547 z"
     fill="#f4b087" />
  <path
     id="fingers"
     data-name="Fingers"
     d="m 536.216,698.842 c -3,-6.4 -5.7,-14.361 -8.948,-25.755 -0.016,-0.188 -0.038,-0.53 -0.038,-0.973 a 9.354,9.354 0 0 1 0.693,-3.787 2.834,2.834 0 0 1 0.908,-1.146 2.71,2.71 0 0 1 1.626,-0.431 11.769,11.769 0 0 1 4.91,1.478 q -0.041,0.792 -0.04,1.6 a 53.9,53.9 0 0 0 2.649,15.271 132.007,132.007 0 0 0 8.762,20.976 c 1.186,2.312 2.271,4.3 3.147,5.85 a 9.16,9.16 0 0 0 -3.167,0.74 6.458,6.458 0 0 0 -1.275,0.8 67.726,67.726 0 0 1 -9.227,-14.623 z m 22.107,13.517 c -0.906,0 -1.95,-0.089 -3.038,-0.192 a 162.351,162.351 0 0 1 -7.825,-15.062 110.742,110.742 0 0 1 -5.262,-13.793 48.74,48.74 0 0 1 -2.313,-13.485 24.1,24.1 0 0 1 0.14,-2.661 v -0.009 c 0.341,-3.164 1.019,-5.073 1.6,-5.951 a 2.175,2.175 0 0 1 0.69,-0.731 0.946,0.946 0 0 1 0.5,-0.128 3.766,3.766 0 0 1 1.762,0.625 15.886,15.886 0 0 1 3.27,2.758 c 0.418,0.445 0.758,0.841 1.011,1.146 -0.005,0.148 -0.007,0.24 -0.007,0.263 l 0.011,0.234 a 163.822,163.822 0 0 0 3.645,23.554 85.119,85.119 0 0 0 9.019,22.623 2.5,2.5 0 0 1 -1.093,0.575 7.958,7.958 0 0 1 -2.093,0.23 z m -35.75,-15.015 c -1.822,-4.481 -3.18,-9.284 -4.725,-14.1 a 55.241,55.241 0 0 1 -1.525,-6.548 9.026,9.026 0 0 1 1.674,-3.644 2.018,2.018 0 0 1 0.654,-0.508 1.267,1.267 0 0 1 0.541,-0.11 2.982,2.982 0 0 1 1.205,0.315 8.717,8.717 0 0 1 2.039,1.4 c 0.223,0.2 0.4,0.374 0.544,0.52 a 195.854,195.854 0 0 0 8.02,23.687 6.542,6.542 0 0 0 -0.34,0.685 12.345,12.345 0 0 0 -0.779,3.672 c -0.079,0.878 -0.123,1.724 -0.2,2.489 a 7.547,7.547 0 0 1 -0.617,2.654 2.452,2.452 0 0 1 -0.247,0.382 41.236,41.236 0 0 1 -6.242,-10.894 z m 34.358,-9.5 a 158.975,158.975 0 0 1 -3.508,-22.789 16.407,16.407 0 0 1 1.078,-5.131 7.864,7.864 0 0 1 2.125,-3.112 5.347,5.347 0 0 1 2.706,-1.185 c 0.944,8.543 2.169,16.979 2.758,25.381 a 87.646,87.646 0 0 0 1.394,9.252 51.672,51.672 0 0 1 1.017,9.19 27.1,27.1 0 0 1 -0.793,6.606 81.606,81.606 0 0 1 -6.775,-18.214 z"
     fill="#f4b087"
     stroke="rgba(0,0,0,0)"
     stroke-miterlimit="10"
     stroke-width="1" />
  <path
     id="palm"
     data-name="Palm"
     d="m 561.805,612.608 a 19.186,19.186 0 0 0 -1.774,4.847 68,68 0 0 0 -1.371,7.988 c -0.276,2.328 -0.39,4 -0.392,4.028 v 0.013 0 c -0.141,2.232 -0.205,4.454 -0.205,6.666 0,5.029 0.331,10 0.8,14.94 a 10,10 0 0 0 -5.243,2.293 11.783,11.783 0 0 0 -2.827,3.685 16.118,16.118 0 0 0 -0.91,2.256 17.53,17.53 0 0 0 -2.989,-2.284 8.141,8.141 0 0 0 -4.069,-1.251 5.524,5.524 0 0 0 -2.788,0.742 6.332,6.332 0 0 0 -1.753,1.533 10.862,10.862 0 0 0 -1.78,3.511 c -0.19,0.594 -0.354,1.243 -0.5,1.934 a 14.411,14.411 0 0 0 -5.543,-1.316 7.275,7.275 0 0 0 -4.226,1.245 7.083,7.083 0 0 0 -1.986,2.126 10.264,10.264 0 0 0 -1.275,3.408 c -0.222,-0.123 -0.428,-0.253 -0.669,-0.365 a 7.46,7.46 0 0 0 -3.109,-0.732 5.826,5.826 0 0 0 -2.406,0.51 6.433,6.433 0 0 0 -1.946,1.4 23.452,23.452 0 0 0 -2.856,-6.717 48.49,48.49 0 0 1 -6.631,-16.056 128.953,128.953 0 0 1 -2.4,-17.555 c -0.311,-3.51 -0.308,-7.3 -0.722,-11.179 -0.056,-0.526 -0.123,-1.056 -0.2,-1.586 4.533,1.485 9.613,2.906 14.832,2.917 a 23.045,23.045 0 0 0 7.918,-1.322 24.511,24.511 0 0 0 7.006,-3.838 20.239,20.239 0 0 0 6.311,-8.747 30.19,30.19 0 0 0 1.784,-8.279 68.524,68.524 0 0 1 13.262,5.612 34.062,34.062 0 0 1 9.771,8.128 6.689,6.689 0 0 0 -1.114,1.445 z"
     fill="#f4b087" />
  <path
     id="thumb"
     data-name="Thumb"
     d="m 586.27,638.351 a 8.643,8.643 0 0 1 -3.43,0.687 20.73,20.73 0 0 1 -7.82,-2.112 10.121,10.121 0 0 1 -2.546,-1.8 c -1.479,-1.313 -3.119,-3.1 -4.99,-4.657 a 16.545,16.545 0 0 0 -3.078,-2.082 10.41,10.41 0 0 0 -1.419,-0.583 c 0.18,-1.811 0.508,-4.6 1.023,-7.231 a 25.906,25.906 0 0 1 1.389,-4.981 6.392,6.392 0 0 1 0.287,-0.585 c 3.406,4.671 7.577,8.322 11.655,11.787 a 92.542,92.542 0 0 1 11.035,10.329 10.666,10.666 0 0 1 -2.106,1.228 z"
     fill="#f4b087" />
  <path
     id="chest"
     d="m 419.326,457.141 a 236.241,236.241 0 0 1 -39.161,-3.09 29.992,29.992 0 0 1 -10.952,-3.829 19.932,19.932 0 0 1 -7.393,-8.53 46.525,46.525 0 0 0 -5.1,-7.871 c -1.86,-2.428 -3.741,-4.742 -5.292,-7.113 a 29.7,29.7 0 0 0 -12.541,-10.629 38.067,38.067 0 0 0 -14.273,-3.373 c 0.009,-60.624 0.026,-121.222 0.059,-178.3 9.2,-0.446 18.33,-3.824 27.219,-10.431 v 0 c 0.224,-0.168 0.464,-0.351 0.7,-0.524 a 254.325,254.325 0 0 0 85.084,102.21 85.268,85.268 0 0 0 -12.855,45.762 103.6,103.6 0 0 0 1.314,16.245 q 0.955,6.018 1.887,12.056 c -3.11,16.545 -7.406,37.475 -8.696,57.417 z"
     fill="#f4b087" />
  <path
     id="nipple"
     d="m 386.129,347.907 a 7.222,7.222 0 0 1 -9.676,0 5.767,5.767 0 0 1 0,-8.6 7.222,7.222 0 0 1 9.676,0 5.77,5.77 0 0 1 0,8.6 z"
     fill="#ffffff" />
  <path
     id="Adams Apple"
     data-name="Adams Apple"
     d="m 326.1,210.359 a 4.1,4.1 0 0 1 -7.589,0 12.29,12.29 0 0 1 0,-11.807 4.1,4.1 0 0 1 7.589,0 12.3,12.3 0 0 1 0,11.807 z"
     fill="#f6c09f" />
  <path
     id="chest"
     data-name="Chest"
     d="m 216.874,404.071 c 1.084,-6.192 2.106,-12.383 3.182,-18.547 a 89.863,89.863 0 0 0 1.6,-15.623 q 0,-1.841 -0.115,-3.736 c -0.916,-14.5 -6.8,-28.567 -13.062,-40.813 a 185.478,185.478 0 0 0 18.095,-13.804 c 27.736,-24.062 48.935,-54.456 64.939,-87.193 0.472,0.279 0.946,0.558 1.394,0.83 9,5.449 18.084,8.708 27.2,9.2 -0.033,57.1 -0.05,117.723 -0.059,178.371 a 38.6,38.6 0 0 0 -16.1,4.593 28.035,28.035 0 0 0 -12.76,14.061 38.608,38.608 0 0 1 -9.064,13.991 32.465,32.465 0 0 1 -8.782,5.944 54.367,54.367 0 0 1 -15.841,4.238 c -5.706,0.766 -11.751,1.051 -17.863,1.426 -1.713,0.1 -3.754,0.14 -5.882,0.14 -2.864,0 -5.88,-0.063 -8.559,-0.089 -1.367,-18.318 -5.151,-36.623 -8.323,-52.989 z"
     fill="#f4b087" />
  <path
     id="nipple"
     data-name="Nipple"
     d="m 254.447,339.304 a 7.222,7.222 0 0 1 9.676,0 5.77,5.77 0 0 1 0,8.6 7.222,7.222 0 0 1 -9.676,0 5.767,5.767 0 0 1 0,-8.6 z"
     fill="#ffffff" />
  <path
     id="lip"
     d="m 308.985,164.712 c -0.134,-0.04 -0.183,0.155 -0.059,0.2 4.365,1.74 7.815,2.886 12.631,2.657 4.1,-0.2 7.382,-0.552 10.84,-2.82 a 0.1,0.1 0 0 0 0.021,-0.141 0.1,0.1 0 0 0 -0.095,-0.039 42.992,42.992 0 0 1 -23.338,0.143 z m 28.251,-7.254 c -3.279,1.065 -3.649,1.065 -9.236,0.195 -2.748,-0.425 -5.515,0.591 -8.272,0.207 a 19.574,19.574 0 0 0 -5.96,-0.128 c -3.388,0.477 -5.916,1.553 -10.063,0.08 -0.131,-0.047 -0.008,0 0.1,0.075 0.132,0.1 0.271,0.191 0.408,0.285 a 7.541,7.541 0 0 0 6.332,2.478 29.012,29.012 0 0 1 9.121,0.068 c 2.5,0.374 5.711,-0.687 9.149,0 3.438,0.687 7.851,-2.313 8.5,-3.14 v 0 c 0.063,-0.052 -0.02,-0.146 -0.079,-0.12 z"
     fill="#1a1818" />
  <path
     id="nose"
     d="m 313.922,142.058 c -3.086,-0.244 -2.82,1.7 -0.8,2.15 1.639,0.364 -0.007,0.742 -1.557,0.559 a 11.7,11.7 0 0 1 -1.182,-0.537 c -1.574,-0.842 -1.511,-2.619 -1.158,-4.058 a 27.349,27.349 0 0 1 2.3,-5.366 0.05805385,0.05805385 0 1 0 -0.1,-0.059 c -1.5,2.294 -3.481,4.5 -3.471,7.379 0.013,2.546 2.653,3.7 4.865,3.837 a 0.3,0.3 0 0 0 0.148,-0.557 c -0.108,-0.062 -0.222,-0.111 -0.334,-0.165 a 4.623,4.623 0 0 0 1.66,-0.13 7.262,7.262 0 0 1 4.432,0.17 c 1.341,0.322 -1.717,-2.978 -4.803,-3.223 z m 16.58,-7.638 a 0.058,0.058 0 0 0 -0.069,-0.019 0.06,0.06 0 0 0 -0.032,0.076 27.162,27.162 0 0 1 2.3,5.368 c 0.359,1.443 0.419,3.216 -1.152,4.061 -0.663,0.358 -1.373,0.6 -2.052,0.907 -1.181,-0.009 -2,-0.311 -0.681,-0.605 2.02,-0.45 2.277,-2.394 -0.806,-2.15 -3.083,0.244 -6.136,3.545 -4.8,3.224 a 7.221,7.221 0 0 1 4.421,-0.17 4.647,4.647 0 0 0 1.21,0.15 0.285,0.285 0 0 0 -0.016,0.059 0.3,0.3 0 0 0 0.293,0.311 c 2.212,-0.129 4.844,-1.285 4.851,-3.826 0.007,-2.891 -1.935,-5.087 -3.467,-7.386 z"
     fill="#1a1818" />
  <path
     id="right eye brow"
     data-name="right eye brow"
     d="m 355.955,102.531 -0.016,-0.008 a 11.657,11.657 0 0 0 -6.108,-1.947 0.062,0.062 0 0 0 0.03,-0.081 0.074,0.074 0 0 0 -0.03,-0.03 c -0.076,-0.034 -0.155,-0.055 -0.234,-0.083 -0.079,-0.028 -0.1,0.1 -0.028,0.132 0.05,0.021 0.1,0.038 0.156,0.055 a 28.25,28.25 0 0 0 -3.9,0.008 33.475,33.475 0 0 0 -7.464,1.486 c -0.083,-0.014 -0.171,-0.018 -0.252,-0.035 -0.081,-0.017 -0.089,0.1 -0.026,0.123 -0.187,0.062 -0.369,0.13 -0.557,0.194 a 2.922,2.922 0 0 0 -0.716,0.1 0.06,0.06 0 0 0 -0.038,0.075 0.059,0.059 0 0 0 0.058,0.041 h 0.07 c -0.224,0.08 -0.451,0.152 -0.673,0.236 h -0.04 c -0.013,0 -0.015,0.016 -0.023,0.026 -0.191,0.073 -0.374,0.152 -0.561,0.228 -0.04,-0.009 -0.083,-0.015 -0.122,-0.025 -0.039,-0.01 -0.067,0.068 -0.024,0.084 -0.085,0.032 -0.171,0.067 -0.254,0.1 -0.133,-0.006 -0.272,0 -0.4,-0.014 -0.072,0 -0.088,0.115 -0.025,0.128 0.034,0.006 0.074,0.008 0.108,0.016 -0.181,0.075 -0.366,0.148 -0.545,0.226 a 2.973,2.973 0 0 0 -0.806,0.188 c -0.069,0.026 -0.044,0.13 0.026,0.109 a 1.612,1.612 0 0 1 0.187,-0.021 c -0.23,0.1 -0.459,0.212 -0.683,0.319 -0.036,0.007 -0.08,0 -0.114,0.008 -0.034,0.008 -0.041,0.034 -0.039,0.064 -0.169,0.085 -0.333,0.171 -0.5,0.256 a 0.641,0.641 0 0 1 -0.14,-0.01 c -0.043,-0.01 -0.06,0.075 -0.016,0.083 h 0.016 c -0.125,0.066 -0.245,0.134 -0.369,0.2 a 1.339,1.339 0 0 1 -0.179,0 c -0.059,-0.008 -0.064,0.085 -0.013,0.093 h 0.013 c -0.168,0.092 -0.34,0.179 -0.5,0.272 v 0 c -0.056,0.032 -0.112,0.059 -0.168,0.091 a 1,1 0 0 0 -0.491,0.814 2.114,2.114 0 0 1 -0.6,0.1 l -0.008,0.008 c -0.04,-0.013 -0.091,-0.026 -0.132,-0.042 a 0.06,0.06 0 0 0 -0.071,0.048 0.059,0.059 0 0 0 0.016,0.052 2.438,2.438 0 0 0 0.54,0.3 0.4,0.4 0 0 0 0.023,0.422 3.5,3.5 0 0 1 -1.084,-0.621 c -0.084,-0.072 -0.2,0.052 -0.134,0.145 a 4.44,4.44 0 0 0 4.416,1.349 c 0.13,-0.036 0.088,-0.242 -0.032,-0.262 -0.12,-0.02 -0.258,-0.04 -0.387,-0.059 a 16.033,16.033 0 0 0 6.1,-1.024 c 0.67,-0.245 1.333,-0.524 1.992,-0.815 1.124,-0.488 2.236,-1.007 3.367,-1.453 2.344,-0.921 7.431,-1.688 7.515,-1.789 1.384,0.162 2.783,0.413 4.241,0.705 0.13,0.027 0.181,-0.147 0.093,-0.226 -0.14,-0.125 -0.315,-0.225 -0.465,-0.339 z"
     fill="#1a1818" />
  <path
     id="eye"
     d="m 332.988,118.64 c -0.488,-0.062 -0.346,-0.88 0.165,-0.792 0.04,0 0.06,0.021 0.1,0.021 1.483,-1.424 2.132,-2.928 4.046,-3.985 a 15.729,15.729 0 0 1 5.1,-1.485 c 4.472,-0.671 7.056,0.121 10.918,2.317 a 16.813,16.813 0 0 0 2.418,1.3 c 0,0.123 -6.588,3.38 -10.837,3.782 -0.6,0.057 -1.194,0.082 -1.784,0.082 -3.412,0.001 -6.691,-0.841 -10.126,-1.24 z m 5.46,0.229 a 38.037,38.037 0 0 0 4.028,0.467 h 0.02 a 13.188,13.188 0 0 0 1.789,0 15.48,15.48 0 0 0 2.155,-0.264 24.632,24.632 0 0 0 3.03,-0.752 14.506,14.506 0 0 0 2.257,-0.895 7.848,7.848 0 0 0 1.078,-0.569 0.933,0.933 0 0 0 0.569,-0.631 0.151,0.151 0 0 1 -0.062,-0.285 c 0.733,-0.549 -3.907,-2.48 -4.411,-2.642 -0.323,-0.1 -0.666,-0.2 -1.008,-0.282 a 4.089,4.089 0 0 1 0.729,2.333 4.3,4.3 0 0 1 -2.175,3.721 15.658,15.658 0 0 1 -2.156,0.263 12.889,12.889 0 0 1 -1.788,0 h -0.02 a 4.349,4.349 0 0 1 -2.681,-3.985 2.922,2.922 0 0 1 0.67,-2.091 v 0 a 9.779,9.779 0 0 0 -2.968,1.341 c -0.833,0.569 -2.379,1.545 -1.728,2.826 0.1,0.2 0.081,0.2 -0.04,0.4 a 0.067,0.067 0 0 1 -0.116,0.025 c 0.262,0.915 2.146,0.915 2.828,1.02 z m 16.264,-3.761 c -1.67,-0.809 -3.092,-1.976 -4.825,-2.7 a 17.86,17.86 0 0 0 -2.472,-0.806 22.308,22.308 0 0 0 -15.427,3.479 c -0.061,0.042 -0.121,-0.053 -0.061,-0.1 3.035,-2.117 6.334,-3.829 10.135,-4.082 a 19.183,19.183 0 0 1 5.345,0.429 16.476,16.476 0 0 1 7.4,3.653 c 0.061,0.053 0,0.136 -0.063,0.136 a 0.077,0.077 0 0 1 -0.032,-0.009 z"
     fill="#1a1818"
     stroke="rgba(0,0,0,0)"
     stroke-miterlimit="10"
     stroke-width="1" />
  <path
     id="right eye brow"
     data-name="right eye brow"
     d="m 285.682,102.865 c -0.088,0.079 -0.036,0.253 0.093,0.226 1.459,-0.293 2.857,-0.544 4.241,-0.705 0.084,0.1 5.171,0.868 7.515,1.789 1.132,0.446 2.243,0.965 3.367,1.453 0.659,0.291 1.321,0.57 1.992,0.815 a 16.029,16.029 0 0 0 6.1,1.024 c -0.13,0.019 -0.268,0.04 -0.387,0.059 -0.119,0.019 -0.163,0.226 -0.033,0.262 a 4.439,4.439 0 0 0 4.416,-1.349 c 0.068,-0.092 -0.05,-0.217 -0.133,-0.145 a 3.506,3.506 0 0 1 -1.084,0.621 0.4,0.4 0 0 0 0.022,-0.422 2.444,2.444 0 0 0 0.541,-0.3 0.055,0.055 0 0 0 0.015,-0.052 0.059,0.059 0 0 0 -0.071,-0.048 c -0.04,0.016 -0.091,0.03 -0.132,0.042 l -0.008,-0.008 a 2.113,2.113 0 0 1 -0.595,-0.1 1,1 0 0 0 -0.491,-0.814 c -0.056,-0.032 -0.112,-0.059 -0.167,-0.091 v 0 c -0.164,-0.093 -0.336,-0.18 -0.5,-0.272 h 0.013 c 0.051,-0.008 0.047,-0.1 -0.013,-0.093 a 1.34,1.34 0 0 1 -0.179,0 c -0.124,-0.067 -0.244,-0.136 -0.37,-0.2 h 0.016 c 0.046,-0.008 0.028,-0.093 -0.016,-0.083 a 0.636,0.636 0 0 1 -0.14,0.01 l -0.5,-0.256 c 0,-0.03 0,-0.055 -0.038,-0.064 -0.038,-0.009 -0.078,0 -0.114,-0.008 -0.223,-0.107 -0.454,-0.218 -0.683,-0.319 a 1.667,1.667 0 0 1 0.187,0.021 c 0.071,0.021 0.1,-0.083 0.026,-0.109 a 2.972,2.972 0 0 0 -0.806,-0.188 c -0.179,-0.077 -0.364,-0.15 -0.545,-0.226 0.034,-0.008 0.073,-0.01 0.107,-0.016 0.064,-0.013 0.048,-0.128 -0.024,-0.128 -0.131,0.014 -0.269,0.008 -0.4,0.014 -0.084,-0.033 -0.169,-0.068 -0.254,-0.1 0.043,-0.016 0.014,-0.093 -0.024,-0.084 -0.038,0.009 -0.082,0.016 -0.122,0.025 -0.188,-0.076 -0.37,-0.155 -0.562,-0.228 -0.008,-0.01 -0.009,-0.026 -0.022,-0.026 h -0.04 c -0.222,-0.084 -0.45,-0.156 -0.673,-0.236 h 0.07 a 0.059,0.059 0 0 0 0.058,-0.041 0.06,0.06 0 0 0 -0.038,-0.075 2.923,2.923 0 0 0 -0.717,-0.1 c -0.187,-0.064 -0.369,-0.132 -0.556,-0.194 0.063,-0.023 0.054,-0.141 -0.026,-0.123 -0.08,0.018 -0.169,0.022 -0.252,0.035 a 33.475,33.475 0 0 0 -7.464,-1.486 28.25,28.25 0 0 0 -3.9,-0.008 c 0.056,-0.017 0.106,-0.034 0.156,-0.055 0.073,-0.031 0.051,-0.161 -0.029,-0.132 -0.08,0.029 -0.158,0.049 -0.234,0.083 a 0.068,0.068 0 0 0 -0.03,0.03 0.062,0.062 0 0 0 0.03,0.081 11.657,11.657 0 0 0 -6.108,1.947 l -0.016,0.008 c -0.161,0.119 -0.331,0.219 -0.469,0.339 z"
     fill="#1a1818" />
  <path
     id="eye"
     data-name="eye"
     d="m 297.194,119.8 c -4.249,-0.4 -10.836,-3.659 -10.836,-3.782 a 16.788,16.788 0 0 0 2.417,-1.3 c 3.863,-2.2 6.447,-2.988 10.919,-2.317 a 15.745,15.745 0 0 1 5.1,1.484 c 1.913,1.058 2.561,2.562 4.046,3.985 0.04,0 0.061,-0.021 0.1,-0.021 0.511,-0.087 0.653,0.731 0.166,0.792 -3.436,0.4 -6.72,1.241 -10.134,1.241 -0.586,0 -1.18,-0.025 -1.778,-0.082 z m -4,-6.5 c -0.5,0.161 -5.143,2.093 -4.412,2.642 a 0.149,0.149 0 0 1 0.065,0.2 0.144,0.144 0 0 1 -0.125,0.081 0.93,0.93 0 0 0 0.569,0.632 7.834,7.834 0 0 0 1.077,0.568 14.305,14.305 0 0 0 2.258,0.895 24.324,24.324 0 0 0 3.029,0.752 15.649,15.649 0 0 0 2.156,0.265 13.488,13.488 0 0 0 1.789,0 h 0.02 a 38.347,38.347 0 0 0 4.029,-0.467 c 0.681,-0.107 2.566,-0.107 2.835,-1.018 a 0.067,0.067 0 0 1 -0.116,-0.025 c -0.122,-0.2 -0.141,-0.2 -0.041,-0.4 0.651,-1.281 -0.894,-2.257 -1.728,-2.826 a 9.8,9.8 0 0 0 -2.969,-1.341 v 0 a 2.922,2.922 0 0 1 0.67,2.091 4.353,4.353 0 0 1 -2.685,3.98 h -0.02 a 13.176,13.176 0 0 1 -1.788,0 15.613,15.613 0 0 1 -2.156,-0.264 4.3,4.3 0 0 1 -2.175,-3.721 4.08,4.08 0 0 1 0.727,-2.332 c -0.344,0.085 -0.688,0.187 -1.009,0.287 z m -5.91,1.683 a 16.489,16.489 0 0 1 7.406,-3.654 19.217,19.217 0 0 1 5.345,-0.429 c 3.8,0.254 7.1,1.966 10.135,4.09 0.058,0.042 0,0.139 -0.062,0.1 a 22.3,22.3 0 0 0 -15.426,-3.479 17.914,17.914 0 0 0 -2.473,0.806 c -1.733,0.72 -3.154,1.886 -4.825,2.7 a 0.076,0.076 0 0 1 -0.036,0.009 c -0.065,-0.009 -0.125,-0.091 -0.064,-0.144 z"
     fill="#1a1818"
     stroke="rgba(0,0,0,0)"
     stroke-miterlimit="10"
     stroke-width="1" />
  <path
     d="m 322.99973,682.04371 c -2.50965,0 -4.72942,-1.14301 -6.78615,-3.49434 -1.95304,-2.2328 -3.66626,-5.46614 -5.09209,-9.61021 -1.21919,-3.5435 -2.21174,-7.758 -2.87035,-12.18786 -0.55144,-3.70909 -0.85514,-7.45692 -0.85514,-10.55314 0,-10.28704 6.9998,-18.65616 15.60373,-18.65616 8.60393,0 15.60373,8.36912 15.60373,18.65616 0,3.09622 -0.3037,6.84405 -0.85514,10.55314 -0.65861,4.42986 -1.65116,8.64436 -2.87035,12.18786 -1.42583,4.14407 -3.13905,7.37741 -5.09209,9.61021 -2.05673,2.35133 -4.2765,3.49434 -6.78615,3.49434 z"
     stroke="none"
     id="penis"
     style="fill:#f4b087" />
  <path
     d="m 322.99973,630.042 c -3.35111,0 -6.5482,1.57943 -9.00232,4.44734 -1.26949,1.48354 -2.27116,3.22485 -2.9772,5.17557 -0.74598,2.06102 -1.12421,4.25913 -1.12421,6.53326 0,5.72167 1.1099,14.72086 3.58948,21.92762 1.30139,3.78243 2.89544,6.81768 4.60982,8.77761 2.07007,2.3666 3.79046,2.64031 4.90443,2.64031 1.11398,0 2.83436,-0.27371 4.90444,-2.64031 1.71438,-1.95993 3.30843,-4.99518 4.60981,-8.77761 2.47959,-7.20676 3.58949,-16.20595 3.58949,-21.92762 0,-2.27413 -0.37824,-4.47224 -1.12421,-6.53326 -0.70604,-1.95072 -1.70771,-3.69203 -2.9772,-5.17557 -2.45413,-2.86791 -5.65122,-4.44734 -9.00233,-4.44734 m 0,-5 c 9.99842,0 18.10374,9.47194 18.10374,21.15617 0,11.68422 -4.26277,38.34554 -18.10374,38.34554 -13.84096,0 -18.10373,-26.66132 -18.10373,-38.34554 0,-11.68423 8.10532,-21.15617 18.10373,-21.15617 z"
     stroke="none"
     fill="#ffffff"
     id="penis" />
  <path
     d="m 348,671 c -5.51402,0 -10,-4.48598 -10,-10 0,-5.51402 4.48598,-10 10,-10 5.51402,0 10,4.48598 10,10 0,5.51402 -4.48598,10 -10,10 z"
     stroke="none"
     id="testicles"
     style="fill:#f4b087" />
  <path
     d="m 348,653 c -4.41121,0 -8,3.58879 -8,8 0,4.41121 3.58879,8 8,8 4.41121,0 8,-3.58879 8,-8 0,-4.41121 -3.58879,-8 -8,-8 m 0,-4 c 6.62742,0 12,5.37258 12,12 0,6.62742 -5.37258,12 -12,12 -6.62742,0 -12,-5.37258 -12,-12 0,-6.62742 5.37258,-12 12,-12 z"
     stroke="none"
     fill="#ffffff"
     id="testicles"
      />
  <path
     d="m 297,671 c -5.51402,0 -10,-4.48598 -10,-10 0,-5.51402 4.48598,-10 10,-10 5.51402,0 10,4.48598 10,10 0,5.51402 -4.48598,10 -10,10 z"
     stroke="none"
     id="testicles"
     style="fill:#f4b087" />
  <path
     d="m 297,653 c -4.41121,0 -8,3.58879 -8,8 0,4.41121 3.58879,8 8,8 4.41121,0 8,-3.58879 8,-8 0,-4.41121 -3.58879,-8 -8,-8 m 0,-4 c 6.62742,0 12,5.37258 12,12 0,6.62742 -5.37258,12 -12,12 -6.62742,0 -12,-5.37258 -12,-12 0,-6.62742 5.37258,-12 12,-12 z"
     stroke="none"
     id="testicles"
     fill="#ffffff"
   />
  <path
     id="cheek"
     d="m 355.457,138.217 c -8.9,-19.02 1.118,15.587 -7.807,21.962 -8.925,6.375 16.707,-2.942 7.807,-21.962 z"
     fill="#ffffff"
     opacity="0.2" />
  <path
     id="cheek"
     data-name="Cheek"
     d="m 287.64,138.217 c 8.9,-19.02 -1.118,15.587 7.807,21.962 8.925,6.375 -16.706,-2.942 -7.807,-21.962 z"
     fill="#ffffff"
     opacity="0.2" />
  <path
     id="chin"
     d="m 322.5,175 c 5.8,0 10.5,1.119 10.5,2.5 0,1.381 -4.7,2.5 -10.5,2.5 -5.8,0 -10.5,-1.119 -10.5,-2.5 0,-1.381 4.7,-2.5 10.5,-2.5 z"
     fill="#ffffff"
     opacity="0.2" />
</svg>
