<?xml version="1.0" encoding="UTF-8" standalone="no"?>
<svg
   width="645"
   height="1226"
   viewBox="0 0 645 1226">
 
  <path
     id="buttocks"
     d="m 321.564,579.401 a 7.226,7.226 0 0 1 -0.666,-0.491 22,22 0 0 1 -4.028,-4.9 l -1.031,-2.054 c -0.609,-1.226 -1.38,-2.776 -2.121,-4.215 l -0.207,-0.4 c 2.638,0.128 5.339,0.211 8.05,0.247 z"
     fill="#f4b087" />
  <path
     id="back"
     d="m 295.281,360.013 a 190.572,190.572 0 0 1 -22.716,-1.4 c -14.138,-1.7 -34.961,-4.645 -53.425,-10.613 20.362,-12.987 36.992,-31.287 52.279,-57.54 10.634,-18.258 17.419,-38.262 23.97,-58.872 9.548,5.165 17.89,7.673 26.174,7.876 v 118.539 c -0.308,0.034 -0.617,0.075 -0.923,0.122 a 169.558,169.558 0 0 1 -25.359,1.888 z"
     fill="#f4b087" />
  <path
     id="head"
     d="m 321.562,100.282 a 252.166,252.166 0 0 1 -49.515,-5.195 40.94,40.94 0 0 1 -0.471,-5.944 30.55,30.55 0 0 1 6.467,-19.412 37.1,37.1 0 0 1 17.3,-11.666 c 7.671,-2.634 16.009,-3.929 26.216,-4.065 z"
     fill="#f4b087" />
  <path
     id="head"
     data-name="Back Head"
     d="m 304.909,190.576 c -6.845,0 -11.991,-0.658 -16.679,-2.135 -0.483,-7.194 -2.683,-12.813 -6.908,-17.667 -1.52,-1.715 -2.267,-5.059 -2.46,-7.616 a 36.133,36.133 0 0 0 -2.533,-11.39 26.115,26.115 0 0 0 -7.332,-9.828 c -2.555,-2.157 -4.7,-6.447 -6.374,-12.748 a 34.727,34.727 0 0 1 -1.587,-8.541 7.987,7.987 0 0 1 2.24,-5.964 2.845,2.845 0 0 1 2.062,-0.824 3.376,3.376 0 0 1 1.735,0.483 7.188,7.188 0 0 1 1.948,1.558 3.767,3.767 0 0 1 0.806,2.06 2.427,2.427 0 0 0 2.419,2.169 l 0.244,-0.012 a 2.436,2.436 0 0 0 2.179,-2.685 8.559,8.559 0 0 0 -1.859,-4.59 v 0 a 14.131,14.131 0 0 0 1.189,-5.857 31.023,31.023 0 0 0 -0.936,-6.721 258.292,258.292 0 0 0 48.5,4.889 v 85.017 c -2.813,0 -5.629,0.1 -8.355,0.2 -2.758,0.1 -5.558,0.2 -8.278,0.2 z"
     fill="#f4b087" />
  <path
     id="neck"
     d="m 321.563,234.593 c -10.916,-0.288 -22.148,-5.047 -37.38,-15.833 0.047,-0.041 0.091,-0.081 0.136,-0.124 a 9.515,9.515 0 0 0 3.31,-7.178 l -0.012,-0.489 c -0.045,-0.848 -0.063,-1.664 -0.063,-2.486 0,-2.636 0.189,-5.29 0.388,-8.1 0.158,-2.236 0.321,-4.538 0.382,-6.843 a 62.269,62.269 0 0 0 16.587,1.906 c 2.845,0 5.71,-0.1 8.48,-0.2 2.77,-0.1 5.508,-0.2 8.172,-0.2 z"
     fill="#f4b087" />
  <path
     id="shoulder"
     d="m 193.778,350.898 a 118.156,118.156 0 0 1 -17.05,-1.686 c -1.526,-0.223 -3.052,-0.448 -4.582,-0.658 a 17.343,17.343 0 0 1 -4.8,-1.763 c -0.864,-0.408 -1.7,-0.8 -2.551,-1.149 a 2.434,2.434 0 0 0 -0.879,-0.179 125.969,125.969 0 0 1 -0.727,-13.58 158.635,158.635 0 0 1 5.863,-42.061 c 3.072,-10.976 8.28,-19.974 15.475,-26.746 7.1,-6.676 16.332,-11.374 27.44,-13.964 1.893,-0.444 3.823,-0.745 5.869,-1.061 4.262,-0.66 8.618,-1.335 12.852,-3.35 4.213,-2.019 8.405,-4.073 12.594,-6.122 11.188,-5.481 22.6,-11.072 34.09,-15.849 0.84,-0.351 1.654,-0.724 2.425,-1.114 4.03,2.91 7.724,5.363 11.271,7.494 -6.845,21.584 -13.383,40.925 -23.858,58.9 -15.686,26.931 -32.85,45.349 -54.018,57.955 -5.646,3.363 -11.81,4.929 -19.4,4.933 z"
     fill="#f4b087" />
  <path
     id="hand"
     d="m 104.875,711.285 a 6.3,6.3 0 0 0 -4.749,-2.352 9.347,9.347 0 0 0 -3.728,0.933 8.532,8.532 0 0 1 -1.987,0.688 l -0.008,-1.6 a 31.447,31.447 0 0 1 1.313,-10.209 c 3.206,-9.783 6.486,-21.466 6.486,-33.938 0,-0.424 0,-0.846 -0.01,-1.27 a 2.436,2.436 0 0 0 -4.188,-1.65 2.414,2.414 0 0 0 -0.682,1.735 c 0.008,0.4 0.01,0.787 0.01,1.185 0,11.784 -3.156,23 -6.242,32.424 a 29.438,29.438 0 0 0 -1.242,5.7 l -2.522,1.232 c 0.593,-11.354 1.932,-22.694 3.227,-33.672 1.664,-14.116 3.377,-28.635 3.568,-43.36 a 2.433,2.433 0 0 0 -3.779,-2.064 c -2.2,1.457 -4.235,3.085 -6.2,4.659 -1.577,1.26 -3.172,2.539 -4.765,3.649 -4.03,2.823 -7.247,4.026 -10.755,4.028 a 16.587,16.587 0 0 1 -4.621,-0.716 c 7.541,-5.621 13.406,-12.107 19.083,-18.381 a 154.564,154.564 0 0 1 12.314,-12.628 c 3.892,-3.444 8.334,-5.828 11.886,-6.38 a 20.519,20.519 0 0 0 5.436,-1.621 l 0.94,1.214 c 3.99,5.165 8.953,11.593 13.791,15.906 a 18.722,18.722 0 0 0 12.7,4.609 26.822,26.822 0 0 0 8.044,-1.307 c -0.2,2.019 -0.294,4.111 -0.294,6.232 0,0.586 0.006,1.177 0.02,1.766 0.006,0.363 0.01,0.727 0.01,1.09 0.016,11.987 -4.262,22.8 -8.793,34.248 -2.153,5.436 -4.361,11.017 -6.066,16.711 -0.392,1.317 -0.769,2.63 -1.147,3.937 -2.257,7.839 -4.389,15.238 -8.8,21.746 a 12.744,12.744 0 0 0 -0.958,1.8 c -0.124,0.268 -0.223,0.485 -0.325,0.672 a 6.506,6.506 0 0 1 -0.276,-2.108 c 0,-0.623 0.039,-1.274 0.079,-1.948 0.047,-0.8 0.091,-1.573 0.093,-2.356 a 10.68,10.68 0 0 0 -0.933,-4.657 c 3.708,-7.537 5.792,-13.751 6.756,-20.123 a 7.935,7.935 0 0 1 0.487,-1.538 c 0.136,-0.357 0.274,-0.718 0.4,-1.1 a 2.442,2.442 0 0 0 -1.54,-3.089 2.383,2.383 0 0 0 -0.767,-0.124 2.431,2.431 0 0 0 -2.311,1.67 c -0.087,0.268 -0.193,0.536 -0.3,0.816 a 12.338,12.338 0 0 0 -0.787,2.626 c -1.632,10.9 -6.871,20.226 -12.417,30.1 l -1.457,2.606 a 14.287,14.287 0 0 1 -2.407,3.178 4.616,4.616 0 0 1 -1.52,1.063 z"
     fill="#f4b087" />
  <path
     id="wrist"
     d="m 140.17,614.528 a 13.824,13.824 0 0 1 -9.481,-3.373 c -4.481,-3.985 -9.176,-10.067 -13.32,-15.433 l -0.511,-0.662 a 19.18,19.18 0 0 0 2.666,-2.746 c 2.581,-3.243 4.111,-6.956 5.7,-11.127 1.644,-4.312 3.188,-8.886 4.592,-13.6 a 67.36,67.36 0 0 1 19.64,2.652 c 6.63,2.088 11.843,5.52 15.5,10.2 l -2.279,3.947 c -3.137,5.428 -6.214,10.751 -9.219,16.119 a 41.451,41.451 0 0 0 -4.443,12.134 23.556,23.556 0 0 1 -8.836,1.893 z"
     fill="#f4b087" />
  <path
     id="arm"
     d="m 167.543,575.953 a 36.215,36.215 0 0 0 -16.622,-10.36 70.127,70.127 0 0 0 -19.731,-2.851 243.388,243.388 0 0 0 7.51,-44.056 c 1.4,-16.894 3.07,-32 9.181,-45.535 7.88,4.732 17.2,7.131 27.7,7.131 a 84.236,84.236 0 0 0 24.792,-3.977 c -0.292,3.874 -0.44,7.819 -0.44,11.733 v 1.546 c 0,22.661 -9.191,42.506 -20.3,64.252 -4.064,7.981 -8.563,15.958 -12.09,22.117 z"
     fill="#f4b087" />
  <path
     id="elbow"
     d="m 175.593,475.412 c -9.789,0 -18.389,-2.236 -25.565,-6.646 a 63.294,63.294 0 0 1 5.56,-8.564 c 5.5,-7.121 6.453,-14.773 6.616,-21.36 a 61.97,61.97 0 0 1 19.506,-3.381 c 9.854,0 18.394,2.882 25.389,8.557 a 116.279,116.279 0 0 0 -6.208,27.012 81.647,81.647 0 0 1 -25.293,4.381 z"
     fill="#f4b087" />
  <path
     id="forearm"
     d="m 208.958,439.31 c -7.661,-5.788 -16.813,-8.72 -27.213,-8.72 a 66.118,66.118 0 0 0 -19.524,3.135 c 0,0 -0.035,-3.016 -0.035,-3.474 0,-3.271 0.128,-6.636 0.252,-9.889 0.126,-3.326 0.256,-6.711 0.256,-10.027 l -0.014,-2.206 c -0.006,-6.4 1.013,-12.99 2,-19.357 a 133.276,133.276 0 0 0 2.072,-20.2 52.376,52.376 0 0 0 -1.792,-14.083 l -0.264,-0.9 a 9.783,9.783 0 0 1 -0.513,-2.265 1,1 0 0 1 0.13,-0.57 v -0.006 c 0.29,0.134 0.582,0.274 0.881,0.416 a 21.734,21.734 0 0 0 6.279,2.212 c 1.54,0.209 3.078,0.434 4.619,0.661 a 122.761,122.761 0 0 0 17.7,1.729 44.634,44.634 0 0 0 14.477,-2.21 c 5.871,18.724 7.48,38.031 8.278,54.468 q 0.046,0.944 0.047,1.9 c 0,9.935 -3.671,20.313 -6.755,27.268 -0.313,0.706 -0.601,1.412 -0.881,2.118 z"
     fill="#f4b087" />
  <path
     id="back"
     data-name="back"
     d="m 320.097,493.627 c -8.886,0 -17.742,-0.363 -26.32,-1.08 -21.906,-1.836 -44.922,-4.146 -64.523,-10.3 0.315,-3.618 0.473,-7.324 0.473,-11.015 0,-19.6 -4.069,-39.064 -8,-57.886 l -0.339,-1.625 0.03,-0.359 c 0.024,-0.477 0.051,-0.954 0.051,-1.427 0,-0.718 -0.018,-1.429 -0.051,-2.137 -0.822,-16.886 -2.492,-36.74 -8.629,-56.108 0.264,-0.128 0.526,-0.262 0.791,-0.4 19.418,6.875 41.406,10.112 58.4,12.164 a 195.725,195.725 0 0 0 23.3,1.433 174.17,174.17 0 0 0 26.091,-1.946 c 0.063,-0.01 0.126,-0.02 0.191,-0.028 v 130.7 c -0.42,0.004 -1.079,0.014 -1.465,0.014 z"
     fill="#f4b087" />
  <path
     id="waist"
     d="m 321.562,562.716 c -23.891,-0.329 -45.1,-4.221 -63.064,-11.573 a 47.886,47.886 0 0 0 -3.9,-6.508 c -6.206,-8.637 -15.124,-14.158 -26.5,-16.413 a 1.817,1.817 0 0 1 -1.439,-0.976 4.705,4.705 0 0 1 -0.394,-1.031 14.416,14.416 0 0 1 -0.383,-1.964 95.508,95.508 0 0 1 -1.118,-13.022 39.211,39.211 0 0 1 1.249,-10.342 103.417,103.417 0 0 0 2.715,-13.72 c 19.905,6.1 42.843,8.4 64.643,10.228 8.706,0.729 17.7,1.1 26.728,1.1 0.489,0 0.976,-0.006 1.465,-0.012 z"
     fill="#f4b087" />
  <path
     id="hip"
     d="m 214.156,665.938 c -0.463,-4.69 -0.686,-9.745 -0.686,-15.427 0,-8.495 0.467,-17.16 0.919,-25.539 0.227,-4.184 0.442,-8.19 0.6,-12.022 0.345,-8.821 1.887,-17.783 3.381,-26.448 1.53,-8.888 3.1,-18.038 3.478,-27.3 a 19.424,19.424 0 0 1 0.929,-5.339 l 0.538,-1.615 a 23.239,23.239 0 0 0 0.877,-3.525 l 1.609,-16.123 a 7.081,7.081 0 0 0 1.358,0.4 c 10.248,2.048 17.931,6.784 23.487,14.479 4.6,6.382 7.752,14.729 9.925,26.271 a 98.24,98.24 0 0 1 1.733,18.1 87.746,87.746 0 0 1 -12.472,45.1 c -7.465,12.68 -21.516,21.437 -35.676,28.988 z"
     fill="#f4b087" />
  <path
     id="foot"
     d="m 297.687,1171.9 a 9.619,9.619 0 0 1 -4.791,-1.333 20.069,20.069 0 0 0 -10.508,-2.758 51.561,51.561 0 0 0 -6.4,0.511 43.128,43.128 0 0 1 -5.272,0.335 40.72,40.72 0 0 1 -21.458,-6.309 c 0.964,-1.051 1.952,-2.1 2.947,-3.162 2.737,-2.912 5.432,-5.775 7.776,-8.744 3.011,-3.821 7.017,-9.718 7.025,-16.791 a 19.506,19.506 0 0 0 -0.343,-3.618 16.1,16.1 0 0 1 -0.268,-2.941 c 0,-3.531 1.086,-7.1 2.137,-10.558 l 0.081,-0.27 c 1.112,-3.669 2.263,-7.464 2.267,-11.516 a 18.757,18.757 0 0 0 -1.641,-7.72 c 0.144,0 0.29,0 0.434,0 3.2,0 6.39,0.235 9.471,0.463 3.028,0.225 6.157,0.457 9.229,0.459 5.907,0 10.6,-0.954 14.71,-2.991 0.629,2.478 1.293,4.726 2.029,6.853 a 29.161,29.161 0 0 1 1.437,9.247 27.673,27.673 0 0 1 -1.455,9.183 53.353,53.353 0 0 0 -3.135,17.878 59.586,59.586 0 0 0 3.785,20.331 15.255,15.255 0 0 1 1.1,5.047 c -0.014,2.1 -0.826,3.746 -2.8,5.688 a 8.983,8.983 0 0 1 -6.36,2.721 z"
     fill="#f4b087" />
  <path
     id="ankel"
     d="m 288.342,1093.072 c -2.8,0 -5.672,-0.213 -8.716,-0.436 -3.235,-0.237 -6.549,-0.483 -9.946,-0.485 -0.806,0 -1.619,0.028 -2.433,0.073 -3.156,-11.612 -6.443,-23.349 -9.625,-34.7 l -0.871,-3.1 c 12.377,-5.25 23.382,-7.912 32.718,-7.912 a 42.851,42.851 0 0 1 10.325,1.216 q -0.155,4.243 -0.231,8.495 -0.043,2.636 -0.047,5.286 a 142.573,142.573 0 0 0 2.439,28.544 c -3.671,2.092 -7.874,3.026 -13.578,3.028 z"
     fill="#f4b087" />
  <path
     id="calf"
     d="m 255.427,1049.692 c -7.159,-25.606 -14.067,-50.714 -19.928,-76.277 a 142.647,142.647 0 0 1 -3.5,-31.373 121.292,121.292 0 0 1 5.3,-36.288 c 9.384,7.949 20.356,11.815 33.52,11.815 10.987,0 22.058,-2.709 30.583,-5.13 -0.006,0.453 -0.008,0.9 -0.008,1.352 0,8.231 0.627,16.626 1.234,24.747 l 0.17,2.259 c 0.8,10.806 1.189,20.488 1.189,29.6 0,4.312 -0.091,8.588 -0.27,12.705 -0.44,10.055 -1.165,20.287 -1.867,30.182 -0.688,9.71 -1.394,19.656 -1.841,29.488 a 47.941,47.941 0 0 0 -10.514,-1.141 c -10.01,0.01 -21.153,2.645 -34.068,8.061 z"
     fill="#f4b087" />
  <path
     id="knee"
     d="m 270.88,912.698 c -12.736,-0.01 -23.217,-3.957 -32.039,-12.068 3.791,-16.316 5.548,-32.611 7.249,-48.366 l 0.187,-1.727 c 0.692,-6.457 1.932,-10.4 4.02,-12.781 a 10,10 0 0 1 4.079,-2.762 24.65,24.65 0 0 1 6.92,-1.382 c 2.492,-0.195 4.99,-0.294 7.421,-0.294 16.044,0 30.606,4.189 42.128,12.115 -0.367,3.377 -0.627,6.782 -0.877,10.075 -0.655,8.58 -1.331,17.444 -3.9,25.342 a 99.078,99.078 0 0 0 -4.529,26.484 c -9.209,2.667 -20.021,5.363 -30.65,5.363 z"
     fill="#f4b087" />
  <path
     id="thigh"
     d="m 311.434,839.999 c -11.965,-7.561 -26.718,-11.553 -42.717,-11.553 -2.587,0 -5.213,0.108 -7.807,0.317 a 29.15,29.15 0 0 0 -8.3,1.693 14.627,14.627 0 0 0 -6.07,4.2 l -0.678,-2.863 c -8.45,-35.657 -18.026,-76.07 -25.772,-111.964 l -0.905,-4.14 c -2.457,-11.208 -4.994,-22.771 -4.99,-34.261 0,-2.439 0.118,-4.86 0.351,-7.21 a 139.864,139.864 0 0 0 67.216,17.361 c 3.969,0 8,-0.173 11.973,-0.513 10.146,-0.866 17.641,-3.507 22.866,-8.062 -0.047,12.929 -0.986,26.813 -1.9,40.253 -0.379,5.6 -0.749,11.058 -1.043,16.293 -0.459,8.119 -0.664,16.691 -0.664,27.793 0,5.242 0.045,10.483 0.089,15.725 0.044,5.242 0.089,10.461 0.089,15.687 a 398.44,398.44 0 0 1 -1.738,41.244 z"
     fill="#f4b087" />
  <path
     id="buttocks"
     data-name="Buttocks"
     d="M 281.766,686.71 A 135,135 0 0 1 216.93,669.977 c 13.9,-7.462 29.037,-16.924 37.091,-30.543 a 92.455,92.455 0 0 0 13.15,-47.579 102.949,102.949 0 0 0 -1.818,-19 94.862,94.862 0 0 0 -4.121,-15.439 172.749,172.749 0 0 0 46.562,9.572 c 0.574,0.99 1.5,2.764 2.758,5.278 l 1.861,3.722 c 0.185,0.357 0.26,0.5 0.359,0.655 a 26.57,26.57 0 0 0 5.024,6.023 9.519,9.519 0 0 0 3.779,2 q 0.012,8.2 0.045,16.407 v 1.264 q 0.042,11.768 0.057,23.52 c 0,11.79 -0.069,21.5 -0.221,30.575 -0.166,9.966 -2.25,16.78 -6.559,21.448 -4.365,4.736 -11.423,7.464 -21.575,8.334 -3.837,0.329 -7.725,0.496 -11.556,0.496 z"
     fill="#f4b087" />
  <path
     id="shoulder"
     data-name="Shoulder"
     d="m 453.245,351.517 c -7.677,0 -13.888,-1.644 -18.994,-5.025 a 161.152,161.152 0 0 1 -43.585,-43.291 c -14.335,-20.8 -25.068,-45 -33.766,-76.149 1.09,-0.856 2.094,-1.768 2.987,-2.579 l 0.678,-0.613 a 21.341,21.341 0 0 1 3.829,-2.89 18.242,18.242 0 0 0 2.425,1.37 c 1.09,0.513 2.212,0.956 3.263,1.37 l 0.195,0.077 c 0.524,0.207 1.031,0.406 1.5,0.6 3.856,1.623 7.725,3.18 11.593,4.732 l 0.195,0.079 c 11.662,4.688 23.72,9.536 34.784,16.048 4.927,2.873 10.719,3.681 16.324,4.462 2.632,0.367 5.1,0.71 7.494,1.256 a 46.723,46.723 0 0 1 22.3,11.587 c 5.662,5.39 10.189,12.588 13.456,21.391 5.56,14.97 8.261,31.5 8.261,50.552 q 0,3.668 -0.13,7.356 a 13.968,13.968 0 0 1 -0.436,2.973 c -0.659,0.27 -4.586,1.914 -4.586,1.914 a 32.325,32.325 0 0 1 -5.313,1.867 c -7.023,1.366 -14.96,2.908 -22.462,2.908 z"
     fill="#f4b087" />
  <path
     id="head"
     data-name="head"
     d="m 326.433,54.039 c 3.062,0.057 6.281,0.189 9.572,0.392 a 56.319,56.319 0 0 1 24.281,7.626 26.913,26.913 0 0 1 11.4,11.877 c 2.06,4.324 3.058,9.475 3.056,15.743 0,2.023 -0.1,4.142 -0.308,6.465 a 326.97,326.97 0 0 1 -48,4.136 z"
     fill="#f4b087" />
  <path
     id="head"
     data-name="Back Head"
     d="m 342.714,190.541 c -3.549,0 -7.109,-0.089 -10.674,-0.179 -1.881,-0.049 -3.744,-0.1 -5.607,-0.13 v -85.084 a 329.932,329.932 0 0 0 47.573,-4.02 24.633,24.633 0 0 1 0.381,4.195 24.886,24.886 0 0 1 -2.855,11.3 2.435,2.435 0 1 0 4.367,2.155 33.428,33.428 0 0 0 2.267,-5.818 14.411,14.411 0 0 1 5.82,2.681 6.5,6.5 0 0 1 2.334,5.3 14.529,14.529 0 0 1 -0.7,4.176 49.69,49.69 0 0 1 -9.712,18.369 31.2,31.2 0 0 0 -7.671,19.792 c -0.1,3.062 -1.455,5.676 -3.608,8.9 -3.275,4.911 -4.929,10.416 -5.191,17.3 a 110.812,110.812 0 0 1 -16.724,1.063 z"
     fill="#f4b087" />
  <path
     id="neck"
     data-name="Neck"
     d="m 326.433,195.107 c 1.808,0.032 3.618,0.079 5.434,0.124 3.547,0.091 7.216,0.183 10.847,0.185 a 117.562,117.562 0 0 0 16.762,-1.027 c 0.1,2.457 0.3,4.909 0.5,7.283 0.278,3.381 0.536,6.524 0.534,9.657 0,0.887 -0.02,1.768 -0.069,2.644 l -0.01,0.379 a 6.978,6.978 0 0 0 0.627,2.949 29.035,29.035 0 0 0 -3.744,2.936 l -0.771,0.7 a 30.537,30.537 0 0 1 -4.276,3.464 c -9.645,6.027 -17.87,9.207 -25.829,9.98 z"
     fill="#f4b087" />
  <path
     id="back"
     data-name="back"
     d="m 351.338,359.845 q -2.481,0 -4.913,-0.1 c -2.953,-0.122 -5.924,-0.523 -9.069,-0.948 A 92.365,92.365 0 0 0 326.432,357.76 V 239.271 c 8.269,-0.712 16.618,-3.71 26.2,-9.4 8.773,30.969 19.589,55.16 34.017,76.1 a 167.215,167.215 0 0 0 40.346,41.4 q -3.8,0.868 -7.724,1.778 c -21.685,5.018 -46.262,10.7 -67.914,10.707 z"
     fill="#f4b087" />
  <path
     id="buttocks"
     data-name="Buttocks"
     d="m 326.433,567.61 q 2.371,-0.015 4.728,-0.075 c 1.067,-0.028 2.145,-0.081 3.227,-0.142 l -0.315,0.479 c -2.119,3.233 -3.906,5.958 -5.56,8.056 a 23.444,23.444 0 0 1 -2.08,2.35 z"
     fill="#f4b087" />
  <path
     id="buttocks"
     data-name="Buttocks"
     d="m 363.922,686.601 c -2.427,0 -4.885,-0.071 -7.305,-0.211 -3.868,-0.221 -8.683,-1.77 -14.313,-4.6 a 146.076,146.076 0 0 1 -12.979,-7.63 c -0.864,-5.489 -1.816,-10.577 -2.833,-15.124 a 2.291,2.291 0 0 0 -0.24,-0.619 c 0.037,-0.7 0.065,-1.289 0.077,-1.9 0.152,-9.132 0.223,-18.872 0.223,-30.659 q 0,-11.664 -0.057,-23.325 l -0.008,-2.048 q -0.027,-8.155 -0.045,-16.311 a 9.717,9.717 0 0 0 1.859,-1.1 30.035,30.035 0 0 0 6,-6.792 c 1.2,-1.715 2.455,-3.628 3.8,-5.682 l 0.229,-0.351 c 0.694,-1.059 1.41,-2.153 2.159,-3.273 a 207.933,207.933 0 0 0 48.476,-10.786 65.838,65.838 0 0 0 -2.265,6.25 98.5,98.5 0 0 0 -4.32,29 91.116,91.116 0 0 0 10.562,43.354 75.488,75.488 0 0 0 33.431,32.081 c 2.015,0.982 3.525,1.786 4.684,2.5 -21.553,11.273 -44.752,17.229 -67.129,17.229 z"
     fill="#f4b087" />
  <path
     id="foot"
     data-name="foot"
     d="m 349.895,1171.6 a 8.221,8.221 0 0 1 -5.092,-1.733 5.952,5.952 0 0 1 -2.591,-5.14 19.57,19.57 0 0 1 1.376,-6.179 59.816,59.816 0 0 0 3.44,-20.112 72.8,72.8 0 0 0 -2.616,-18.844 36.674,36.674 0 0 1 -1.356,-9.558 31.158,31.158 0 0 1 1.483,-9.44 c 0.661,-2.1 1.262,-4.284 1.83,-6.648 4.878,2.874 11,4.333 18.2,4.337 a 61.876,61.876 0 0 0 6.315,-0.339 c 1.39,-0.142 3.391,-0.2 5.158,-0.248 l 0.927,-0.029 c 0.99,-0.03 2.072,-0.069 3.127,-0.13 a 56.488,56.488 0 0 0 -0.765,9.682 c 0,8.813 1.565,17.878 3.074,26.643 l 0.493,2.88 c 0.889,5.2 3.318,10.228 7.429,15.37 a 93.672,93.672 0 0 0 9.668,10.025 c -8.8,4.542 -15.721,6.571 -22.391,6.571 a 32.254,32.254 0 0 1 -5.467,-0.465 33.755,33.755 0 0 0 -5.838,-0.546 22.451,22.451 0 0 0 -9.816,2.127 15.642,15.642 0 0 1 -6.587,1.778 z"
     fill="#f4b087" />
  <path
     id="ankel"
     data-name="ankel"
     d="m 364.558,1093.412 c -7.068,0 -12.813,-1.52 -17.085,-4.521 a 144.823,144.823 0 0 0 2.437,-27.773 c 0,-3.519 -0.1,-7.3 -0.329,-11.88 a 37.555,37.555 0 0 1 14.629,-3.011 c 10.575,0 20.3,4.586 28.449,9.138 -5.859,13.046 -9.02,26.024 -11.512,37.209 -1.453,0.128 -3.145,0.189 -4.32,0.223 l -1.106,0.032 c -1.979,0.061 -3.813,0.114 -5.333,0.27 a 57.011,57.011 0 0 1 -5.814,0.313 z"
     fill="#f4b087" />
  <path
     id="calf"
     data-name="Calf"
     d="m 394.294,1050.707 c -8,-4.408 -18.56,-9.349 -30.082,-9.353 a 42.465,42.465 0 0 0 -14.9,2.762 c -0.327,-5.231 -0.749,-10.5 -1.159,-15.417 -1.309,-15.755 -2.815,-36.483 -2.815,-57.084 a 356.336,356.336 0 0 1 2.094,-39.932 c 0.246,-2.208 0.57,-4.452 0.9,-6.723 0.558,-3.862 1.132,-7.849 1.352,-11.863 a 86.815,86.815 0 0 0 24.8,3.856 63.838,63.838 0 0 0 36.876,-11.283 c 1.394,7.265 2.8,15.059 3.691,22.994 a 130.543,130.543 0 0 1 0.816,14.7 c 0,18.722 -3.641,36.921 -9.105,58.484 -1.205,4.746 -2.431,9.734 -3.681,14.818 -2.839,11.509 -5.747,23.328 -8.787,34.041 z"
     fill="#f4b087" />
  <path
     id="knee"
     data-name="Knee"
     d="m 374.478,912.08 a 82.841,82.841 0 0 1 -24.739,-4.055 35.624,35.624 0 0 0 -2.336,-11.906 c -6.749,-17.117 -8.777,-35.172 -9.85,-50.625 a 13.919,13.919 0 0 0 2.161,-0.757 c 0.895,-0.4 1.709,-0.838 2.307,-1.165 l 0.4,-0.215 c 12.342,-6.557 24.39,-9.883 35.8,-9.883 a 54.894,54.894 0 0 1 24.934,5.94 q -0.015,1.023 -0.016,2.05 c 0,6.108 0.335,12.661 1.082,21.245 1.061,12.125 3.417,24.069 5.694,35.624 l 0.412,2.09 a 59.117,59.117 0 0 1 -35.852,11.656 z"
     fill="#f4b087" />
  <path
     id="thigh"
     data-name="Thigh"
     d="m 337.231,840.495 c -0.132,-2.2 -0.25,-4.4 -0.365,-6.6 -1.025,-19.711 -1.3,-39.825 -1.575,-59.278 l -0.008,-0.5 c -0.189,-13.641 -0.386,-27.747 -0.842,-41.623 a 520.415,520.415 0 0 0 -4.168,-51.974 c 2.555,1.593 6.118,3.742 9.848,5.615 6.309,3.166 11.61,4.838 16.212,5.112 2.486,0.146 5.041,0.221 7.594,0.221 23.662,0 48.115,-6.392 70.739,-18.491 0.014,0.037 0.026,0.073 0.039,0.11 a 8.81,8.81 0 0 1 0.323,2.646 c 0,1.747 -0.264,4.093 -0.6,7.062 l -0.091,0.816 c -3.444,30.9 -11.179,61.5 -18.659,91.089 -3.35,13.247 -6.81,26.933 -9.86,40.537 a 110.937,110.937 0 0 0 -2.482,18.862 59.651,59.651 0 0 0 -25.086,-5.5 c -12.229,0 -25.05,3.521 -38.106,10.455 l -0.461,0.246 c -0.546,0.3 -1.222,0.661 -1.932,0.978 -0.178,0.08 -0.352,0.155 -0.52,0.217 z"
     fill="#f4b087" />
  <path
     id="hip"
     data-name="hip"
     d="m 434.85,666.021 a 48.636,48.636 0 0 0 -6.333,-3.521 69.75,69.75 0 0 1 -31.288,-30.03 86.23,86.23 0 0 1 -9.972,-41.03 93.663,93.663 0 0 1 4.1,-27.568 c 2.681,-8.716 6.77,-15.753 12.151,-20.92 a 35.676,35.676 0 0 1 19.94,-9.55 c 0.317,3.561 0.708,6.8 1.2,9.885 3.383,21.275 6.327,44.425 9,70.772 0.655,6.441 0.763,13.055 0.868,19.455 0.136,8.308 0.28,16.884 1.591,25.384 a 6.373,6.373 0 0 1 0.061,0.96 17.758,17.758 0 0 1 -1.318,6.163 z"
     fill="#f4b087" />
  <path
     id="waist"
     data-name="waist"
     d="m 326.433,498.424 a 399.824,399.824 0 0 0 92.953,-13.274 c 2.167,10.435 2.63,21.091 3.074,31.4 0.177,4.042 0.351,8.032 0.615,11.983 a 40.382,40.382 0 0 0 -22.945,10.907 46.487,46.487 0 0 0 -8.062,10.475 c -20.269,7.624 -42.506,12.271 -61.035,12.75 q -2.292,0.058 -4.6,0.073 z"
     fill="#f4b087" />
  <path
     id="back"
     data-name="back"
     d="m 326.433,362.631 a 86.141,86.141 0 0 1 10.118,0.974 c 3.149,0.424 6.4,0.865 9.67,1 q 2.536,0.107 5.118,0.106 c 22.251,0 47.011,-5.737 68.852,-10.794 4.257,-0.984 8.33,-1.928 12.281,-2.809 0.838,0.515 1.717,1 2.616,1.445 -0.887,5.116 -2.07,10.27 -3.216,15.256 -2.419,10.552 -4.921,21.45 -4.927,32.854 a 72.6,72.6 0 0 0 0.5,8.6 10.7,10.7 0 0 1 0.067,1.218 31.863,31.863 0 0 1 -1.826,8.796 l -0.584,1.849 a 70.563,70.563 0 0 0 -2.35,8.582 l -0.483,2.6 c -2.255,12.111 -4.58,24.617 -4.582,36.7 a 76.643,76.643 0 0 0 0.816,11.348 395.089,395.089 0 0 1 -92.071,13.2 z"
     fill="#f4b087" />
  <path
     id="forearm"
     data-name="Forearm"
     d="m 439.974,438.604 c -3.271,-10.408 -5.9,-20.206 -7.606,-28.37 a 12.26,12.26 0 0 0 -0.091,-1.542 68.77,68.77 0 0 1 -0.461,-8.022 c -0.006,-10.769 2.429,-21.409 4.787,-31.7 1.082,-4.722 2.2,-9.6 3.095,-14.55 a 43.306,43.306 0 0 0 13.537,1.97 c 7.971,0 16.173,-1.6 23.412,-3 a 37.8,37.8 0 0 0 6.234,-2.141 l 1.142,-0.477 c -0.15,0.708 -0.26,1.374 -0.335,2.021 a 129.745,129.745 0 0 0 -0.765,14.542 c 0,10.5 1.049,20.991 2.06,31.137 1,10.045 2.023,20.38 2.021,30.5 q 0,2.593 -0.093,5.193 c -0.01,0.075 -0.055,0.371 -0.12,0.7 v 0.022 a 19.6,19.6 0 0 0 -4.8,-2.037 58.79,58.79 0 0 0 -16.734,-2.555 40.371,40.371 0 0 0 -25.283,8.309 z"
     fill="#f4b087" />
  <path
     id="elbow"
     data-name="Elbow"
     d="m 472.039,475.877 a 71.875,71.875 0 0 1 -22.88,-4.144 c 0,-0.142 0.008,-0.286 0.008,-0.43 a 37.023,37.023 0 0 0 -2.287,-12.458 c -1.788,-4.848 -3.572,-9.984 -5.3,-15.274 6.335,-5.575 14.3,-8.4 23.684,-8.407 a 53.93,53.93 0 0 1 15.344,2.352 11.586,11.586 0 0 1 4.324,2.031 3.4,3.4 0 0 1 0.86,1.145 4.34,4.34 0 0 1 0.315,1.707 8.824,8.824 0 0 1 -0.158,1.563 9.589,9.589 0 0 0 -0.17,1.788 9.765,9.765 0 0 0 1.309,4.83 24.336,24.336 0 0 0 2.328,3.316 82.769,82.769 0 0 1 9.107,14.288 48.312,48.312 0 0 1 -26.48,7.693 z"
     fill="#f4b087" />
  <path
     id="arm"
     data-name="Arm"
     d="m 481.683,575.928 q -6.721,-12.574 -13.521,-25.117 c -13.377,-24.52 -19.607,-45.71 -19.607,-66.687 0,-2.36 0.093,-4.84 0.274,-7.377 a 75.491,75.491 0 0 0 23.217,4 53.649,53.649 0 0 0 28.542,-8.109 c 6.843,15.794 8.777,32.621 9.761,47.023 1.037,15.141 4.093,29.362 7.261,42.489 l -1.354,0.229 a 129.123,129.123 0 0 0 -17.263,3.756 c -7.265,2.279 -12.935,5.485 -17.31,9.793 z"
     fill="#f4b087" />
  <path
     id="wrist"
     data-name="Wrist"
     d="m 507.47,613.652 a 7.739,7.739 0 0 1 -4.923,-1.822 20.149,20.149 0 0 1 -4.9,-6.262 c -4.684,-8.564 -9.262,-17.109 -13.556,-25.139 3.906,-4.261 9.262,-7.417 16.358,-9.645 a 124.048,124.048 0 0 1 16.659,-3.608 l 1.914,-0.327 c 0.7,1.9 1.447,4.113 2.177,6.266 l 0.093,0.28 c 0.461,1.358 0.9,2.648 1.285,3.746 1.715,4.826 3.655,9.887 6.827,14.075 0.357,0.479 0.761,0.966 1.21,1.467 -2.378,3.766 -8.2,12.4 -14.363,17.15 -3.275,2.535 -6.224,3.819 -8.763,3.819 z"
     fill="#f4b087" />
  <path
     id="hand"
     data-name="Hand"
     d="m 543.651,711.181 a 8.672,8.672 0 0 1 -1.96,-1.863 24.64,24.64 0 0 1 -2.9,-5.562 c -0.3,-0.7 -0.6,-1.4 -0.915,-2.1 a 15.485,15.485 0 0 0 -5.617,-7.127 2.657,2.657 0 0 1 -1.232,-1.725 c -0.191,-0.974 -0.4,-1.928 -0.6,-2.865 l -0.315,-1.455 a 52.877,52.877 0 0 0 -1.865,-6.177 c -1.057,-3.04 -2.049,-5.9 -2.035,-8.8 a 13.392,13.392 0 0 1 0.087,-1.53 2.428,2.428 0 0 0 -2.129,-2.705 l -0.266,-0.016 a 2.439,2.439 0 0 0 -2.439,2.147 17.479,17.479 0 0 0 -0.124,2.1 c 0.018,3.9 1.207,7.285 2.356,10.56 a 43.057,43.057 0 0 1 1.65,5.42 l 0.351,1.617 a 39.59,39.59 0 0 1 1.242,8.3 13.319,13.319 0 0 1 -0.887,4.964 44.088,44.088 0 0 1 -5.873,-12.149 c -1.136,-3.458 -2.07,-7.139 -2.971,-10.7 -1.7,-6.715 -3.454,-13.641 -6.709,-19.907 -5.619,-10.8 -8.47,-24.072 -8.47,-39.464 0,-0.469 0,-0.942 0.01,-1.425 a 2.5,2.5 0 0 1 2.959,-2.457 11.684,11.684 0 0 0 2.451,0.258 c 3.718,0 7.571,-1.585 11.778,-4.836 5.445,-4.217 10.455,-10.845 13.649,-15.571 a 2.5,2.5 0 0 1 3.362,-0.757 25.066,25.066 0 0 0 7.348,2.861 c 5.481,1.244 10.114,5.154 13.038,8.215 2.413,2.52 4.767,5.242 7.044,7.874 4.813,5.564 9.757,11.279 15.914,15.954 a 2.512,2.512 0 0 1 -1.42,4.515 h -0.065 c -7.117,0 -14.66,-5 -19.682,-13.044 a 2.4345503,2.4345503 0 1 0 -4.13,2.579 c 0.5,0.791 1.035,1.587 1.609,2.372 a 2.513,2.513 0 0 1 0.455,1.934 53.587,53.587 0 0 0 -0.775,9.448 147.468,147.468 0 0 0 1.419,17.56 c 0.481,3.949 0.925,7.628 1.138,11.163 0.3,4.988 0.781,10.025 1.246,14.9 q 0.195,2.03 0.386,4.065 a 2.527,2.527 0 0 1 -4.929,0.986 q -0.347,-1.2 -0.654,-2.48 a 129.836,129.836 0 0 1 -2.261,-13.907 c -0.363,-2.9 -0.769,-6.112 -1.285,-9.174 a 2.425,2.425 0 0 0 -2.4,-2.031 l -0.381,0.03 a 2.434,2.434 0 0 0 -2.021,2.809 c 0.5,2.92 0.873,5.926 1.238,8.831 a 134.308,134.308 0 0 0 2.374,14.578 44.909,44.909 0 0 0 5.885,14.268 2.5,2.5 0 0 1 0.315,2.1 c -0.258,0.85 -0.556,1.8 -0.856,2.746 l -0.067,0.213 c -0.371,1.175 -0.733,2.315 -1.019,3.279 a 11.7,11.7 0 0 1 -1.853,-0.584 l -0.347,-0.13 a 10.012,10.012 0 0 0 -3.47,-0.824 4.686,4.686 0 0 0 -3.608,1.609 5.891,5.891 0 0 0 -0.774,1.11 z"
     fill="#f4b087" />
</svg>
