<svg xmlns="http://www.w3.org/2000/svg" width="412" height="229.055" viewBox="0 0 412 229.055">
  <path id="Subtraction_6"  d="M412,832H0V603.263C.177,623.684,17.426,640.3,38.453,640.3h98.256a34.615,34.615,0,0,1,17.77,4.865,31.466,31.466,0,0,1,12.274,13.273,43.18,43.18,0,0,0,15.931,17.717,45.07,45.07,0,0,0,47.727,0,43.174,43.174,0,0,0,15.931-17.717,31.472,31.472,0,0,1,12.275-13.273,34.617,34.617,0,0,1,17.771-4.865h97.157c21.2,0,38.453-16.757,38.453-37.353V832Z" transform="translate(0 -602.945)" fill="#fff"/>
</svg>
