<svg xmlns="http://www.w3.org/2000/svg" width="16" height="16" viewBox="0 0 16 16"><defs><style>.a{fill:#040238;}</style></defs><g transform="translate(-0.841 -0.33)"><path class="a" d="M14.1,16H1.9A1.907,1.907,0,0,1,0,14.1V3.809A1.907,1.907,0,0,1,1.9,1.9h.762V1.143a1.143,1.143,0,1,1,2.285,0V1.9h6.1V1.143a1.143,1.143,0,0,1,2.286,0V1.9H14.1a1.907,1.907,0,0,1,1.9,1.9V14.1A1.907,1.907,0,0,1,14.1,16ZM2.286,5.714A.381.381,0,0,0,1.9,6.1v7.619a.381.381,0,0,0,.381.381H13.714a.381.381,0,0,0,.381-.381V6.1a.381.381,0,0,0-.381-.381Z" transform="translate(0.841 0.33)"/><path class="a" d="M1.524.762A.762.762,0,1,1,.762,0a.761.761,0,0,1,.762.762" transform="translate(4.65 7.949)"/><path class="a" d="M1.524.762A.762.762,0,1,1,.762,0a.761.761,0,0,1,.762.762" transform="translate(4.65 10.997)"/><path class="a" d="M1.524.762A.762.762,0,1,1,.762,0a.761.761,0,0,1,.762.762" transform="translate(8.079 7.949)"/><path class="a" d="M1.524.762A.762.762,0,1,1,.762,0a.761.761,0,0,1,.762.762" transform="translate(8.079 10.997)"/><path class="a" d="M1.524.762A.762.762,0,1,1,.762,0a.761.761,0,0,1,.762.762" transform="translate(11.508 7.949)"/><path class="a" d="M1.524.762A.762.762,0,1,1,.762,0a.761.761,0,0,1,.762.762" transform="translate(11.508 10.997)"/></g></svg>