<svg xmlns="http://www.w3.org/2000/svg" width="15.703" height="19" viewBox="0 0 15.703 19"><defs><style>.a{fill:#040238;}.b{fill:#fff;}</style></defs><g transform="translate(-20 -181)"><path class="a" d="M57.891,2.313A7.857,7.857,0,0,0,46.78,13.424L52.316,19l5.536-5.536A7.912,7.912,0,0,0,57.891,2.313Z" transform="translate(-24.467 181)"/><path class="a" d="M119.592,70.933a5.259,5.259,0,1,0,5.259,5.259A5.257,5.257,0,0,0,119.592,70.933Z" transform="translate(-91.743 112.697)"/><path class="b" d="M179.166,112.533l-2.966,2.926v4.231h5.931v-4.231Z" transform="translate(-151.317 72.639)"/><rect class="a" width="2.017" height="3.379" transform="translate(26.86 189.956)"/><path class="a" d="M160.285,104.319l-3.4-3.4a.48.48,0,0,0-.633,0l-3.4,3.4a.447.447,0,0,0,.633.633l3.084-3.124,3.084,3.084a.481.481,0,0,0,.633,0A.43.43,0,0,0,160.285,104.319Z" transform="translate(-128.719 83.937)"/></g></svg>